<?xml version="1.0" encoding="UTF-8"?>
<svg id="Ebene_1" data-name="Ebene 1" xmlns="http://www.w3.org/2000/svg" xmlns:xlink="http://www.w3.org/1999/xlink" version="1.1" viewBox="0 0 5550.77 2330.81">
  <defs>
    <style>
      .cls-1 {
        fill: #2c2929;
      }

      .cls-1, .cls-2, .cls-3 {
        stroke-width: 0px;
      }

      .cls-4 {
        clip-path: url(#clippath);
      }

      .cls-5, .cls-2, .cls-6 {
        fill: none;
      }

      .cls-5, .cls-6 {
        stroke: #f9e1ed;
      }

      .cls-3 {
        fill: #f9e1ed;
      }

      .cls-6 {
        stroke-width: 5px;
      }
    </style>
    <clipPath id="clippath">
      <rect class="cls-2" x="3277.43" y="1183.09" width="429" height="96.9"/>
    </clipPath>
  </defs>
  <g id="e-002-003">
    <path id="e-002-003-2" data-name="e-002-003" class="cls-3" d="M2852.23,1227.79c.4-.4.4-1.1,0-1.5l-5.9-6.5c-.4-.4-.9-.4-1.3,0s-.4,1.1,0,1.4l5.2,5.8-5.2,5.8c-.4.4-.4,1.1,0,1.4s.9.4,1.3,0l5.9-6.5v.1ZM2268.03,1228.09h583.6v-2.1h-583.6v2.1Z"/>
  </g>
  <g id="e-002-003-3" data-name="e-002-003">
    <g class="cls-4">
      <path class="cls-3" d="M3648.43,1230.19c.4-.4.4-1.1,0-1.4l-6.5-6.5c-.4-.4-1.1-.4-1.4,0-.4.4-.4,1.1,0,1.4l5.8,5.8-5.8,5.8c-.4.4-.4,1.1,0,1.5s1.1.4,1.4,0l6.5-6.5v-.1ZM3277.43,1230.49h370.3v-2.1h-370.3v2.1Z"/>
    </g>
  </g>
  <g id="n-001">
    <rect class="cls-2" x="1412.3" y="898.14" width="820.2" height="619.9"/>
    <rect class="cls-3" x="865" y="1090.44" width="448.1" height="214.1"/>
    <rect class="cls-5" x="865" y="1090.44" width="448.1" height="214.1"/>
    <rect class="cls-5" x="865" y="1090.44" width="448.1" height="214.1"/>
    <path class="cls-1" d="M932.1,1167.34v-11.9h4.7c.9,0,1.7.2,2.3.5.6.3,1.1.8,1.5,1.4.3.6.5,1.3.5,2.1s-.2,1.5-.5,2.1-.8,1.1-1.5,1.4c-.6.3-1.4.5-2.3.5h-3v-2h2.6c.5,0,.9,0,1.2-.2.3-.2.6-.4.7-.7.2-.3.2-.7.2-1s0-.8-.2-1c-.2-.3-.4-.5-.7-.7-.3-.2-.7-.3-1.2-.3h-1.7v9.9h-2.5l-.1-.1ZM946.5,1167.54c-.9,0-1.7-.2-2.4-.6-.7-.4-1.2-.9-1.5-1.6-.4-.7-.5-1.5-.5-2.4s.2-1.7.5-2.4c.4-.7.9-1.2,1.5-1.6.7-.4,1.4-.6,2.4-.6s1.7.2,2.3.6c.7.4,1.2.9,1.5,1.6.4.7.5,1.5.5,2.4s-.2,1.7-.5,2.4c-.4.7-.9,1.2-1.5,1.6-.7.4-1.4.6-2.3.6ZM946.6,1165.54c.4,0,.8-.1,1-.3.3-.2.5-.6.6-1s.2-.9.2-1.4,0-1-.2-1.4c-.1-.4-.3-.7-.6-1s-.6-.4-1-.4-.8.1-1,.4c-.3.2-.5.6-.6,1s-.2.9-.2,1.4,0,1,.2,1.4c.1.4.4.7.6,1,.3.2.6.3,1,.3ZM955.1,1155.44v11.9h-2.5v-11.9h2.5ZM957,1167.34v-8.9h2.5v8.9h-2.5ZM958.3,1157.24c-.4,0-.7-.1-1-.4-.3-.2-.4-.5-.4-.9s.1-.6.4-.9c.3-.2.6-.4,1-.4s.7.1.9.4c.3.2.4.5.4.9s-.1.6-.4.9c-.3.2-.6.4-.9.4ZM966.3,1158.34v1.9h-5.4v-1.9h5.4ZM962.1,1156.24h2.5v8.3c0,.2,0,.4.1.5,0,.1.2.2.3.3h1.1l.4,1.9c-.1,0-.3,0-.5.1-.2,0-.5,0-.8.1-.6,0-1.1,0-1.6-.2-.4-.2-.8-.5-1-.9s-.4-.9-.4-1.4v-8.7h-.1ZM967.9,1167.34v-8.9h2.5v8.9h-2.5ZM969.1,1157.24c-.4,0-.7-.1-.9-.4-.3-.2-.4-.5-.4-.9s.1-.6.4-.9c.3-.2.6-.4.9-.4s.7.1.9.4c.3.2.4.5.4.9s-.1.6-.4.9c-.3.2-.6.4-.9.4ZM979.8,1160.94h-2.3s-.1-.2-.2-.4c-.1-.2-.3-.3-.5-.4s-.5-.1-.7-.1-.7,0-1,.2c-.3.1-.4.4-.4.6s0,.4.3.5c.2.1.5.3.9.3l1.6.3c.9.2,1.5.5,1.9.9s.6.9.6,1.6-.2,1.1-.5,1.5-.8.8-1.4,1-1.3.4-2.1.4c-1.2,0-2.1-.2-2.8-.7-.7-.5-1.1-1.2-1.2-2h2.4c0,.2.3.5.5.7.3.2.6.3,1.1.3s.8,0,1-.2c.3-.2.4-.4.4-.7,0-.2,0-.4-.3-.6-.2-.1-.5-.3-.9-.3l-1.6-.3c-.9-.2-1.5-.5-2-.9-.4-.4-.6-1-.6-1.7s.2-1.1.5-1.5.8-.7,1.3-1c.6-.2,1.2-.3,2-.3,1.1,0,2,.2,2.7.7s1,1.1,1.1,1.9l.2.2ZM985.6,1167.54c-.9,0-1.7-.2-2.4-.6-.7-.4-1.2-.9-1.5-1.6-.4-.7-.5-1.5-.5-2.4s.2-1.7.5-2.4c.4-.7.9-1.2,1.5-1.6.7-.4,1.4-.6,2.3-.6s1.5.1,2.1.4,1.1.7,1.4,1.2.5,1.1.6,1.8h-2.3c0-.4-.2-.8-.5-1.1-.3-.3-.6-.4-1.1-.4s-.7,0-1,.3c-.3.2-.5.5-.7.9s-.2.9-.2,1.4,0,1.1.2,1.5.4.7.7.9c.3.2.6.3,1,.3s.5,0,.8-.2c.2-.1.4-.3.6-.5s.3-.5.3-.8h2.3c0,.7-.2,1.3-.6,1.8-.3.5-.8.9-1.4,1.2-.6.3-1.3.4-2.1.4v.1ZM993.7,1162.14v5.2h-2.5v-11.9h2.4v4.6h.1c.2-.5.5-.9,1-1.2s1-.4,1.7-.4,1.2.1,1.6.4c.5.3.8.6,1.1,1.2.3.5.4,1.1.4,1.8v5.7h-2.5v-5.3c0-.5-.1-1-.4-1.3s-.7-.5-1.2-.5-.6,0-.9.2c-.3.1-.5.4-.6.6-.1.3-.2.6-.2,1v-.1ZM1005.6,1167.54c-.9,0-1.7-.2-2.4-.6-.7-.4-1.2-.9-1.5-1.6-.4-.7-.5-1.5-.5-2.4s.2-1.7.5-2.4c.4-.7.9-1.2,1.5-1.6.7-.4,1.4-.6,2.3-.6s1.1,0,1.7.3c.5.2,1,.5,1.3.8.4.4.7.9.9,1.4.2.6.3,1.2.3,2v.7h-7.6v-1.5h5.2c0-.4,0-.7-.2-.9-.2-.3-.4-.5-.6-.7-.3-.2-.6-.2-1-.2s-.7,0-1,.3c-.3.2-.5.4-.7.7-.2.3-.2.6-.3,1v1.5c0,.4,0,.8.2,1.1.2.3.4.6.7.8.3.2.7.3,1.1.3s.5,0,.8-.1c.2,0,.4-.2.6-.3.2-.2.3-.4.4-.6l2.3.2c-.1.5-.4,1-.7,1.4-.4.4-.8.7-1.4,1-.6.2-1.2.3-2,.3l.1-.3ZM1015.1,1167.34v-11.9h4.8c.9,0,1.6.1,2.2.4s1,.6,1.3,1.1c.3.4.4,1,.4,1.6s0,.9-.3,1.2c-.2.4-.4.6-.8.9-.3.2-.7.4-1.1.5h0c.5.1.9.3,1.3.5s.7.6,1,1c.2.4.4.9.4,1.5s-.2,1.2-.5,1.7-.8.9-1.4,1.2-1.4.4-2.3.4h-5.1l.1-.1ZM1017.7,1165.24h2.1c.7,0,1.2-.1,1.5-.4s.5-.6.5-1.1,0-.6-.2-.9-.4-.4-.7-.6c-.3-.1-.6-.2-1-.2h-2.1v3.2h-.1ZM1017.7,1160.44h1.9c.3,0,.7,0,.9-.2.3-.1.5-.3.6-.5.2-.2.2-.5.2-.8s-.2-.8-.5-1c-.3-.3-.7-.4-1.3-.4h-1.9v3l.1-.1ZM1025.9,1167.34v-8.9h2.5v8.9h-2.5ZM1027.2,1157.24c-.4,0-.7-.1-1-.4-.3-.2-.4-.5-.4-.9s.1-.6.4-.9c.3-.2.6-.4,1-.4s.7.1.9.4c.3.2.4.5.4.9s-.1.6-.4.9c-.3.2-.6.4-.9.4ZM1032.9,1155.44v11.9h-2.5v-11.9h2.5ZM1038.2,1167.44c-.7,0-1.3-.2-1.8-.5-.5-.4-1-.9-1.3-1.6s-.5-1.5-.5-2.5.2-1.9.5-2.6.8-1.2,1.3-1.5c.6-.3,1.2-.5,1.8-.5s.9,0,1.3.3c.3.2.6.4.8.6.2.2.4.5.5.7h0v-4.5h2.5v11.9h-2.4v-1.4h-.1c-.1.2-.3.5-.5.7s-.5.4-.8.6-.7.2-1.2.2l-.1.1ZM1039,1165.54c.4,0,.7-.1,1-.3.3-.2.5-.5.6-.9.2-.4.2-.9.2-1.4s0-1-.2-1.4c-.1-.4-.4-.7-.6-.9-.3-.2-.6-.3-1-.3s-.8.1-1,.3c-.3.2-.5.5-.6.9s-.2.8-.2,1.4,0,1,.2,1.4c.1.4.4.7.6.9.3.2.6.3,1,.3ZM1049.4,1167.54c-.9,0-1.7-.2-2.4-.6-.7-.4-1.2-.9-1.5-1.6-.4-.7-.5-1.5-.5-2.4s.2-1.7.5-2.4c.4-.7.9-1.2,1.5-1.6.7-.4,1.4-.6,2.3-.6s1.1,0,1.7.3c.5.2,1,.5,1.3.8.4.4.7.9.9,1.4.2.6.3,1.2.3,2v.7h-7.6v-1.5h5.2c0-.4,0-.7-.2-.9-.2-.3-.4-.5-.6-.7-.3-.2-.6-.2-1-.2s-.7,0-1,.3c-.3.2-.5.4-.7.7-.2.3-.2.6-.3,1v1.5c0,.4,0,.8.2,1.1.2.3.4.6.7.8.3.2.7.3,1.1.3s.5,0,.8-.1c.2,0,.4-.2.6-.3.2-.2.3-.4.4-.6l2.3.2c-.1.5-.4,1-.7,1.4-.4.4-.8.7-1.4,1-.6.2-1.2.3-2,.3l.1-.3ZM1055.1,1167.34v-8.9h2.4v1.6h0c.2-.6.4-1,.8-1.3s.8-.4,1.3-.4.3,0,.4,0h.4v2.2h-1.1c-.4,0-.7,0-1,.2s-.5.4-.7.7c-.2.3-.2.6-.2,1v5.1h-2.5l.2-.2ZM1067.9,1164.74v-3h.4l2.9-3.4h2.9l-3.9,4.5h-.6l-1.6,1.9h-.1ZM1065.7,1167.34v-11.9h2.5v11.9h-2.5ZM1071.3,1167.34l-2.6-3.9,1.7-1.8,3.9,5.6h-2.9l-.1.1ZM1078.9,1167.54c-.9,0-1.7-.2-2.3-.6-.7-.4-1.2-.9-1.5-1.6-.4-.7-.5-1.5-.5-2.4s.2-1.7.5-2.4c.4-.7.9-1.2,1.5-1.6.7-.4,1.4-.6,2.3-.6s1.7.2,2.3.6c.7.4,1.2.9,1.5,1.6.4.7.5,1.5.5,2.4s-.2,1.7-.5,2.4c-.4.7-.9,1.2-1.5,1.6-.7.4-1.4.6-2.3.6ZM1078.9,1165.54c.4,0,.8-.1,1-.3.3-.2.5-.6.6-1s.2-.9.2-1.4,0-1-.2-1.4c-.1-.4-.3-.7-.6-1s-.6-.4-1-.4-.8.1-1,.4c-.3.2-.5.6-.6,1s-.2.9-.2,1.4,0,1,.2,1.4c.1.4.4.7.6,1,.3.2.6.3,1,.3ZM1077.1,1157.14c-.3,0-.6-.1-.9-.4-.2-.2-.4-.5-.4-.8s.1-.6.4-.8c.2-.2.5-.3.9-.3s.6.1.9.3c.2.2.4.5.4.8s-.1.6-.4.8c-.2.2-.5.4-.9.4ZM1080.7,1157.14c-.3,0-.6-.1-.9-.4-.2-.2-.4-.5-.4-.8s.1-.6.4-.8c.2-.2.5-.3.9-.3s.6.1.9.3c.2.2.4.5.4.8s-.1.6-.4.8c-.2.2-.5.4-.9.4ZM1087.4,1162.14v5.2h-2.5v-8.9h2.4v1.6h.1c.2-.5.5-.9,1-1.2.5-.3,1-.5,1.7-.5s1.2.1,1.6.4c.5.3.8.7,1.1,1.2.3.5.4,1.1.4,1.8v5.7h-2.5v-5.3c0-.5-.1-1-.4-1.3s-.7-.5-1.2-.5-.6,0-.9.2c-.3.1-.5.4-.6.6-.1.3-.2.6-.2,1h0ZM1097.6,1162.14v5.2h-2.5v-8.9h2.4v1.6h.1c.2-.5.5-.9,1-1.2.5-.3,1-.5,1.7-.5s1.2.1,1.6.4c.5.3.8.7,1.1,1.2.3.5.4,1.1.4,1.8v5.7h-2.5v-5.3c0-.5-.1-1-.4-1.3s-.7-.5-1.2-.5-.6,0-.9.2c-.3.1-.5.4-.6.6-.1.3-.2.6-.2,1h0ZM1109.4,1167.54c-.9,0-1.7-.2-2.4-.6-.7-.4-1.2-.9-1.5-1.6-.4-.7-.5-1.5-.5-2.4s.2-1.7.5-2.4c.4-.7.9-1.2,1.5-1.6.7-.4,1.4-.6,2.3-.6s1.1,0,1.6.3c.5.2,1,.5,1.3.8.4.4.7.9.9,1.4.2.6.3,1.2.3,2v.7h-7.6v-1.5h5.2c0-.4,0-.7-.2-.9-.2-.3-.4-.5-.6-.7-.3-.2-.6-.2-1-.2s-.7,0-1,.3c-.3.2-.5.4-.7.7-.2.3-.2.6-.3,1v1.5c0,.4,0,.8.2,1.1.2.3.4.6.7.8.3.2.7.3,1.1.3s.5,0,.8-.1c.2,0,.4-.2.6-.3.2-.2.3-.4.4-.6l2.3.2c-.1.5-.4,1-.7,1.4-.4.4-.8.7-1.4,1-.6.2-1.2.3-2,.3l.2-.3ZM1117.7,1162.14v5.2h-2.5v-8.9h2.4v1.6h.1c.2-.5.5-.9,1-1.2.5-.3,1-.5,1.7-.5s1.2.1,1.6.4.8.7,1.1,1.2c.3.5.4,1.1.4,1.8v5.7h-2.5v-5.3c0-.5-.1-1-.4-1.3s-.7-.5-1.2-.5-.6,0-.9.2c-.3.1-.5.4-.6.6-.1.3-.2.6-.2,1h0ZM1131.7,1162.14v5.2h-2.5v-8.9h2.4v1.6h.1c.2-.5.5-.9,1-1.2.5-.3,1-.5,1.7-.5s1.2.1,1.6.4c.5.3.8.7,1.1,1.2.3.5.4,1.1.4,1.8v5.7h-2.5v-5.3c0-.5-.1-1-.4-1.3s-.7-.5-1.2-.5-.6,0-.9.2c-.3.1-.5.4-.6.6-.1.3-.2.6-.2,1h0ZM1145.1,1163.54v-5.1h2.5v8.9h-2.4v-1.6h0c-.2.5-.5.9-1,1.3-.5.3-1,.5-1.7.5s-1.1-.1-1.6-.4-.8-.7-1.1-1.2c-.3-.5-.4-1.1-.4-1.8v-5.7h2.5v5.3c0,.5.1.9.4,1.2s.7.5,1.1.5.6,0,.8-.2c.3-.1.5-.4.6-.6.2-.3.2-.6.2-1l.1-.1ZM1149.6,1167.34v-8.9h2.4v1.6h0c.2-.6.4-1,.8-1.3s.8-.4,1.3-.4.3,0,.4,0h.4v2.2h-1.1c-.4,0-.7,0-1,.2s-.5.4-.7.7c-.2.3-.2.6-.2,1v5.1h-2.5l.2-.2ZM1163.4,1167.44c-.7,0-1.3-.2-1.8-.5-.5-.4-1-.9-1.3-1.6s-.5-1.5-.5-2.5.2-1.9.5-2.6.8-1.2,1.3-1.5c.6-.3,1.2-.5,1.8-.5s.9,0,1.3.3c.3.2.6.4.8.6.2.2.4.5.5.7h0v-4.5h2.5v11.9h-2.4v-1.4h-.1c-.1.2-.3.5-.5.7s-.5.4-.8.6-.7.2-1.2.2l-.1.1ZM1164.2,1165.54c.4,0,.7-.1,1-.3.3-.2.5-.5.6-.9.2-.4.2-.9.2-1.4s0-1-.2-1.4c-.1-.4-.4-.7-.6-.9-.3-.2-.6-.3-1-.3s-.8.1-1,.3c-.3.2-.5.5-.6.9s-.2.8-.2,1.4,0,1,.2,1.4c.1.4.4.7.6.9.3.2.6.3,1,.3ZM1176.3,1163.54v-5.1h2.5v8.9h-2.4v-1.6h0c-.2.5-.5.9-1,1.3-.5.3-1,.5-1.7.5s-1.1-.1-1.6-.4-.8-.7-1.1-1.2c-.3-.5-.4-1.1-.4-1.8v-5.7h2.5v5.3c0,.5.1.9.4,1.2.3.3.7.5,1.1.5s.6,0,.8-.2c.3-.1.5-.4.6-.6.2-.3.2-.6.2-1l.1-.1ZM1180.8,1167.34v-8.9h2.4v1.6h0c.2-.6.4-1,.8-1.3s.8-.4,1.3-.4.3,0,.4,0h.4v2.2h-1.1c-.4,0-.7,0-1,.2s-.5.4-.7.7c-.2.3-.2.6-.2,1v5.1h-2.5l.2-.2ZM1191.1,1167.54c-.9,0-1.7-.2-2.4-.6-.7-.4-1.2-.9-1.5-1.6s-.5-1.5-.5-2.4.2-1.7.5-2.4c.4-.7.9-1.2,1.5-1.6.7-.4,1.4-.6,2.3-.6s1.5.1,2.1.4,1.1.7,1.4,1.2.5,1.1.6,1.8h-2.3c0-.4-.2-.8-.5-1.1-.3-.3-.6-.4-1.1-.4s-.7,0-1,.3c-.3.2-.5.5-.7.9s-.2.9-.2,1.4,0,1.1.2,1.5.4.7.7.9c.3.2.6.3,1,.3s.5,0,.8-.2c.2-.1.4-.3.6-.5s.3-.5.3-.8h2.3c0,.7-.2,1.3-.6,1.8-.3.5-.8.9-1.4,1.2-.6.3-1.3.4-2.1.4v.1ZM1199.2,1162.14v5.2h-2.5v-11.9h2.4v4.6h.1c.2-.5.5-.9,1-1.2s1-.4,1.7-.4,1.2.1,1.6.4c.5.3.8.6,1.1,1.2.3.5.4,1.1.4,1.8v5.7h-2.5v-5.3c0-.5-.1-1-.4-1.3s-.7-.5-1.2-.5-.6,0-.9.2c-.3.1-.5.4-.6.6-.1.3-.2.6-.2,1v-.1ZM934.5,1176.44v11.9h-2.5v-11.9h2.5ZM939,1188.54c-.6,0-1.1-.1-1.5-.3-.4-.2-.8-.5-1.1-.9-.3-.4-.4-.9-.4-1.5s0-.9.3-1.2c.2-.3.4-.6.7-.8.3-.2.7-.4,1.1-.5.4,0,.8-.2,1.3-.2s.9,0,1.3-.1c.3,0,.5-.1.7-.2.1-.1.2-.2.2-.4h0c0-.4-.1-.7-.3-.9-.2-.2-.6-.3-1-.3s-.8.1-1.1.3c-.3.2-.4.4-.5.7l-2.3-.2c.1-.6.3-1,.7-1.4.3-.4.8-.7,1.3-.9.5-.2,1.2-.3,1.9-.3s1,0,1.4.2c.5.1.9.3,1.2.6.4.2.6.6.8.9.2.4.3.8.3,1.4v6h-2.4v-1.2h0c-.1.3-.3.5-.6.7-.2.2-.5.4-.9.5-.3.1-.7.2-1.2.2l.1-.2ZM939.8,1186.84c.4,0,.7,0,1-.2.3-.1.5-.3.7-.6s.2-.5.2-.9v-.9s-.2.1-.3.1-.3,0-.4.1h-.5c-.2.1-.3.1-.5.1-.3,0-.5.1-.8.2-.2,0-.4.2-.5.4-.1.1-.2.4-.2.6,0,.3.1.6.4.8.2.2.6.3.9.3h0ZM948.5,1183.14v5.2h-2.5v-8.9h2.4v1.6h.1c.2-.5.5-.9,1-1.2.5-.3,1-.5,1.7-.5s1.2.1,1.6.4c.5.3.8.7,1.1,1.2.3.5.4,1.1.4,1.8v5.7h-2.5v-5.3c0-.5-.1-1-.4-1.3s-.7-.5-1.2-.5-.6,0-.9.2c-.3.1-.5.4-.6.6-.1.3-.2.6-.2,1h0ZM960.3,1191.84c-.8,0-1.5-.1-2.1-.3-.6-.2-1-.5-1.4-.9-.3-.4-.6-.8-.7-1.3l2.3-.3c0,.2.2.4.3.5.2.2.4.3.6.4.3,0,.6.1.9.1.5,0,1-.1,1.3-.4.4-.3.5-.7.5-1.3v-1.6h-.1c-.1.2-.3.5-.5.7s-.5.4-.8.5-.8.2-1.2.2c-.7,0-1.3-.2-1.8-.5s-1-.8-1.3-1.4-.5-1.5-.5-2.5.2-1.9.5-2.6.8-1.2,1.3-1.5c.6-.3,1.2-.5,1.8-.5s.9,0,1.3.3c.3.2.6.4.8.6.2.2.4.5.5.7h0v-1.5h2.5v9c0,.8-.2,1.4-.6,1.9s-.9.9-1.6,1.2c-.7.3-1.4.4-2.3.4l.3.1ZM960.3,1186.34c.4,0,.7,0,1-.3.3-.2.5-.5.6-.9.2-.4.2-.8.2-1.4s0-1-.2-1.4c-.1-.4-.4-.7-.6-.9-.3-.2-.6-.3-1-.3s-.8.1-1,.3c-.3.2-.5.5-.6.9s-.2.8-.2,1.3,0,1,.2,1.3c.1.4.4.7.6.9.3.2.6.3,1,.3v.2ZM970.7,1188.54c-.9,0-1.7-.2-2.4-.6-.7-.4-1.2-.9-1.5-1.6-.4-.7-.5-1.5-.5-2.4s.2-1.7.5-2.4c.4-.7.9-1.2,1.5-1.6.7-.4,1.4-.6,2.3-.6s1.1,0,1.7.3c.5.2,1,.5,1.3.8.4.4.7.9.9,1.4.2.6.3,1.2.3,2v.7h-7.6v-1.5h5.2c0-.4,0-.7-.2-.9-.2-.3-.4-.5-.6-.7-.3-.2-.6-.2-1-.2s-.7,0-1,.3c-.3.2-.5.4-.7.7-.2.3-.2.6-.3,1v1.5c0,.4,0,.8.2,1.1.2.3.4.6.7.8.3.2.7.3,1.1.3s.5,0,.8-.1c.2,0,.4-.2.6-.3.2-.2.3-.4.4-.6l2.3.2c-.1.5-.4,1-.7,1.4-.4.4-.8.7-1.4,1-.6.2-1.2.3-2,.3l.1-.3ZM986,1184.54v-5.1h2.5v8.9h-2.4v-1.6h0c-.2.5-.5.9-1,1.3-.5.3-1,.5-1.7.5s-1.1-.1-1.6-.4-.8-.7-1.1-1.2c-.3-.5-.4-1.1-.4-1.8v-5.7h2.5v5.3c0,.5.1.9.4,1.2.3.3.7.5,1.1.5s.6,0,.8-.2c.3-.1.5-.4.6-.6.2-.3.2-.6.2-1l.1-.1ZM992.9,1183.14v5.2h-2.5v-8.9h2.4v1.6h.1c.2-.5.5-.9,1-1.2.5-.3,1-.5,1.7-.5s1.2.1,1.6.4c.5.3.8.7,1.1,1.2.3.5.4,1.1.4,1.8v5.7h-2.5v-5.3c0-.5-.1-1-.4-1.3s-.7-.5-1.2-.5-.6,0-.9.2c-.3.1-.5.4-.6.6-.1.3-.2.6-.2,1h0ZM1004,1188.44c-.7,0-1.3-.2-1.8-.5-.5-.4-1-.9-1.3-1.6s-.5-1.5-.5-2.5.2-1.9.5-2.6.8-1.2,1.3-1.5c.6-.3,1.2-.5,1.8-.5s.9,0,1.3.3c.3.2.6.4.8.6.2.2.4.5.5.7h0v-4.5h2.5v11.9h-2.4v-1.4h-.1c-.1.2-.3.5-.5.7s-.5.4-.8.6-.7.2-1.2.2l-.1.1ZM1004.7,1186.54c.4,0,.7-.1,1-.3.3-.2.5-.5.6-.9.2-.4.2-.9.2-1.4s0-1-.2-1.4c-.1-.4-.4-.7-.6-.9-.3-.2-.6-.3-1-.3s-.8.1-1,.3c-.3.2-.5.5-.6.9s-.2.8-.2,1.4,0,1,.2,1.4c.1.4.4.7.6.9.3.2.6.3,1,.3ZM1017.2,1185.74v-3h.4l2.9-3.4h2.9l-3.9,4.5h-.6l-1.6,1.9h-.1ZM1014.9,1188.34v-11.9h2.5v11.9h-2.5ZM1020.5,1188.34l-2.6-3.9,1.7-1.8,3.9,5.6h-2.9l-.1.1ZM1024.5,1188.34v-8.9h2.4v1.6h0c.2-.6.4-1,.8-1.3s.8-.4,1.3-.4.3,0,.4,0h.4v2.2h-1.1c-.4,0-.7,0-1,.2s-.5.4-.7.7c-.2.3-.2.6-.2,1v5.1h-2.5l.2-.2ZM1031.2,1188.34v-8.9h2.5v8.9h-2.5ZM1032.4,1178.24c-.4,0-.7-.1-1-.4-.3-.2-.4-.5-.4-.9s.1-.6.4-.9c.3-.2.6-.4,1-.4s.7.1.9.4c.3.2.4.5.4.9s-.1.6-.4.9c-.3.2-.6.4-.9.4ZM1040.4,1179.34v1.9h-5.4v-1.9h5.4ZM1036.2,1177.24h2.5v8.3c0,.2,0,.4.1.5,0,.1.2.2.3.3h1l.4,1.9c-.1,0-.3,0-.5.1-.2,0-.5,0-.8.1-.6,0-1.1,0-1.6-.2-.4-.2-.8-.5-1-.9s-.4-.9-.4-1.4v-8.7h0ZM1042,1188.34v-8.9h2.5v8.9h-2.5ZM1043.3,1178.24c-.4,0-.7-.1-.9-.4-.3-.2-.4-.5-.4-.9s.1-.6.4-.9c.3-.2.6-.4.9-.4s.7.1.9.4c.3.2.4.5.4.9s-.1.6-.4.9c-.3.2-.6.4-.9.4ZM1054,1181.94h-2.3s-.1-.2-.3-.4c-.1-.2-.3-.3-.5-.4s-.5-.1-.7-.1-.7,0-1,.2c-.3.1-.4.4-.4.6s0,.4.3.5c.2.1.5.3.9.3l1.6.3c.9.2,1.5.5,1.9.9s.6.9.6,1.6-.2,1.1-.5,1.5-.8.8-1.4,1-1.3.4-2.1.4c-1.2,0-2.1-.2-2.8-.7-.7-.5-1.1-1.2-1.2-2h2.4c0,.2.3.5.5.7.3.2.6.3,1.1.3s.8,0,1-.2c.3-.2.4-.4.4-.7,0-.2,0-.4-.3-.6-.2-.1-.5-.3-.9-.3l-1.6-.3c-.9-.2-1.5-.5-2-.9-.4-.4-.6-1-.6-1.7s.2-1.1.5-1.5.8-.7,1.3-1c.6-.2,1.2-.3,2-.3,1.1,0,2,.2,2.7.7s1,1.1,1.1,1.9l.3.2ZM1059.8,1188.54c-.9,0-1.7-.2-2.4-.6-.7-.4-1.2-.9-1.5-1.6-.4-.7-.5-1.5-.5-2.4s.2-1.7.5-2.4c.4-.7.9-1.2,1.5-1.6.7-.4,1.4-.6,2.3-.6s1.5.1,2.1.4,1.1.7,1.4,1.2.5,1.1.6,1.8h-2.3c0-.4-.2-.8-.5-1.1-.3-.3-.6-.4-1.1-.4s-.7,0-1,.3c-.3.2-.5.5-.7.9s-.2.9-.2,1.4,0,1.1.2,1.5.4.7.7.9c.3.2.6.3,1,.3s.5,0,.8-.2c.2-.1.4-.3.6-.5s.3-.5.3-.8h2.3c0,.7-.2,1.3-.6,1.8-.3.5-.8.9-1.4,1.2-.6.3-1.3.4-2.1.4v.1ZM1067.8,1183.14v5.2h-2.5v-11.9h2.4v4.6h.1c.2-.5.5-.9,1-1.2.5-.3,1-.4,1.7-.4s1.2.1,1.6.4c.5.3.8.6,1.1,1.2.3.5.4,1.1.4,1.8v5.7h-2.5v-5.3c0-.5-.1-1-.4-1.3s-.7-.5-1.2-.5-.6,0-.9.2c-.3.1-.5.4-.6.6-.1.3-.2.6-.2,1v-.1ZM1079.7,1188.54c-.9,0-1.7-.2-2.4-.6-.7-.4-1.2-.9-1.5-1.6-.4-.7-.5-1.5-.5-2.4s.2-1.7.5-2.4c.4-.7.9-1.2,1.5-1.6.7-.4,1.4-.6,2.3-.6s1.1,0,1.7.3c.5.2,1,.5,1.3.8.4.4.7.9.9,1.4.2.6.3,1.2.3,2v.7h-7.6v-1.5h5.2c0-.4,0-.7-.2-.9-.2-.3-.4-.5-.6-.7-.3-.2-.6-.2-1-.2s-.7,0-1,.3c-.3.2-.5.4-.7.7-.2.3-.2.6-.3,1v1.5c0,.4,0,.8.2,1.1.2.3.4.6.7.8.3.2.7.3,1.1.3s.5,0,.8-.1c.2,0,.4-.2.6-.3.2-.2.3-.4.4-.6l2.3.2c-.1.5-.4,1-.7,1.4-.4.4-.8.7-1.4,1-.6.2-1.2.3-2,.3l.1-.3ZM1091.3,1188.34h-2.7l4.1-11.9h3.3l4.1,11.9h-2.7l-3-9.2h0l-3,9.2h-.1ZM1091.2,1183.64h6.4v2h-6.4v-2ZM1104,1183.14v5.2h-2.5v-8.9h2.4v1.6h.1c.2-.5.5-.9,1-1.2.5-.3,1-.5,1.7-.5s1.2.1,1.6.4c.5.3.8.7,1.1,1.2.3.5.4,1.1.4,1.8v5.7h-2.5v-5.3c0-.5-.1-1-.4-1.3s-.7-.5-1.2-.5-.6,0-.9.2c-.3.1-.5.4-.6.6-.1.3-.2.6-.2,1h0ZM1114.3,1188.54c-.6,0-1.1-.1-1.5-.3-.4-.2-.8-.5-1.1-.9-.3-.4-.4-.9-.4-1.5s0-.9.3-1.2c.2-.3.4-.6.7-.8.3-.2.7-.4,1.1-.5.4,0,.8-.2,1.3-.2s.9,0,1.3-.1c.3,0,.5-.1.7-.2.1-.1.2-.2.2-.4h0c0-.4-.1-.7-.3-.9-.2-.2-.6-.3-1-.3s-.8.1-1.1.3c-.3.2-.4.4-.5.7l-2.3-.2c.1-.6.3-1,.7-1.4.3-.4.8-.7,1.3-.9.5-.2,1.2-.3,1.9-.3s1,0,1.4.2c.5.1.9.3,1.2.6.4.2.6.6.8.9.2.4.3.8.3,1.4v6h-2.4v-1.2h0c-.1.3-.3.5-.6.7-.2.2-.5.4-.9.5-.3.1-.7.2-1.2.2l.1-.2ZM1115,1186.84c.4,0,.7,0,1-.2.3-.1.5-.3.7-.6.2-.2.2-.5.2-.9v-.9s-.2.1-.3.1-.3,0-.4.1h-1c-.3,0-.5.1-.8.2-.2,0-.4.2-.5.4-.1.1-.2.4-.2.6,0,.3.1.6.4.8.2.2.6.3.9.3v.1ZM1123.7,1176.44v11.9h-2.5v-11.9h2.5ZM1127.3,1191.74h-.9c-.3,0-.5-.1-.7-.2l.6-1.9c.3,0,.6.1.8.2.2,0,.4,0,.6-.2.2-.1.3-.3.4-.6v-.4c.1,0-3.1-9.2-3.1-9.2h2.6l1.9,6.6h0l1.9-6.6h2.6l-3.5,9.9c-.2.5-.4.9-.7,1.3-.3.4-.6.6-1.1.8-.4.2-1,.3-1.6.3h.2ZM1142.8,1181.94h-2.3s-.1-.2-.3-.4c-.1-.2-.3-.3-.5-.4s-.5-.1-.7-.1-.7,0-1,.2c-.3.1-.4.4-.4.6s0,.4.3.5c.2.1.5.3.9.3l1.6.3c.9.2,1.5.5,1.9.9s.6.9.6,1.6-.2,1.1-.5,1.5-.8.8-1.4,1-1.3.4-2.1.4c-1.2,0-2.1-.2-2.8-.7-.7-.5-1.1-1.2-1.2-2h2.4c0,.2.3.5.5.7.3.2.6.3,1.1.3s.8,0,1.1-.2c.3-.2.4-.4.4-.7,0-.2,0-.4-.3-.6-.2-.1-.5-.3-.9-.3l-1.6-.3c-.9-.2-1.5-.5-2-.9-.4-.4-.6-1-.6-1.7s.2-1.1.5-1.5.8-.7,1.3-1c.6-.2,1.2-.3,2-.3,1.1,0,2,.2,2.7.7s1,1.1,1.1,1.9l.2.2ZM1148.6,1188.54c-.9,0-1.7-.2-2.4-.6-.7-.4-1.2-.9-1.5-1.6-.4-.7-.5-1.5-.5-2.4s.2-1.7.5-2.4c.4-.7.9-1.2,1.5-1.6.7-.4,1.4-.6,2.3-.6s1.1,0,1.7.3c.5.2,1,.5,1.3.8.4.4.7.9.9,1.4.2.6.3,1.2.3,2v.7h-7.6v-1.5h5.2c0-.4,0-.7-.2-.9-.2-.3-.4-.5-.6-.7-.3-.2-.6-.2-1-.2s-.7,0-1,.3c-.3.2-.5.4-.7.7-.2.3-.2.6-.3,1v1.5c0,.4,0,.8.2,1.1.2.3.4.6.7.8.3.2.7.3,1.1.3s.5,0,.8-.1c.2,0,.4-.2.6-.3.2-.2.3-.4.4-.6l2.3.2c-.1.5-.4,1-.7,1.4-.4.4-.8.7-1.4,1-.6.2-1.2.3-2,.3l.1-.3ZM1160.4,1185.74v-3h.4l2.9-3.4h2.9l-3.9,4.5h-.6l-1.6,1.9h-.1ZM1158.2,1188.34v-11.9h2.5v11.9h-2.5ZM1163.8,1188.34l-2.6-3.9,1.7-1.8,3.9,5.6h-2.9l-.1.1ZM1170.2,1176.44v11.9h-2.5v-11.9h2.5ZM1174.8,1188.54c-.6,0-1.1-.1-1.5-.3-.4-.2-.8-.5-1.1-.9-.3-.4-.4-.9-.4-1.5s0-.9.3-1.2c.2-.3.4-.6.7-.8.3-.2.7-.4,1.1-.5.4,0,.8-.2,1.3-.2s.9,0,1.3-.1c.3,0,.5-.1.7-.2.1-.1.2-.2.2-.4h0c0-.4-.1-.7-.3-.9-.2-.2-.6-.3-1-.3s-.8.1-1.1.3c-.3.2-.4.4-.5.7l-2.3-.2c.1-.6.3-1,.7-1.4.3-.4.8-.7,1.3-.9.5-.2,1.2-.3,1.9-.3s1,0,1.4.2c.5.1.9.3,1.2.6.4.2.6.6.8.9.2.4.3.8.3,1.4v6h-2.4v-1.2h0c-.1.3-.3.5-.6.7-.2.2-.5.4-.9.5-.3.1-.7.2-1.2.2l.1-.2ZM1175.5,1186.84c.4,0,.7,0,1-.2.3-.1.5-.3.7-.6.2-.2.2-.5.2-.9v-.9s-.2.1-.3.1-.3,0-.4.1h-.5c-.2.1-.3.1-.5.1-.3,0-.5.1-.8.2-.2,0-.4.2-.5.4-.1.1-.2.4-.2.6,0,.3.1.6.4.8.2.2.6.3.9.3h0ZM1181.7,1188.34v-8.9h2.4v1.6h0c.2-.6.4-1,.8-1.3s.8-.4,1.3-.4.3,0,.4,0h.4v2.2h-1.1c-.4,0-.7,0-1,.2s-.5.4-.7.7c-.2.3-.2.6-.2,1v5.1h-2.5l.2-.2ZM1194.8,1188.54c-.6,0-1.1-.1-1.5-.3-.4-.2-.8-.5-1.1-.9-.3-.4-.4-.9-.4-1.5s0-.9.3-1.2c.2-.3.4-.6.7-.8.3-.2.7-.4,1.1-.5.4,0,.8-.2,1.3-.2s.9,0,1.3-.1c.3,0,.5-.1.7-.2.1-.1.2-.2.2-.4h0c0-.4-.1-.7-.3-.9-.2-.2-.6-.3-1-.3s-.8.1-1.1.3c-.3.2-.4.4-.5.7l-2.3-.2c.1-.6.3-1,.7-1.4.3-.4.8-.7,1.3-.9.5-.2,1.2-.3,1.9-.3s1,0,1.4.2c.5.1.9.3,1.2.6.4.2.6.6.8.9.2.4.3.8.3,1.4v6h-2.4v-1.2h0c-.1.3-.3.5-.6.7s-.5.4-.9.5c-.3.1-.7.2-1.2.2l.1-.2ZM1195.5,1186.84c.4,0,.7,0,1-.2.3-.1.5-.3.7-.6.2-.2.2-.5.2-.9v-.9s-.2.1-.3.1-.3,0-.4.1h-1c-.3,0-.5.1-.8.2-.2,0-.4.2-.5.4-.1.1-.2.4-.2.6,0,.3.1.6.4.8.2.2.6.3.9.3v.1ZM1204.3,1176.44v11.9h-2.5v-11.9h2.5ZM1213.7,1181.94h-2.3s-.1-.2-.3-.4c-.1-.2-.3-.3-.5-.4s-.5-.1-.7-.1-.7,0-1,.2c-.3.1-.4.4-.4.6s0,.4.3.5c.2.1.5.3.9.3l1.6.3c.9.2,1.5.5,1.9.9s.6.9.6,1.6-.2,1.1-.5,1.5-.8.8-1.4,1-1.3.4-2.1.4c-1.2,0-2.1-.2-2.8-.7-.7-.5-1.1-1.2-1.2-2h2.4c0,.2.3.5.5.7.3.2.6.3,1.1.3s.8,0,1-.2c.3-.2.4-.4.4-.7,0-.2-.1-.4-.3-.6-.2-.1-.5-.3-.9-.3l-1.6-.3c-.9-.2-1.5-.5-2-.9-.4-.4-.6-1-.6-1.7s.2-1.1.5-1.5.8-.7,1.3-1c.6-.2,1.2-.3,2-.3,1.1,0,2,.2,2.7.7s1,1.1,1.1,1.9l.3.2ZM935.3,1208.44c-.7,0-1.3-.2-1.8-.5-.5-.4-1-.9-1.3-1.6s-.5-1.5-.5-2.5.2-1.9.5-2.6.8-1.2,1.3-1.5c.6-.3,1.2-.5,1.8-.5s.9,0,1.3.3c.3.2.6.4.8.6.2.2.4.5.5.7h0v-4.5h2.5v11.9h-2.4v-1.4h-.1c-.1.2-.3.5-.5.7s-.5.4-.8.6-.7.2-1.2.2l-.1.1ZM936.1,1206.54c.4,0,.7-.1,1-.3.3-.2.5-.5.6-.9.2-.4.2-.9.2-1.4s0-1-.2-1.4c-.1-.4-.4-.7-.6-.9-.3-.2-.6-.3-1-.3s-.8.1-1,.3c-.3.2-.5.5-.6.9s-.2.8-.2,1.4,0,1,.2,1.4c.1.4.4.7.6.9.3.2.6.3,1,.3ZM946.5,1208.54c-.9,0-1.7-.2-2.4-.6-.7-.4-1.2-.9-1.5-1.6-.4-.7-.5-1.5-.5-2.4s.2-1.7.5-2.4c.4-.7.9-1.2,1.5-1.6.7-.4,1.4-.6,2.3-.6s1.1,0,1.6.3c.5.2,1,.5,1.3.8.4.4.7.9.9,1.4.2.6.3,1.2.3,2v.7h-7.6v-1.5h5.2c0-.4,0-.7-.2-.9-.2-.3-.4-.5-.6-.7-.3-.2-.6-.2-1-.2s-.7,0-1,.3c-.3.2-.5.4-.7.7-.2.3-.2.6-.3,1v1.5c0,.4,0,.8.2,1.1.2.3.4.6.7.8.3.2.7.3,1.1.3s.5,0,.8-.1c.2,0,.4-.2.6-.3.2-.2.3-.4.4-.6l2.3.2c-.1.5-.4,1-.7,1.4-.4.4-.8.7-1.4,1-.6.2-1.2.3-2,.3l.2-.3ZM952.3,1208.34v-8.9h2.4v1.6h.1c.2-.5.5-.9.9-1.2.4-.3,1-.4,1.6-.4s1.1.1,1.6.5c.4.3.7.7.9,1.2h0c.2-.5.5-.9,1-1.2.5-.3,1.1-.5,1.7-.5s1.5.3,2,.8.8,1.3.8,2.2v6h-2.5v-5.5c0-.5-.1-.9-.4-1.1s-.6-.4-1-.4-.8.1-1.1.4c-.3.3-.4.7-.4,1.1v5.5h-2.4v-5.6c0-.4-.1-.8-.4-1.1-.2-.3-.6-.4-1-.4s-.5,0-.7.2c-.2.1-.4.3-.5.6-.1.2-.2.5-.2.9v5.4h-2.5l.1-.1ZM971.3,1208.54c-.9,0-1.7-.2-2.3-.6-.7-.4-1.2-.9-1.5-1.6-.4-.7-.5-1.5-.5-2.4s.2-1.7.5-2.4c.4-.7.9-1.2,1.5-1.6.7-.4,1.4-.6,2.3-.6s1.7.2,2.3.6c.7.4,1.2.9,1.5,1.6.4.7.5,1.5.5,2.4s-.2,1.7-.5,2.4c-.4.7-.9,1.2-1.5,1.6-.7.4-1.4.6-2.3.6ZM971.3,1206.54c.4,0,.8-.1,1-.3.3-.2.5-.6.6-1s.2-.9.2-1.4,0-1-.2-1.4c-.1-.4-.3-.7-.6-1s-.6-.4-1-.4-.8.1-1,.4c-.3.2-.5.6-.6,1s-.2.9-.2,1.4,0,1,.2,1.4c.1.4.4.7.6,1,.3.2.6.3,1,.3ZM979.6,1205.74v-3h.4l2.9-3.4h2.9l-3.9,4.5h-.6l-1.6,1.9h-.1ZM977.3,1208.34v-11.9h2.5v11.9h-2.5ZM982.9,1208.34l-2.6-3.9,1.7-1.8,3.9,5.6h-2.9l-.1.1ZM986.9,1208.34v-8.9h2.4v1.6h0c.2-.6.4-1,.8-1.3s.8-.4,1.3-.4.3,0,.4,0h.4v2.2h-1.1c-.4,0-.7,0-1,.2s-.5.4-.7.7c-.2.3-.2.6-.2,1v5.1h-2.5l.2-.2ZM995.9,1208.54c-.6,0-1.1-.1-1.5-.3-.4-.2-.8-.5-1.1-.9-.3-.4-.4-.9-.4-1.5s0-.9.3-1.2c.2-.3.4-.6.7-.8.3-.2.7-.4,1.1-.5.4,0,.8-.2,1.3-.2s.9,0,1.3-.1c.3,0,.5-.1.7-.2.1-.1.2-.2.2-.4h0c0-.4-.1-.7-.3-.9-.2-.2-.6-.3-1-.3s-.8.1-1.1.3c-.3.2-.4.4-.5.7l-2.3-.2c.1-.6.3-1,.7-1.4.3-.4.8-.7,1.3-.9.5-.2,1.2-.3,1.9-.3s1,0,1.4.2c.5.1.9.3,1.2.6.4.2.6.6.8.9.2.4.3.8.3,1.4v6h-2.4v-1.2h0c-.1.3-.3.5-.6.7-.2.2-.5.4-.9.5-.3.1-.7.2-1.2.2l.1-.2ZM996.6,1206.84c.4,0,.7,0,1-.2.3-.1.5-.3.7-.6.2-.2.2-.5.2-.9v-.9s-.2.1-.3.1-.3,0-.4.1h-1c-.3,0-.5.1-.8.2-.2,0-.4.2-.5.4-.1.1-.2.4-.2.6,0,.3.1.6.4.8.2.2.6.3.9.3v.1ZM1007.6,1199.34v1.9h-5.4v-1.9h5.4ZM1003.5,1197.24h2.5v8.3c0,.2,0,.4.1.5,0,.1.2.2.3.3h1l.4,1.9c-.1,0-.3,0-.5.1-.2,0-.5,0-.8.1-.6,0-1.1,0-1.6-.2-.4-.2-.8-.5-1-.9s-.4-.9-.4-1.4v-8.7h0ZM1009.2,1208.34v-8.9h2.5v8.9h-2.5ZM1010.5,1198.24c-.4,0-.7-.1-1-.4-.3-.2-.4-.5-.4-.9s.1-.6.4-.9c.3-.2.6-.4,1-.4s.7.1.9.4c.3.2.4.5.4.9s-.1.6-.4.9c-.3.2-.6.4-.9.4ZM1021.2,1201.94h-2.3s-.1-.2-.2-.4c-.1-.2-.3-.3-.5-.4s-.5-.1-.7-.1-.7,0-1,.2c-.3.1-.4.4-.4.6s0,.4.3.5c.2.1.5.3.9.3l1.6.3c.9.2,1.5.5,1.9.9s.6.9.6,1.6-.2,1.1-.5,1.5-.8.8-1.4,1-1.3.4-2.1.4c-1.2,0-2.1-.2-2.8-.7-.7-.5-1.1-1.2-1.2-2h2.4c0,.2.3.5.5.7.3.2.6.3,1.1.3s.8,0,1-.2c.3-.2.4-.4.4-.7,0-.2,0-.4-.3-.6-.2-.1-.5-.3-.9-.3l-1.6-.3c-.9-.2-1.5-.5-2-.9-.4-.4-.6-1-.6-1.7s.2-1.1.5-1.5.8-.7,1.3-1c.6-.2,1.2-.3,2-.3,1.1,0,2,.2,2.7.7s1,1.1,1.1,1.9l.2.2ZM1027,1208.54c-.9,0-1.7-.2-2.4-.6-.7-.4-1.2-.9-1.5-1.6s-.5-1.5-.5-2.4.2-1.7.5-2.4c.4-.7.9-1.2,1.5-1.6.7-.4,1.4-.6,2.3-.6s1.5.1,2.1.4,1.1.7,1.4,1.2.5,1.1.6,1.8h-2.3c0-.4-.2-.8-.5-1.1-.3-.3-.6-.4-1.1-.4s-.7,0-1,.3c-.3.2-.5.5-.7.9s-.2.9-.2,1.4,0,1.1.2,1.5.4.7.7.9c.3.2.6.3,1,.3s.5,0,.8-.2c.2-.1.4-.3.6-.5s.3-.5.3-.8h2.3c0,.7-.2,1.3-.6,1.8-.3.5-.8.9-1.4,1.2-.6.3-1.3.4-2.1.4v.1ZM1035.1,1203.14v5.2h-2.5v-11.9h2.4v4.6h.1c.2-.5.5-.9,1-1.2s1-.4,1.7-.4,1.2.1,1.6.4c.5.3.8.6,1.1,1.2.3.5.4,1.1.4,1.8v5.7h-2.5v-5.3c0-.5-.1-1-.4-1.3s-.7-.5-1.2-.5-.6,0-.9.2c-.3.1-.5.4-.6.6-.1.3-.2.6-.2,1v-.1ZM1050.7,1208.54c-.9,0-1.7-.2-2.3-.6-.7-.4-1.2-.9-1.5-1.6-.4-.7-.5-1.5-.5-2.4s.2-1.7.5-2.4c.4-.7.9-1.2,1.5-1.6.7-.4,1.4-.6,2.3-.6s1.7.2,2.3.6c.7.4,1.2.9,1.5,1.6.4.7.5,1.5.5,2.4s-.2,1.7-.5,2.4c-.4.7-.9,1.2-1.5,1.6-.7.4-1.4.6-2.3.6ZM1050.7,1206.54c.4,0,.8-.1,1-.3.3-.2.5-.6.6-1s.2-.9.2-1.4,0-1-.2-1.4c-.1-.4-.3-.7-.6-1s-.6-.4-1-.4-.8.1-1,.4c-.3.2-.5.6-.6,1s-.2.9-.2,1.4,0,1,.2,1.4c.1.4.4.7.6,1,.3.2.6.3,1,.3ZM1060,1208.44c-.7,0-1.3-.2-1.8-.5-.5-.4-1-.9-1.3-1.6s-.5-1.5-.5-2.5.2-1.9.5-2.6.8-1.2,1.3-1.5c.6-.3,1.2-.5,1.8-.5s.9,0,1.3.3c.3.2.6.4.8.6.2.2.4.5.5.7h0v-4.5h2.5v11.9h-2.4v-1.4h-.1c-.1.2-.3.5-.5.7s-.5.4-.8.6-.7.2-1.2.2l-.1.1ZM1060.8,1206.54c.4,0,.7-.1,1-.3.3-.2.5-.5.6-.9.2-.4.2-.9.2-1.4s0-1-.2-1.4c-.1-.4-.4-.7-.6-.9-.3-.2-.6-.3-1-.3s-.8.1-1,.3c-.3.2-.5.5-.6.9s-.2.8-.2,1.4,0,1,.2,1.4c.1.4.4.7.6.9.3.2.6.3,1,.3ZM1071.2,1208.54c-.9,0-1.7-.2-2.4-.6-.7-.4-1.2-.9-1.5-1.6-.4-.7-.5-1.5-.5-2.4s.2-1.7.5-2.4c.4-.7.9-1.2,1.5-1.6.7-.4,1.4-.6,2.3-.6s1.1,0,1.6.3c.5.2,1,.5,1.3.8.4.4.7.9.9,1.4.2.6.3,1.2.3,2v.7h-7.6v-1.5h5.2c0-.4,0-.7-.2-.9-.2-.3-.4-.5-.6-.7-.3-.2-.6-.2-1-.2s-.7,0-1,.3c-.3.2-.5.4-.7.7-.2.3-.2.6-.3,1v1.5c0,.4,0,.8.2,1.1.2.3.4.6.7.8.3.2.7.3,1.1.3s.5,0,.8-.1c.2,0,.4-.2.6-.3.2-.2.3-.4.4-.6l2.3.2c-.1.5-.4,1-.7,1.4-.4.4-.8.7-1.4,1-.6.2-1.2.3-2,.3l.2-.3ZM1076.9,1208.34v-8.9h2.4v1.6h0c.2-.6.4-1,.8-1.3s.8-.4,1.3-.4.3,0,.4,0h.4v2.2h-1.1c-.4,0-.7,0-1,.2s-.5.4-.7.7c-.2.3-.2.6-.2,1v5.1h-2.5l.2-.2ZM1089.9,1203.14v5.2h-2.5v-8.9h2.4v1.6h.1c.2-.5.5-.9,1-1.2.5-.3,1-.5,1.7-.5s1.2.1,1.6.4c.5.3.8.7,1.1,1.2.3.5.4,1.1.4,1.8v5.7h-2.5v-5.3c0-.5-.1-1-.4-1.3s-.7-.5-1.2-.5-.6,0-.9.2c-.3.1-.5.4-.6.6-.1.3-.2.6-.2,1h0ZM1097.7,1208.34v-8.9h2.5v8.9h-2.5ZM1098.9,1198.24c-.4,0-.7-.1-1-.4-.3-.2-.4-.5-.4-.9s.1-.6.4-.9c.3-.2.6-.4,1-.4s.7.1.9.4c.3.2.4.5.4.9s-.1.6-.4.9c-.3.2-.6.4-.9.4ZM1106.2,1208.54c-.9,0-1.7-.2-2.4-.6-.7-.4-1.2-.9-1.5-1.6s-.5-1.5-.5-2.4.2-1.7.5-2.4c.4-.7.9-1.2,1.5-1.6.7-.4,1.4-.6,2.3-.6s1.5.1,2.1.4,1.1.7,1.4,1.2.5,1.1.6,1.8h-2.3c0-.4-.2-.8-.5-1.1-.3-.3-.6-.4-1.1-.4s-.7,0-1,.3c-.3.2-.5.5-.7.9s-.2.9-.2,1.4,0,1.1.2,1.5.4.7.7.9c.3.2.6.3,1,.3s.5,0,.8-.2c.2-.1.4-.3.6-.5s.3-.5.3-.8h2.3c0,.7-.2,1.3-.6,1.8-.3.5-.8.9-1.4,1.2-.6.3-1.3.4-2.1.4v.1ZM1114.3,1203.14v5.2h-2.5v-11.9h2.4v4.6h.1c.2-.5.5-.9,1-1.2s1-.4,1.7-.4,1.2.1,1.6.4c.5.3.8.6,1.1,1.2.3.5.4,1.1.4,1.8v5.7h-2.5v-5.3c0-.5-.1-1-.4-1.3s-.7-.5-1.2-.5-.6,0-.9.2c-.3.1-.5.4-.6.6-.1.3-.2.6-.2,1v-.1ZM1126.8,1199.34v1.9h-5.4v-1.9h5.4ZM1122.6,1197.24h2.5v8.3c0,.2,0,.4.1.5,0,.1.2.2.3.3h1l.4,1.9c-.1,0-.3,0-.5.1-.2,0-.5,0-.8.1-.6,0-1.1,0-1.6-.2-.4-.2-.8-.5-1-.9s-.4-.9-.4-1.4v-8.7h0ZM1133.7,1202.44v2h-5.4v-2h5.4ZM1139.1,1208.44c-.7,0-1.3-.2-1.8-.5-.5-.4-1-.9-1.3-1.6s-.5-1.5-.5-2.5.2-1.9.5-2.6.8-1.2,1.3-1.5c.6-.3,1.2-.5,1.8-.5s.9,0,1.3.3c.3.2.6.4.8.6.2.2.4.5.5.7h0v-4.5h2.5v11.9h-2.4v-1.4h-.1c-.1.2-.3.5-.5.7s-.5.4-.8.6-.7.2-1.2.2l-.1.1ZM1139.9,1206.54c.4,0,.7-.1,1-.3.3-.2.5-.5.6-.9.2-.4.2-.9.2-1.4s0-1-.2-1.4c-.1-.4-.4-.7-.6-.9-.3-.2-.6-.3-1-.3s-.8.1-1,.3c-.3.2-.5.5-.6.9s-.2.8-.2,1.4,0,1,.2,1.4c.1.4.4.7.6.9.3.2.6.3,1,.3ZM1150.4,1208.54c-.9,0-1.7-.2-2.4-.6-.7-.4-1.2-.9-1.5-1.6-.4-.7-.5-1.5-.5-2.4s.2-1.7.5-2.4c.4-.7.9-1.2,1.5-1.6.7-.4,1.4-.6,2.3-.6s1.1,0,1.7.3c.5.2,1,.5,1.3.8.4.4.7.9.9,1.4.2.6.3,1.2.3,2v.7h-7.6v-1.5h5.2c0-.4,0-.7-.2-.9-.2-.3-.4-.5-.6-.7-.3-.2-.6-.2-1-.2s-.7,0-1,.3c-.3.2-.5.4-.7.7-.2.3-.2.6-.3,1v1.5c0,.4,0,.8.2,1.1.2.3.4.6.7.8.3.2.7.3,1.1.3s.5,0,.8-.1c.2,0,.4-.2.6-.3.2-.2.3-.4.4-.6l2.3.2c-.1.5-.4,1-.7,1.4-.4.4-.8.7-1.4,1-.6.2-1.2.3-2,.3l.1-.3ZM1156.1,1208.34v-8.9h2.4v1.6h.1c.2-.5.5-.9.9-1.2.4-.3,1-.4,1.6-.4s1.1.1,1.6.5c.4.3.7.7.9,1.2h0c.2-.5.5-.9,1-1.2.5-.3,1.1-.5,1.7-.5s1.5.3,2,.8.8,1.3.8,2.2v6h-2.5v-5.5c0-.5-.1-.9-.4-1.1s-.6-.4-1-.4-.8.1-1.1.4c-.3.3-.4.7-.4,1.1v5.5h-2.4v-5.6c0-.4-.1-.8-.4-1.1-.2-.3-.6-.4-1-.4s-.5,0-.7.2c-.2.1-.4.3-.5.6-.1.2-.2.5-.2.9v5.4h-2.5l.1-.1ZM1175.1,1208.54c-.9,0-1.7-.2-2.3-.6-.7-.4-1.2-.9-1.5-1.6-.4-.7-.5-1.5-.5-2.4s.2-1.7.5-2.4c.4-.7.9-1.2,1.5-1.6.7-.4,1.4-.6,2.3-.6s1.7.2,2.3.6c.7.4,1.2.9,1.5,1.6.4.7.5,1.5.5,2.4s-.2,1.7-.5,2.4c-.4.7-.9,1.2-1.5,1.6-.7.4-1.4.6-2.3.6ZM1175.1,1206.54c.4,0,.8-.1,1-.3.3-.2.5-.6.6-1s.2-.9.2-1.4,0-1-.2-1.4c-.1-.4-.3-.7-.6-1s-.6-.4-1-.4-.8.1-1,.4c-.3.2-.5.6-.6,1s-.2.9-.2,1.4,0,1,.2,1.4c.1.4.4.7.6,1,.3.2.6.3,1,.3ZM1183.4,1205.74v-3h.4l2.9-3.4h2.9l-3.9,4.5h-.6l-1.6,1.9h-.1ZM1181.1,1208.34v-11.9h2.5v11.9h-2.5ZM1186.7,1208.34l-2.6-3.9,1.7-1.8,3.9,5.6h-2.9l-.1.1ZM1190.7,1208.34v-8.9h2.4v1.6h0c.2-.6.4-1,.8-1.3s.8-.4,1.3-.4.3,0,.4,0h.4v2.2h-1.1c-.4,0-.7,0-1,.2s-.5.4-.7.7c-.2.3-.2.6-.2,1v5.1h-2.5l.2-.2ZM1199.7,1208.54c-.6,0-1.1-.1-1.5-.3-.4-.2-.8-.5-1.1-.9-.3-.4-.4-.9-.4-1.5s0-.9.3-1.2c.2-.3.4-.6.7-.8.3-.2.7-.4,1.1-.5.4,0,.8-.2,1.3-.2s.9,0,1.3-.1c.3,0,.5-.1.7-.2.1-.1.2-.2.2-.4h0c0-.4-.1-.7-.4-.9-.2-.2-.6-.3-1-.3s-.8.1-1.1.3c-.3.2-.4.4-.5.7l-2.3-.2c.1-.6.3-1,.7-1.4.3-.4.8-.7,1.3-.9.5-.2,1.2-.3,1.9-.3s1,0,1.4.2c.5.1.9.3,1.2.6.4.2.6.6.8.9.2.4.3.8.3,1.4v6h-2.4v-1.2h0c-.1.3-.3.5-.6.7-.2.2-.5.4-.9.5-.3.1-.7.2-1.2.2l.2-.2ZM1200.4,1206.84c.4,0,.7,0,1-.2.3-.1.5-.3.7-.6.2-.2.2-.5.2-.9v-.9s-.2.1-.3.1-.3,0-.4.1h-1c-.3,0-.5.1-.8.2-.2,0-.4.2-.5.4-.1.1-.2.4-.2.6,0,.3.1.6.4.8.2.2.6.3.9.3v.1ZM1211.5,1199.34v1.9h-5.4v-1.9h5.4ZM1207.3,1197.24h2.5v8.3c0,.2,0,.4.1.5,0,.1.2.2.3.3h1l.4,1.9c-.1,0-.3,0-.5.1-.2,0-.5,0-.8.1-.6,0-1.1,0-1.6-.2-.4-.2-.8-.5-1-.9s-.4-.9-.4-1.4v-8.7h0ZM1213.1,1208.34v-8.9h2.5v8.9h-2.5ZM1214.3,1198.24c-.4,0-.7-.1-.9-.4-.3-.2-.4-.5-.4-.9s.1-.6.4-.9c.3-.2.6-.4.9-.4s.7.1.9.4c.3.2.4.5.4.9s-.1.6-.4.9c-.3.2-.6.4-.9.4ZM1225,1201.94h-2.3s-.1-.2-.2-.4c-.1-.2-.3-.3-.5-.4s-.5-.1-.7-.1-.7,0-1,.2c-.3.1-.4.4-.4.6s0,.4.3.5c.2.1.5.3.9.3l1.6.3c.9.2,1.5.5,1.9.9s.6.9.6,1.6-.2,1.1-.5,1.5-.8.8-1.4,1-1.3.4-2.1.4c-1.2,0-2.1-.2-2.8-.7-.7-.5-1.1-1.2-1.2-2h2.4c0,.2.3.5.5.7.3.2.6.3,1.1.3s.8,0,1-.2c.3-.2.4-.4.4-.7,0-.2-.1-.4-.3-.6-.2-.1-.5-.3-.9-.3l-1.6-.3c-.9-.2-1.5-.5-2-.9-.4-.4-.6-1-.6-1.7s.2-1.1.5-1.5.8-.7,1.3-1c.6-.2,1.2-.3,2-.3,1.1,0,2,.2,2.7.7s1,1.1,1.1,1.9l.2.2ZM1230.8,1208.54c-.9,0-1.7-.2-2.4-.6-.7-.4-1.2-.9-1.5-1.6-.4-.7-.5-1.5-.5-2.4s.2-1.7.5-2.4c.4-.7.9-1.2,1.5-1.6.7-.4,1.4-.6,2.3-.6s1.5.1,2.1.4,1.1.7,1.4,1.2.5,1.1.6,1.8h-2.3c0-.4-.2-.8-.5-1.1-.3-.3-.6-.4-1.1-.4s-.7,0-1,.3c-.3.2-.5.5-.7.9s-.2.9-.2,1.4,0,1.1.2,1.5.4.7.7.9c.3.2.6.3,1,.3s.5,0,.8-.2c.2-.1.4-.3.6-.5s.3-.5.3-.8h2.3c0,.7-.2,1.3-.6,1.8-.3.5-.8.9-1.4,1.2-.6.3-1.3.4-2.1.4v.1ZM1238.9,1203.14v5.2h-2.5v-11.9h2.4v4.6h.1c.2-.5.5-.9,1-1.2s1-.4,1.7-.4,1.2.1,1.6.4c.5.3.8.6,1.1,1.2.3.5.4,1.1.4,1.8v5.7h-2.5v-5.3c0-.5-.1-1-.4-1.3s-.7-.5-1.2-.5-.6,0-.9.2c-.3.1-.5.4-.6.6-.1.3-.2.6-.2,1v-.1ZM932,1229.34v-8.9h2.5v8.9h-2.5ZM933.3,1219.24c-.4,0-.7-.1-1-.4-.3-.2-.4-.5-.4-.9s.1-.6.4-.9c.3-.2.6-.4,1-.4s.7.1.9.4c.3.2.4.5.4.9s-.1.6-.4.9c-.3.2-.6.4-.9.4ZM939.8,1229.44c-.7,0-1.3-.2-1.8-.5-.5-.4-1-.9-1.3-1.6s-.5-1.5-.5-2.5.2-1.9.5-2.6.8-1.2,1.3-1.5c.6-.3,1.2-.5,1.8-.5s.9,0,1.3.3c.3.2.6.4.8.6.2.2.4.5.5.7h0v-4.5h2.5v11.9h-2.5v-1.4h-.1c-.1.2-.3.5-.5.7s-.5.4-.8.6-.7.2-1.2.2v.1ZM940.6,1227.54c.4,0,.7-.1,1-.3.3-.2.5-.5.6-.9.2-.4.2-.9.2-1.4s0-1-.2-1.4c-.1-.4-.4-.7-.6-.9-.3-.2-.6-.3-1-.3s-.8.1-1,.3c-.3.2-.5.5-.6.9s-.2.8-.2,1.4,0,1,.2,1.4c.1.4.4.7.6.9.3.2.6.3,1,.3ZM951,1229.54c-.9,0-1.7-.2-2.4-.6-.7-.4-1.2-.9-1.5-1.6-.4-.7-.5-1.5-.5-2.4s.2-1.7.5-2.4c.4-.7.9-1.2,1.5-1.6.7-.4,1.4-.6,2.3-.6s1.1,0,1.6.3c.5.2,1,.5,1.3.8.4.4.7.9.9,1.4.2.6.3,1.2.3,2v.7h-7.6v-1.5h5.2c0-.4,0-.7-.2-.9-.2-.3-.4-.5-.6-.7-.3-.2-.6-.2-1-.2s-.7,0-1,.3c-.3.2-.5.4-.7.7-.2.3-.2.6-.3,1v1.5c0,.4,0,.8.2,1.1.2.3.4.6.7.8.3.2.7.3,1.1.3s.5,0,.8-.1c.2,0,.4-.2.6-.3.2-.2.3-.4.4-.6l2.3.2c-.1.5-.4,1-.7,1.4-.4.4-.8.7-1.4,1-.6.2-1.2.3-2,.3l.2-.3ZM959.2,1224.14v5.2h-2.5v-8.9h2.4v1.6h.1c.2-.5.5-.9,1-1.2.5-.3,1-.5,1.7-.5s1.2.1,1.6.4.8.7,1.1,1.2c.3.5.4,1.1.4,1.8v5.7h-2.5v-5.3c0-.5-.1-1-.4-1.3s-.7-.5-1.2-.5-.6,0-.9.2c-.3.1-.5.4-.6.6-.1.3-.2.6-.2,1h0ZM971.7,1220.34v1.9h-5.4v-1.9h5.4ZM967.5,1218.24h2.5v8.3c0,.2,0,.4.1.5,0,.1.2.2.3.3h1l.4,1.9c-.1,0-.3,0-.5.1-.2,0-.5,0-.8.1-.6,0-1.1,0-1.6-.2-.4-.2-.8-.5-1-.9s-.4-.9-.4-1.4v-8.7h0ZM973.3,1229.34v-8.9h2.5v8.9h-2.5ZM974.6,1219.24c-.4,0-.7-.1-1-.4-.3-.2-.4-.5-.4-.9s.1-.6.4-.9c.3-.2.6-.4,1-.4s.7.1.9.4c.3.2.4.5.4.9s-.1.6-.4.9c-.3.2-.6.4-.9.4ZM982.6,1220.34v1.9h-5.5v-1.9h5.5ZM978.4,1229.34v-9.6c0-.7.1-1.2.4-1.6s.6-.7,1-1c.4-.2.9-.3,1.5-.3h1c.3,0,.6.1.7.2l-.4,1.9h-.8c-.4,0-.6,0-.8.3-.1.2-.2.4-.2.7v9.5h-2.5l.1-.1ZM984.1,1229.34v-8.9h2.5v8.9h-2.5ZM985.4,1219.24c-.4,0-.7-.1-1-.4-.3-.2-.4-.5-.4-.9s.1-.6.4-.9c.3-.2.6-.4,1-.4s.7.1.9.4c.3.2.4.5.4.9s-.1.6-.4.9c-.3.2-.6.4-.9.4ZM988.6,1229.34v-1.5l4.4-5.4h-4.2v-2h7.2v1.6l-4.1,5.3h4.3v2h-7.6ZM998,1229.34v-8.9h2.5v8.9h-2.5ZM999.2,1219.24c-.4,0-.7-.1-.9-.4-.3-.2-.4-.5-.4-.9s.1-.6.4-.9c.3-.2.6-.4.9-.4s.7.1.9.4c.3.2.4.5.4.9s-.1.6-.4.9c-.3.2-.6.4-.9.4ZM1006.6,1229.54c-.9,0-1.7-.2-2.4-.6-.7-.4-1.2-.9-1.5-1.6-.4-.7-.5-1.5-.5-2.4s.2-1.7.5-2.4c.4-.7.9-1.2,1.5-1.6.7-.4,1.4-.6,2.3-.6s1.1,0,1.6.3c.5.2,1,.5,1.3.8.4.4.7.9.9,1.4.2.6.3,1.2.3,2v.7h-7.6v-1.5h5.2c0-.4,0-.7-.2-.9-.2-.3-.4-.5-.6-.7-.3-.2-.6-.2-1-.2s-.7,0-1,.3c-.3.2-.5.4-.7.7-.2.3-.2.6-.2,1v1.5c0,.4,0,.8.2,1.1.2.3.4.6.7.8.3.2.7.3,1.1.3s.5,0,.8-.1c.2,0,.4-.2.6-.3.2-.2.3-.4.4-.6l2.3.2c-.1.5-.4,1-.7,1.4-.4.4-.8.7-1.4,1-.6.2-1.2.3-2,.3l.1-.3ZM1012.3,1229.34v-8.9h2.4v1.6h0c.2-.6.4-1,.8-1.3s.8-.4,1.3-.4.3,0,.4,0h.4v2.2h-1.1c-.4,0-.7,0-1,.2s-.5.4-.7.7c-.2.3-.2.6-.2,1v5.1h-2.5l.2-.2ZM1024.2,1220.34v1.9h-5.4v-1.9h5.4ZM1020,1218.24h2.5v8.3c0,.2,0,.4.1.5,0,.1.2.2.3.3h1l.4,1.9c-.1,0-.3,0-.5.1-.2,0-.5,0-.8.1-.6,0-1.1,0-1.6-.2-.4-.2-.8-.5-1-.9s-.4-.9-.4-1.4v-8.7h0ZM1031.4,1229.34l-2.4-8.9h2.5l1.4,6h0l1.4-6h2.5l1.5,6h0l1.4-6h2.5l-2.4,8.9h-2.6l-1.5-5.6h-.1l-1.5,5.6h-2.7ZM1047.5,1229.54c-.9,0-1.7-.2-2.4-.6-.7-.4-1.2-.9-1.5-1.6-.4-.7-.5-1.5-.5-2.4s.2-1.7.5-2.4c.4-.7.9-1.2,1.5-1.6.7-.4,1.4-.6,2.3-.6s1.1,0,1.7.3c.5.2,1,.5,1.3.8.4.4.7.9.9,1.4.2.6.3,1.2.3,2v.7h-7.6v-1.5h5.2c0-.4,0-.7-.2-.9-.2-.3-.4-.5-.6-.7-.3-.2-.6-.2-1-.2s-.7,0-1,.3c-.3.2-.5.4-.7.7-.2.3-.2.6-.2,1v1.5c0,.4,0,.8.2,1.1.2.3.4.6.7.8.3.2.7.3,1.1.3s.5,0,.8-.1c.2,0,.4-.2.6-.3.2-.2.3-.4.4-.6l2.3.2c-.1.5-.4,1-.7,1.4-.4.4-.8.7-1.4,1-.6.2-1.2.3-2,.3v-.3ZM1053.2,1229.34v-8.9h2.4v1.6h0c.2-.6.4-1,.8-1.3s.8-.4,1.3-.4.3,0,.4,0h.4v2.2h-1.1c-.4,0-.7,0-1,.2s-.5.4-.7.7c-.2.3-.2.6-.2,1v5.1h-2.5l.2-.2ZM1062.8,1229.44c-.7,0-1.3-.2-1.8-.5-.5-.4-1-.9-1.3-1.6s-.5-1.5-.5-2.5.2-1.9.5-2.6.8-1.2,1.3-1.5c.6-.3,1.2-.5,1.8-.5s.9,0,1.3.3c.3.2.6.4.8.6.2.2.4.5.5.7h0v-4.5h2.5v11.9h-2.4v-1.4h-.1c-.1.2-.3.5-.5.7s-.5.4-.8.6-.7.2-1.2.2l-.1.1ZM1063.6,1227.54c.4,0,.7-.1,1-.3.3-.2.5-.5.6-.9.2-.4.2-.9.2-1.4s0-1-.2-1.4c-.1-.4-.4-.7-.6-.9-.3-.2-.6-.3-1-.3s-.8.1-1,.3c-.3.2-.5.5-.6.9s-.2.8-.2,1.4,0,1,.2,1.4c.1.4.4.7.6.9.3.2.6.3,1,.3ZM1074,1229.54c-.9,0-1.7-.2-2.4-.6-.7-.4-1.2-.9-1.5-1.6-.4-.7-.5-1.5-.5-2.4s.2-1.7.5-2.4c.4-.7.9-1.2,1.5-1.6.7-.4,1.4-.6,2.3-.6s1.1,0,1.7.3c.5.2,1,.5,1.3.8.4.4.7.9.9,1.4.2.6.3,1.2.3,2v.7h-7.6v-1.5h5.2c0-.4,0-.7-.2-.9-.2-.3-.4-.5-.6-.7-.3-.2-.6-.2-1-.2s-.7,0-1,.3c-.3.2-.5.4-.7.7-.2.3-.2.6-.2,1v1.5c0,.4,0,.8.2,1.1.2.3.4.6.7.8.3.2.7.3,1.1.3s.5,0,.8-.1c.2,0,.4-.2.6-.3.2-.2.3-.4.4-.6l2.3.2c-.1.5-.4,1-.7,1.4-.4.4-.8.7-1.4,1-.6.2-1.2.3-2,.3v-.3ZM1082.2,1224.14v5.2h-2.5v-8.9h2.4v1.6h.1c.2-.5.5-.9,1-1.2.5-.3,1-.5,1.7-.5s1.2.1,1.6.4c.5.3.8.7,1.1,1.2.3.5.4,1.1.4,1.8v5.7h-2.5v-5.3c0-.5-.1-1-.4-1.3s-.7-.5-1.2-.5-.6,0-.9.2c-.3.1-.5.4-.6.6-.1.3-.2.6-.2,1h0ZM1096,1226.74v-3h.4l2.9-3.4h2.9l-3.9,4.5h-.6l-1.6,1.9h-.1ZM1093.8,1229.34v-11.9h2.5v11.9h-2.5ZM1099.4,1229.34l-2.6-3.9,1.7-1.8,3.9,5.6h-2.9l-.1.1ZM1107,1229.54c-.9,0-1.7-.2-2.3-.6-.7-.4-1.2-.9-1.5-1.6-.4-.7-.5-1.5-.5-2.4s.2-1.7.5-2.4c.4-.7.9-1.2,1.5-1.6.7-.4,1.4-.6,2.3-.6s1.7.2,2.3.6c.7.4,1.2.9,1.5,1.6.4.7.5,1.5.5,2.4s-.2,1.7-.5,2.4c-.4.7-.9,1.2-1.5,1.6-.7.4-1.4.6-2.3.6ZM1107,1227.54c.4,0,.8-.1,1-.3.3-.2.5-.6.6-1s.2-.9.2-1.4,0-1-.2-1.4c-.1-.4-.3-.7-.6-1s-.6-.4-1-.4-.8.1-1,.4c-.3.2-.5.6-.6,1s-.2.9-.2,1.4,0,1,.2,1.4c.1.4.4.7.6,1,.3.2.6.3,1,.3ZM1105.2,1219.14c-.3,0-.6-.1-.9-.4-.2-.2-.4-.5-.4-.8s.1-.6.4-.8c.2-.2.5-.3.9-.3s.6.1.9.3c.2.2.4.5.4.8s-.1.6-.4.8c-.2.2-.5.4-.9.4ZM1108.8,1219.14c-.3,0-.6-.1-.9-.4-.2-.2-.4-.5-.4-.8s.1-.6.4-.8c.2-.2.5-.3.9-.3s.6.1.9.3c.2.2.4.5.4.8s-.1.6-.4.8c-.2.2-.5.4-.9.4ZM1115.5,1224.14v5.2h-2.5v-8.9h2.4v1.6h.1c.2-.5.5-.9,1-1.2.5-.3,1-.5,1.7-.5s1.2.1,1.6.4c.5.3.8.7,1.1,1.2.3.5.4,1.1.4,1.8v5.7h-2.5v-5.3c0-.5-.1-1-.4-1.3s-.7-.5-1.2-.5-.6,0-.9.2c-.3.1-.5.4-.6.6-.1.3-.2.6-.2,1h0ZM1125.7,1224.14v5.2h-2.5v-8.9h2.4v1.6h.1c.2-.5.5-.9,1-1.2.5-.3,1-.5,1.7-.5s1.2.1,1.6.4c.5.3.8.7,1.1,1.2.3.5.4,1.1.4,1.8v5.7h-2.5v-5.3c0-.5-.1-1-.4-1.3s-.7-.5-1.2-.5-.6,0-.9.2c-.3.1-.5.4-.6.6-.1.3-.2.6-.2,1h0ZM1137.5,1229.54c-.9,0-1.7-.2-2.4-.6-.7-.4-1.2-.9-1.5-1.6-.4-.7-.5-1.5-.5-2.4s.2-1.7.5-2.4c.4-.7.9-1.2,1.5-1.6.7-.4,1.4-.6,2.3-.6s1.1,0,1.6.3c.5.2,1,.5,1.3.8.4.4.7.9.9,1.4.2.6.3,1.2.3,2v.7h-7.6v-1.5h5.2c0-.4,0-.7-.2-.9-.2-.3-.4-.5-.6-.7-.3-.2-.6-.2-1-.2s-.7,0-1,.3c-.3.2-.5.4-.7.7-.2.3-.2.6-.2,1v1.5c0,.4,0,.8.2,1.1.2.3.4.6.7.8.3.2.7.3,1.1.3s.5,0,.8-.1c.2,0,.4-.2.6-.3.2-.2.3-.4.4-.6l2.3.2c-.1.5-.4,1-.7,1.4-.4.4-.8.7-1.4,1-.6.2-1.2.3-2,.3l.1-.3ZM1145.7,1224.14v5.2h-2.5v-8.9h2.4v1.6h.1c.2-.5.5-.9,1-1.2.5-.3,1-.5,1.7-.5s1.2.1,1.6.4c.5.3.8.7,1.1,1.2.3.5.4,1.1.4,1.8v5.7h-2.5v-5.3c0-.5-.1-1-.4-1.3s-.7-.5-1.2-.5-.6,0-.9.2c-.3.1-.5.4-.6.6-.1.3-.2.6-.2,1h0ZM1154.9,1229.44c-.4,0-.7-.1-1-.4s-.4-.6-.4-1,.1-.7.4-1,.6-.4,1-.4.7.1,1,.4.4.6.4,1,0,.5-.2.7c-.1.2-.3.4-.5.5s-.4.2-.7.2h0Z"/>
    <rect class="cls-6" x="1387.8" y="852.64" width="876" height="735"/>
  </g>
  <g id="n-002">
    <rect class="cls-3" x="2906.43" y="1174.19" width="370.9" height="111.5"/>
    <rect class="cls-5" x="2906.43" y="1174.19" width="370.9" height="111.5"/>
    <rect class="cls-5" x="2906.43" y="1174.19" width="370.9" height="111.5"/>
    <path class="cls-1" d="M2970.43,1224.89l-4.3-14.9h3.4l2.5,10.4h.1l2.7-10.4h2.9l2.7,10.4h.1l2.5-10.4h3.4l-4.3,14.9h-3.1l-2.8-9.8h-.1l-2.8,9.8h-3.1.2ZM2988.33,1224.89v-11.2h3.1v11.2h-3.1ZM2989.83,1212.29c-.5,0-.9-.1-1.2-.5-.3-.3-.5-.7-.5-1.1s.2-.8.5-1.1c.3-.3.7-.5,1.2-.5s.9.2,1.2.5c.3.3.5.7.5,1.1s-.2.8-.5,1.1c-.3.3-.7.5-1.2.5ZM2999.03,1225.09c-1.2,0-2.2-.2-3-.7s-1.5-1.1-1.9-2-.7-1.9-.7-3.1.2-2.2.7-3c.5-.9,1.1-1.6,1.9-2,.8-.5,1.8-.7,2.9-.7s1.4.1,2.1.4c.6.2,1.2.6,1.7,1.1s.9,1.1,1.1,1.8c.3.7.4,1.5.4,2.5v.9h-9.4v-1.9h6.5c0-.4-.1-.8-.3-1.2-.2-.3-.5-.6-.8-.8-.3-.2-.7-.3-1.2-.3s-.9.1-1.2.3c-.4.2-.6.5-.9.9-.2.4-.3.8-.3,1.2v1.8c0,.6,0,1,.3,1.4.2.4.5.7.9.9.4.2.8.3,1.4.3s.7,0,.9-.1c.3,0,.5-.2.7-.4.2-.2.4-.4.5-.7l2.9.2c-.1.7-.4,1.3-.9,1.8s-1,.9-1.7,1.2c-.7.3-1.5.4-2.4.4l-.2-.2ZM3010.93,1229.09v-15.4h3.1v1.9h.1c.1-.3.3-.6.6-.9.3-.3.6-.6,1-.8.4-.2.9-.3,1.6-.3s1.6.2,2.3.6c.7.4,1.2,1.1,1.6,1.9s.6,1.9.6,3.2-.2,2.3-.6,3.2c-.4.9-.9,1.5-1.6,1.9s-1.4.7-2.3.7-1.1-.1-1.5-.3c-.4-.2-.8-.4-1-.8-.3-.3-.5-.6-.6-.9h0v6h-3.3ZM3013.93,1219.29c0,.7,0,1.2.3,1.8.2.5.4.9.8,1.1.3.3.8.4,1.3.4s.9-.1,1.3-.4.6-.7.8-1.2c.2-.5.3-1.1.3-1.7s0-1.2-.3-1.7-.4-.9-.8-1.2c-.3-.3-.8-.4-1.3-.4s-.9.1-1.3.4c-.3.3-.6.7-.8,1.1-.2.5-.3,1.1-.3,1.7v.1ZM3023.93,1224.89v-11.2h3v1.9h.1c.2-.7.5-1.2,1-1.6s1-.5,1.7-.5.3,0,.5,0h.5v2.8c-.1,0-.3,0-.6-.1h-.7c-.5,0-.9.1-1.2.3-.4.2-.6.5-.8.8-.2.3-.3.8-.3,1.2v6.3h-3.1l-.1.1ZM3035.13,1225.09c-.7,0-1.4-.1-1.9-.4-.6-.2-1-.6-1.3-1.1s-.5-1.1-.5-1.9.1-1.1.4-1.6c.2-.4.5-.8.9-1,.4-.3.8-.5,1.3-.6s1-.2,1.6-.3c.7,0,1.2-.1,1.6-.2.4,0,.7-.2.9-.3.2-.1.3-.3.3-.5h0c0-.5-.1-.9-.4-1.1-.3-.3-.7-.4-1.2-.4s-1,.1-1.3.4c-.3.2-.6.6-.6.9l-2.9-.2c.1-.7.4-1.3.9-1.8.4-.5,1-.9,1.6-1.2.7-.3,1.5-.4,2.4-.4s1.2,0,1.8.2c.6.1,1.1.4,1.5.7.4.3.8.7,1.1,1.2.3.5.4,1,.4,1.7v7.5h-2.9v-1.5h0c-.2.3-.4.7-.7.9-.3.3-.7.5-1.1.6s-.9.2-1.5.2l-.4.2ZM3036.03,1222.99c.5,0,.9,0,1.2-.3.3-.2.6-.4.8-.7.2-.3.3-.7.3-1.1v-1.2s-.2.1-.4.2c-.2,0-.4,0-.6.1s-.4,0-.6.1h-.6c-.4,0-.7.1-.9.3-.3.1-.5.3-.6.5-.2.2-.2.4-.2.7,0,.4.1.8.5,1,.3.2.7.3,1.2.3l-.1.1ZM3034.63,1212.19c-.4,0-.8-.1-1.1-.4-.3-.3-.5-.6-.5-1.1s.2-.8.5-1c.3-.3.7-.4,1.1-.4s.8.1,1.1.4c.3.3.4.6.4,1s-.1.8-.4,1.1c-.3.3-.6.4-1.1.4ZM3039.13,1212.19c-.4,0-.8-.1-1.1-.4-.3-.3-.4-.6-.4-1.1s.1-.8.4-1c.3-.3.7-.4,1.1-.4s.8.1,1.1.4c.3.3.4.6.4,1s-.1.8-.4,1.1c-.3.3-.6.4-1.1.4ZM3053.23,1216.89l-2.8.2c0-.2-.2-.5-.3-.7-.2-.2-.4-.4-.6-.5-.3-.1-.6-.2-.9-.2s-.9.1-1.2.3c-.3.2-.5.5-.5.8s.1.5.3.7c.2.2.6.3,1.1.4l2,.4c1.1.2,1.9.6,2.4,1.1s.8,1.1.8,1.9-.2,1.4-.6,1.9c-.4.6-1,1-1.8,1.3-.7.3-1.6.5-2.6.5-1.5,0-2.7-.3-3.5-.9-.9-.6-1.4-1.5-1.5-2.5l3.1-.2c0,.4.3.8.7,1,.4.2.8.4,1.4.4s1-.1,1.3-.3c.3-.2.5-.5.5-.8s-.1-.5-.4-.7-.6-.3-1.1-.4l-1.9-.4c-1.1-.2-1.9-.6-2.4-1.1s-.8-1.2-.8-2.1.2-1.3.6-1.9c.4-.5.9-.9,1.6-1.2.7-.3,1.6-.4,2.5-.4,1.4,0,2.5.3,3.3.9s1.3,1.4,1.4,2.4l-.1.1ZM3060.53,1225.09c-1.2,0-2.1-.2-3-.7-.8-.5-1.5-1.1-1.9-2s-.7-1.9-.7-3.1.2-2.2.7-3c.4-.9,1.1-1.6,1.9-2,.8-.5,1.8-.7,2.9-.7s1.4.1,2.1.4c.6.2,1.2.6,1.7,1.1s.9,1.1,1.1,1.8.4,1.5.4,2.5v.9h-9.4v-1.9h6.5c0-.4-.1-.8-.3-1.2-.2-.3-.5-.6-.8-.8-.3-.2-.7-.3-1.2-.3s-.9.1-1.2.3c-.4.2-.6.5-.9.9-.2.4-.3.8-.3,1.2v1.8c0,.6,0,1,.3,1.4.2.4.5.7.9.9.4.2.8.3,1.4.3s.7,0,.9-.1c.3,0,.5-.2.7-.4.2-.2.4-.4.5-.7l2.9.2c-.1.7-.4,1.3-.9,1.8s-1,.9-1.7,1.2c-.7.3-1.5.4-2.4.4l-.2-.2ZM3070.83,1218.39v6.5h-3.1v-11.2h3v2h.1c.2-.6.7-1.2,1.2-1.5.6-.4,1.3-.6,2.1-.6s1.5.2,2,.5c.6.3,1,.8,1.4,1.5.3.6.5,1.4.5,2.2v7.1h-3.1v-6.6c0-.7-.2-1.2-.5-1.6-.4-.4-.8-.6-1.5-.6s-.8,0-1.1.3c-.3.2-.6.4-.7.8-.2.3-.3.8-.3,1.2h0ZM3086.43,1213.69v2.3h-6.7v-2.3h6.7ZM3081.23,1210.99h3.1v10.4c0,.3,0,.5.1.7,0,.2.2.3.4.3h1.2l.5,2.3c-.1,0-.4.1-.6.2-.3,0-.6.1-1,.1-.8,0-1.4,0-2-.3-.6-.2-1-.6-1.3-1.1s-.5-1.1-.5-1.8v-10.9l.1.1ZM3088.43,1224.89v-11.2h3.1v11.2h-3.1ZM3090.03,1212.29c-.5,0-.9-.1-1.2-.5-.3-.3-.5-.7-.5-1.1s.2-.8.5-1.1c.3-.3.7-.5,1.2-.5s.9.2,1.2.5c.3.3.5.7.5,1.1s-.2.8-.5,1.1c-.3.3-.7.5-1.2.5ZM3099.13,1225.09c-1.1,0-2.1-.2-3-.7-.8-.5-1.5-1.1-1.9-2s-.7-1.9-.7-3.1.2-2.2.7-3c.4-.9,1.1-1.6,1.9-2,.8-.5,1.8-.7,2.9-.7s1.4.1,2.1.4c.6.2,1.2.6,1.7,1.1s.9,1.1,1.1,1.8c.3.7.4,1.5.4,2.5v.9h-9.5v-1.9h6.5c0-.4,0-.8-.3-1.2-.2-.3-.5-.6-.8-.8-.3-.2-.7-.3-1.2-.3s-.9.1-1.2.3c-.4.2-.6.5-.8.9-.2.4-.3.8-.3,1.2v1.8c0,.6.1,1,.3,1.4s.5.7.9.9c.4.2.8.3,1.4.3s.7,0,.9-.1c.3,0,.5-.2.7-.4.2-.2.4-.4.5-.7l2.9.2c-.1.7-.4,1.3-.9,1.8-.4.5-1,.9-1.7,1.2-.7.3-1.5.4-2.4.4l-.2-.2ZM3106.33,1224.89v-11.2h3v1.9h.1c.2-.7.6-1.2,1-1.6.5-.4,1-.5,1.7-.5s.3,0,.5,0h.5v2.8c-.1,0-.3,0-.6-.1h-.7c-.4,0-.9.1-1.2.3-.4.2-.6.5-.9.8-.2.3-.3.8-.3,1.2v6.3h-3.1v.1ZM3121.23,1213.69v2.3h-6.7v-2.3h6.7ZM3116.03,1210.99h3.1v10.4c0,.3,0,.5.1.7,0,.2.2.3.4.3h1.3l.5,2.3c-.1,0-.4.1-.6.2-.3,0-.6.1-1,.1-.8,0-1.4,0-2-.3-.6-.2-1-.6-1.3-1.1s-.5-1.1-.5-1.8v-10.9.1ZM3132.13,1225.09c-.8,0-1.6-.2-2.3-.7-.7-.4-1.2-1.1-1.6-1.9-.4-.9-.6-1.9-.6-3.2s.2-2.4.6-3.2c.4-.9,1-1.5,1.6-1.9.7-.4,1.5-.6,2.3-.6s1.2.1,1.6.3c.4.2.8.5,1,.8.3.3.5.6.6.9h0v-5.6h3.1v14.9h-3.1v-1.8h-.1c-.1.3-.4.6-.6.9-.3.3-.6.6-1,.8-.4.2-.9.3-1.5.3h0ZM3133.13,1222.59c.5,0,.9-.1,1.3-.4s.6-.7.8-1.1c.2-.5.3-1.1.3-1.8s0-1.2-.3-1.7c-.2-.5-.4-.9-.8-1.1-.3-.3-.8-.4-1.3-.4s-.9.1-1.3.4-.6.7-.8,1.2c-.2.5-.3,1.1-.3,1.7s0,1.2.3,1.7c.2.5.4.9.8,1.2.3.3.8.4,1.3.4v-.1ZM3141.03,1224.89v-11.2h3.1v11.2h-3.1ZM3142.63,1212.29c-.5,0-.9-.1-1.2-.5-.3-.3-.5-.7-.5-1.1s.2-.8.5-1.1c.3-.3.7-.5,1.2-.5s.9.2,1.2.5c.3.3.5.7.5,1.1s-.2.8-.5,1.1c-.3.3-.7.5-1.2.5ZM3151.73,1225.09c-1.1,0-2.1-.2-3-.7-.8-.5-1.5-1.1-1.9-2s-.7-1.9-.7-3.1.2-2.2.7-3c.5-.9,1.1-1.6,1.9-2,.8-.5,1.8-.7,2.9-.7s1.4.1,2.1.4c.6.2,1.2.6,1.7,1.1s.9,1.1,1.1,1.8.4,1.5.4,2.5v.9h-9.4v-1.9h6.5c0-.4-.1-.8-.3-1.2-.2-.3-.5-.6-.8-.8-.3-.2-.7-.3-1.2-.3s-.9.1-1.2.3c-.4.2-.6.5-.8.9-.2.4-.3.8-.3,1.2v1.8c0,.6,0,1,.3,1.4.2.4.5.7.9.9.4.2.8.3,1.4.3s.7,0,.9-.1c.3,0,.5-.2.7-.4.2-.2.4-.4.5-.7l2.9.2c-.2.7-.5,1.3-.9,1.8s-1,.9-1.7,1.2c-.7.3-1.5.4-2.4.4l-.3-.2ZM3163.73,1224.89v-14.9h9.9v2.6h-6.7v3.6h6.1v2.6h-6.1v6.2h-3.1l-.1-.1ZM3181.03,1224.89h-5.3v-14.9h5.3c1.5,0,2.8.3,3.9.9s1.9,1.4,2.5,2.6c.6,1.1.9,2.4.9,4s-.3,2.9-.9,4-1.4,2-2.5,2.6-2.4.9-3.9.9v-.1ZM3178.83,1222.19h2c.9,0,1.7-.2,2.4-.5.6-.3,1.1-.8,1.4-1.6.3-.7.5-1.6.5-2.7s-.2-2-.5-2.7-.8-1.2-1.4-1.6c-.6-.3-1.4-.5-2.4-.5h-2v9.6ZM3190.63,1224.89v-14.9h5.9c1.1,0,2.1.2,2.9.7.8.4,1.4,1,1.8,1.8s.6,1.6.6,2.6-.2,1.9-.6,2.6c-.4.8-1.1,1.3-1.9,1.8-.8.4-1.8.6-2.9.6h-3.8v-2.5h3.2c.6,0,1.1-.1,1.5-.3.4-.2.7-.5.9-.9.2-.4.3-.8.3-1.3s0-.9-.3-1.3c-.2-.4-.5-.7-.9-.9-.4-.2-.9-.3-1.5-.3h-2.1v12.3h-3.2.1ZM2967.03,1249.89v-11.2h3.1v11.2h-3.1ZM2968.63,1237.29c-.5,0-.8-.1-1.2-.5-.3-.3-.5-.7-.5-1.1s.2-.8.5-1.1c.3-.3.7-.5,1.2-.5s.9.2,1.2.5c.3.3.5.7.5,1.1s-.2.8-.5,1.1c-.3.3-.7.5-1.2.5ZM2975.73,1243.39v6.5h-3.1v-14.9h3v5.7h.1c.3-.7.7-1.2,1.2-1.5.6-.4,1.3-.6,2.1-.6s1.5.2,2,.5c.6.3,1,.8,1.4,1.4.3.6.5,1.4.5,2.2v7.1h-3.1v-6.6c0-.7-.2-1.2-.5-1.6s-.8-.6-1.5-.6-.8,0-1.1.3c-.3.2-.6.4-.8.8-.2.3-.3.8-.3,1.2l.1.1ZM2985.43,1249.89v-11.2h3v1.9h.1c.2-.7.5-1.2,1-1.6s1-.5,1.7-.5.3,0,.5,0h.5v2.8c-.2,0-.4,0-.6-.1h-.7c-.5,0-.9.1-1.2.3-.4.2-.6.5-.8.8-.2.3-.3.8-.3,1.2v6.3h-3.1l-.1.1ZM2998.43,1250.09c-1.1,0-2.1-.2-3-.7-.8-.5-1.5-1.1-1.9-2-.5-.9-.7-1.9-.7-3.1s.2-2.2.7-3c.4-.9,1.1-1.6,1.9-2,.8-.5,1.8-.7,2.9-.7s1.4.1,2.1.4c.6.2,1.2.6,1.7,1.1s.8,1.1,1.1,1.8.4,1.5.4,2.5v.9h-9.5v-1.9h6.5c0-.4,0-.8-.3-1.2-.2-.3-.5-.6-.8-.8-.3-.2-.7-.3-1.2-.3s-.9.1-1.2.3c-.4.2-.6.5-.8.9-.2.4-.3.8-.3,1.2v1.8c0,.6.1,1,.3,1.4.2.4.5.7.9.9.4.2.8.3,1.3.3s.7,0,.9-.1c.3,0,.5-.2.7-.4.2-.2.4-.4.5-.7l2.9.2c-.2.7-.4,1.3-.9,1.8-.4.5-1,.9-1.7,1.2-.7.3-1.5.4-2.4.4l-.1-.2ZM3010.33,1254.09v-15.4h3.1v1.9h.1c.1-.3.3-.6.6-.9.3-.3.6-.6,1-.8.4-.2.9-.3,1.6-.3s1.6.2,2.3.6c.7.4,1.2,1.1,1.7,1.9.4.8.6,1.9.6,3.2s-.2,2.3-.6,3.2c-.4.9-.9,1.5-1.6,1.9s-1.4.7-2.3.7-1.1-.1-1.5-.3c-.4-.2-.8-.4-1-.8s-.5-.6-.6-.9h-.1v6h-3.3ZM3013.33,1244.29c0,.7,0,1.2.3,1.8.2.5.4.9.8,1.1.4.3.8.4,1.3.4s.9-.1,1.3-.4c.3-.3.6-.7.8-1.2.2-.5.3-1.1.3-1.7s0-1.2-.3-1.7c-.2-.5-.5-.9-.8-1.2-.4-.3-.8-.4-1.3-.4s-.9.1-1.3.4c-.3.3-.6.7-.8,1.1-.2.5-.3,1.1-.3,1.7v.1ZM3028.43,1250.09c-1.1,0-2.1-.2-2.9-.7s-1.5-1.2-1.9-2c-.5-.9-.7-1.9-.7-3s.2-2.2.7-3c.4-.9,1.1-1.5,1.9-2s1.8-.7,2.9-.7,2.1.2,2.9.7,1.5,1.1,1.9,2,.7,1.9.7,3-.2,2.1-.7,3c-.4.9-1.1,1.5-1.9,2s-1.8.7-2.9.7ZM3028.43,1247.69c.5,0,.9-.1,1.3-.4s.6-.7.8-1.2c.2-.5.3-1.1.3-1.8s0-1.2-.3-1.7c-.2-.5-.4-.9-.8-1.2-.3-.3-.8-.4-1.3-.4s-1,.2-1.3.4c-.3.3-.6.7-.8,1.2-.2.5-.3,1.1-.3,1.7s0,1.2.3,1.8c.2.5.4.9.8,1.2.4.3.8.4,1.3.4ZM3039.03,1234.99v14.9h-3.1v-14.9h3.1ZM3041.53,1249.89v-11.2h3.1v11.2h-3.1ZM3043.03,1237.29c-.5,0-.9-.1-1.2-.5-.3-.3-.5-.7-.5-1.1s.2-.8.5-1.1c.3-.3.7-.5,1.2-.5s.8.2,1.2.5c.3.3.5.7.5,1.1s-.2.8-.5,1.1c-.3.3-.7.5-1.2.5ZM3053.03,1238.69v2.3h-6.8v-2.3h6.8ZM3047.83,1235.99h3.1v10.4c0,.3,0,.5.1.7,0,.2.2.3.4.3h1.3l.5,2.3c-.2,0-.4.1-.7.2-.3,0-.6.1-1,.1-.8,0-1.4,0-2-.3-.6-.2-1-.6-1.3-1.1s-.5-1.1-.5-1.8v-10.9l.1.1ZM3055.03,1249.89v-11.2h3.1v11.2h-3.1ZM3056.63,1237.29c-.5,0-.9-.1-1.2-.5s-.5-.7-.5-1.1.2-.8.5-1.1c.3-.3.7-.5,1.2-.5s.9.2,1.2.5c.3.3.5.7.5,1.1s-.2.8-.5,1.1c-.3.3-.7.5-1.2.5ZM3070.03,1241.89l-2.9.2c0-.2-.1-.5-.3-.7-.2-.2-.4-.4-.6-.5-.3-.1-.6-.2-.9-.2s-.9.1-1.2.3c-.3.2-.5.5-.5.8s0,.5.3.7c.2.2.6.3,1.1.4l2,.4c1.1.2,1.9.6,2.4,1.1s.8,1.1.8,1.9-.2,1.4-.7,1.9c-.4.6-1,1-1.8,1.3-.7.3-1.6.5-2.6.5-1.5,0-2.7-.3-3.6-.9s-1.4-1.5-1.5-2.5l3.1-.2c0,.4.3.8.7,1,.4.2.8.4,1.4.4s1-.1,1.3-.3c.3-.2.5-.5.5-.8s-.1-.5-.4-.7-.6-.3-1.1-.4l-1.9-.4c-1.1-.2-1.9-.6-2.4-1.1s-.8-1.2-.8-2.1.2-1.3.6-1.9c.4-.5.9-.9,1.6-1.2.7-.3,1.6-.4,2.5-.4,1.4,0,2.5.3,3.3.9s1.3,1.4,1.4,2.4l.2.1ZM3077.23,1250.09c-1.2,0-2.1-.2-3-.7-.8-.5-1.5-1.2-1.9-2-.4-.9-.7-1.9-.7-3s.2-2.2.7-3c.4-.9,1.1-1.6,1.9-2,.8-.5,1.8-.7,2.9-.7s1.8.2,2.6.5c.7.4,1.3.8,1.7,1.5.4.6.7,1.4.7,2.3h-2.9c0-.6-.3-1-.7-1.4-.3-.4-.8-.5-1.4-.5s-.9.1-1.3.4-.6.6-.8,1.1c-.2.5-.3,1.1-.3,1.8s.1,1.3.3,1.8c.2.5.5.9.8,1.1.4.3.8.4,1.3.4s.7,0,1-.2c.3-.1.5-.3.7-.6.2-.3.3-.6.4-1h2.9c0,.8-.3,1.6-.7,2.3-.4.6-1,1.1-1.7,1.5s-1.6.6-2.6.6l.1-.2ZM3087.33,1243.39v6.5h-3.1v-14.9h3v5.7h.1c.3-.7.7-1.2,1.2-1.5.6-.4,1.3-.6,2.1-.6s1.4.2,2,.5,1,.8,1.4,1.4c.3.6.5,1.4.5,2.2v7.1h-3.1v-6.6c0-.7-.2-1.2-.5-1.6-.4-.4-.8-.6-1.5-.6s-.8,0-1.1.3c-.3.2-.6.4-.8.8-.2.3-.3.8-.3,1.2l.1.1ZM3102.13,1250.09c-1.1,0-2.1-.2-3-.7-.8-.5-1.5-1.1-1.9-2s-.7-1.9-.7-3.1.2-2.2.7-3c.4-.9,1.1-1.6,1.9-2,.8-.5,1.8-.7,2.9-.7s1.4.1,2.1.4c.6.2,1.2.6,1.7,1.1s.8,1.1,1.1,1.8.4,1.5.4,2.5v.9h-9.5v-1.9h6.5c0-.4,0-.8-.3-1.2-.2-.3-.5-.6-.8-.8-.3-.2-.7-.3-1.2-.3s-.9.1-1.2.3c-.4.2-.6.5-.8.9-.2.4-.3.8-.3,1.2v1.8c0,.6.1,1,.3,1.4.2.4.5.7.9.9.4.2.8.3,1.4.3s.7,0,.9-.1c.3,0,.5-.2.7-.4.2-.2.4-.4.5-.7l2.9.2c-.2.7-.4,1.3-.9,1.8-.4.5-1,.9-1.7,1.2-.7.3-1.5.4-2.4.4l-.2-.2ZM3112.43,1243.39v6.5h-3.1v-11.2h3v2h.1c.2-.6.7-1.2,1.2-1.5.6-.4,1.3-.6,2.1-.6s1.4.2,2,.5,1,.8,1.3,1.5c.3.6.5,1.4.5,2.2v7.1h-3.1v-6.6c0-.7-.2-1.2-.5-1.6-.4-.4-.8-.6-1.5-.6s-.8,0-1.1.3c-.3.2-.6.4-.8.8-.2.3-.3.8-.3,1.2h.2ZM3130.23,1249.89l-4.3-14.9h3.4l2.5,10.4h.1l2.7-10.4h3l2.7,10.4h.1l2.5-10.4h3.4l-4.3,14.9h-3.1l-2.8-9.8h-.1l-2.8,9.8h-3.1.1ZM3152.03,1250.09c-1.2,0-2.2-.2-3-.7s-1.5-1.1-1.9-2-.7-1.9-.7-3.1.2-2.2.7-3c.5-.9,1.1-1.6,1.9-2,.8-.5,1.8-.7,2.9-.7s1.4.1,2.1.4c.6.2,1.2.6,1.7,1.1s.9,1.1,1.1,1.8c.3.7.4,1.5.4,2.5v.9h-9.4v-1.9h6.5c0-.4-.1-.8-.3-1.2-.2-.3-.5-.6-.8-.8-.3-.2-.7-.3-1.2-.3s-.9.1-1.2.3c-.4.2-.6.5-.9.9-.2.4-.3.8-.3,1.2v1.8c0,.6,0,1,.3,1.4.2.4.5.7.9.9.4.2.8.3,1.4.3s.7,0,.9-.1c.3,0,.5-.2.7-.4.2-.2.4-.4.5-.7l2.9.2c-.1.7-.4,1.3-.9,1.8s-1,.9-1.7,1.2c-.7.3-1.5.4-2.4.4l-.2-.2ZM3159.13,1249.89v-11.2h3v1.9h.1c.2-.7.5-1.2,1-1.6s1-.5,1.7-.5.3,0,.5,0h.5v2.8c-.1,0-.3,0-.6-.1h-.7c-.5,0-.9.1-1.2.3-.4.2-.6.5-.9.8-.2.3-.3.8-.3,1.2v6.3h-3.1v.1ZM3174.03,1238.69v2.3h-6.7v-2.3h6.7ZM3168.83,1235.99h3.1v10.4c0,.3,0,.5.1.7,0,.2.2.3.4.3h1.3l.5,2.3c-.2,0-.4.1-.7.2-.3,0-.6.1-1,.1-.8,0-1.4,0-2-.3-.6-.2-1-.6-1.3-1.1s-.5-1.1-.5-1.8v-10.9l.1.1ZM3181.13,1250.09c-1.1,0-2.1-.2-3-.7-.8-.5-1.5-1.1-1.9-2s-.7-1.9-.7-3.1.2-2.2.7-3c.4-.9,1.1-1.6,1.9-2,.8-.5,1.8-.7,2.9-.7s1.4.1,2.1.4c.6.2,1.2.6,1.7,1.1s.9,1.1,1.1,1.8c.3.7.4,1.5.4,2.5v.9h-9.5v-1.9h6.5c0-.4-.1-.8-.3-1.2-.2-.3-.5-.6-.8-.8-.3-.2-.7-.3-1.2-.3s-.9.1-1.3.3c-.4.2-.6.5-.8.9-.2.4-.3.8-.3,1.2v1.8c0,.6.1,1,.3,1.4.2.4.5.7.9.9.4.2.8.3,1.3.3s.7,0,.9-.1c.3,0,.5-.2.7-.4.2-.2.4-.4.5-.7l2.9.2c-.1.7-.4,1.3-.9,1.8s-1,.9-1.7,1.2c-.7.3-1.5.4-2.4.4v-.2ZM3190.93,1245.39v-.2c0-.8,0-1.5.2-2s.4-.9.7-1.2c.3-.3.6-.6,1-.8.3-.2.6-.4.8-.6s.4-.4.6-.7c.1-.3.2-.6.2-.9s0-.6-.2-.9c-.2-.2-.4-.4-.6-.6-.3-.1-.6-.2-.9-.2s-.6,0-.9.2c-.3.1-.5.3-.7.6-.2.3-.3.6-.3,1h-3c0-1,.2-1.8.7-2.4.4-.6,1-1.1,1.8-1.4s1.5-.5,2.4-.5,1.8.2,2.6.5,1.3.8,1.8,1.4c.4.6.6,1.3.6,2.2s0,1.1-.3,1.5c-.2.4-.4.8-.8,1.2-.3.3-.7.6-1.2.9-.4.2-.7.5-.9.7-.2.2-.4.5-.5.9-.1.3-.2.7-.2,1.2v.2h-2.8l-.1-.1ZM3192.33,1250.09c-.5,0-.9-.2-1.2-.5-.3-.3-.5-.8-.5-1.2,0-.5.2-.9.5-1.2s.8-.5,1.2-.5.9.2,1.2.5c.4.3.5.7.5,1.2s0,.6-.2.9-.4.5-.6.6c-.3.1-.6.2-.9.2Z"/>
  </g>
  <g id="n-003">
    <rect class="cls-3" x="3683.03" y="1122.79" width="448.1" height="214.1"/>
    <rect class="cls-5" x="3683.03" y="1122.79" width="448.1" height="214.1"/>
    <rect class="cls-5" x="3683.03" y="1122.79" width="448.1" height="214.1"/>
    <path class="cls-1" d="M3754.33,1195.79h-4.2v-11.9h4.3c1.2,0,2.2.2,3.1.7s1.5,1.2,2,2.1.7,1.9.7,3.2-.2,2.3-.7,3.2c-.5.9-1.1,1.6-2,2.1s-1.9.7-3.1.7l-.1-.1ZM3752.63,1193.69h1.6c.8,0,1.4-.1,1.9-.4s.9-.7,1.2-1.2.4-1.3.4-2.2-.1-1.6-.4-2.2-.6-1-1.2-1.2c-.5-.3-1.1-.4-1.9-.4h-1.6v7.6h0ZM3762.03,1195.79v-9h2.5v9h-2.5ZM3763.23,1185.69c-.4,0-.7-.1-.9-.4-.3-.2-.4-.6-.4-.9s.1-.6.4-.9c.3-.2.6-.4.9-.4s.7.1.9.4c.3.2.4.5.4.9s-.1.6-.4.9c-.3.2-.6.4-.9.4ZM3770.53,1195.99c-.9,0-1.7-.2-2.4-.6-.7-.4-1.2-.9-1.5-1.6-.4-.7-.5-1.5-.5-2.4s.2-1.7.5-2.4c.4-.7.9-1.2,1.5-1.6s1.4-.6,2.3-.6,1.1.1,1.6.3,1,.5,1.3.8c.4.4.7.9.9,1.4.2.6.3,1.2.3,2v.7h-7.6v-1.5h5.2c0-.3,0-.7-.2-.9-.2-.3-.4-.5-.6-.6-.3-.2-.6-.2-.9-.2s-.7,0-1,.3c-.3.2-.5.4-.7.7-.2.3-.2.6-.2,1v1.5c0,.4,0,.8.2,1.2.2.3.4.6.7.8.3.2.7.3,1.1.3s.5,0,.8-.1c.2,0,.4-.2.6-.4.2-.1.3-.3.4-.6h2.3c-.1.7-.3,1.2-.7,1.6-.4.4-.8.7-1.4.9-.6.2-1.2.3-2,.3v-.3ZM3780.13,1195.79v-11.9h7.9v2.1h-5.4v2.8h4.9v2.1h-4.9v4.9h-2.5ZM3794.03,1195.79h-4.2v-11.9h4.3c1.2,0,2.2.2,3.1.7s1.5,1.2,2,2.1.7,1.9.7,3.2-.2,2.3-.7,3.2c-.5.9-1.1,1.6-2,2.1s-1.9.7-3.1.7l-.1-.1ZM3792.33,1193.69h1.6c.8,0,1.4-.1,1.9-.4s.9-.7,1.2-1.2.4-1.3.4-2.2-.1-1.6-.4-2.2-.6-1-1.1-1.2c-.5-.3-1.1-.4-1.9-.4h-1.6v7.6h-.1ZM3801.73,1195.79v-11.9h4.7c.9,0,1.7.2,2.3.5.6.3,1.1.8,1.5,1.4.3.6.5,1.3.5,2.1s-.2,1.5-.5,2.1c-.4.6-.8,1.1-1.5,1.4-.6.3-1.4.5-2.4.5h-3v-2h2.6c.5,0,.9,0,1.2-.2.3-.2.6-.4.7-.7.2-.3.2-.7.2-1.1s0-.7-.2-1-.4-.5-.7-.7c-.3-.2-.7-.2-1.2-.2h-1.7v9.9h-2.5v-.1ZM3818.53,1190.59v5.2h-2.5v-9h2.4v1.6h.1c.2-.5.5-.9,1-1.2.5-.3,1-.5,1.7-.5s1.2.1,1.6.4c.5.3.8.7,1.1,1.2.3.5.4,1.1.4,1.8v5.7h-2.5v-5.3c0-.6-.1-1-.4-1.3s-.7-.5-1.2-.5-.6,0-.9.2c-.3.1-.4.4-.6.6-.1.3-.2.6-.2,1v.1ZM3832.03,1191.99v-5.1h2.5v9h-2.4v-1.6h0c-.2.5-.5,1-1,1.3s-1,.5-1.7.5-1.1-.1-1.6-.4-.8-.7-1.1-1.2c-.2-.5-.4-1.1-.4-1.8v-5.7h2.5v5.3c0,.5.1.9.4,1.2.3.3.6.5,1.1.5s.6,0,.8-.2c.3-.1.5-.4.6-.6.2-.3.2-.6.2-1l.1-.2ZM3841.33,1186.89v1.9h-5.4v-1.9h5.4ZM3837.13,1184.69h2.5v8.4c0,.2,0,.4.1.5,0,.1.2.2.3.3h1.1l.4,1.8c-.1,0-.3,0-.5.1h-.8c-.6,0-1.1,0-1.6-.2s-.8-.5-1.1-.8c-.2-.4-.4-.9-.4-1.5v-8.7.1ZM3842.83,1195.79v-1.5l4.4-5.4h-4.2v-2h7.2v1.6l-4.1,5.3h4.3v2h-7.6ZM3857.03,1186.89v1.9h-5.4v-1.9h5.4ZM3852.83,1184.69h2.5v8.4c0,.2,0,.4.1.5,0,.1.2.2.3.3h1.1l.4,1.8c-.1,0-.3,0-.5.1h-.8c-.6,0-1.1,0-1.6-.2s-.8-.5-1-.8c-.2-.4-.4-.9-.4-1.5v-8.7l-.1.1ZM3866.23,1195.79v-9h2.4v1.6h.1c.2-.5.5-.9.9-1.2.4-.3,1-.5,1.6-.5s1.1.2,1.6.5c.4.3.7.7.9,1.2h0c.2-.5.5-.9,1-1.2s1.1-.5,1.7-.5,1.5.3,2,.8.8,1.3.8,2.2v6h-2.5v-5.5c0-.5-.1-.9-.4-1.1s-.6-.4-1-.4-.8.1-1.1.4-.4.7-.4,1.1v5.5h-2.4v-5.6c0-.4-.1-.8-.4-1.1s-.6-.4-1-.4-.5,0-.8.2c-.2.1-.4.3-.5.6-.1.2-.2.5-.2.9v5.4h-2.5l.2.1ZM3885.33,1195.99c-.9,0-1.7-.2-2.4-.6-.7-.4-1.2-.9-1.5-1.6-.4-.7-.5-1.5-.5-2.4s.2-1.7.5-2.4c.4-.7.9-1.2,1.5-1.6.7-.4,1.4-.6,2.4-.6s1.7.2,2.3.6c.7.4,1.2.9,1.5,1.6.4.7.5,1.5.5,2.4s-.2,1.7-.5,2.4c-.3.7-.9,1.2-1.5,1.6-.7.4-1.4.6-2.3.6ZM3885.33,1194.09c.4,0,.8-.1,1-.4.3-.2.5-.6.6-1s.2-.9.2-1.4,0-1-.2-1.4c-.1-.4-.4-.7-.6-1-.3-.2-.6-.3-1-.3s-.8.1-1.1.3c-.3.2-.5.6-.6,1s-.2.9-.2,1.4,0,1,.2,1.4c.1.4.4.7.6,1,.3.2.6.4,1.1.4ZM3894.63,1195.99c-.7,0-1.3-.2-1.8-.5-.6-.4-1-.9-1.3-1.6s-.5-1.5-.5-2.5.2-1.9.5-2.6.8-1.2,1.3-1.5c.5-.4,1.1-.5,1.8-.5s.9,0,1.2.3c.3.2.6.4.8.6s.4.5.5.7h0v-4.5h2.5v11.9h-2.4v-1.4h-.1c-.1.2-.3.5-.5.7s-.5.4-.8.6-.7.2-1.2.2v.1ZM3895.43,1193.99c.4,0,.7-.1,1-.3.3-.2.5-.5.6-.9s.2-.9.2-1.4,0-1-.2-1.4c-.1-.4-.4-.7-.6-.9s-.6-.3-1-.3-.8.1-1,.3-.5.5-.6.9c-.2.4-.2.9-.2,1.4s0,1,.2,1.4c.1.4.3.7.6.9.3.2.6.3,1,.3ZM3905.83,1195.99c-.9,0-1.7-.2-2.4-.6-.7-.4-1.2-.9-1.5-1.6-.4-.7-.5-1.5-.5-2.4s.2-1.7.5-2.4c.4-.7.9-1.2,1.5-1.6s1.4-.6,2.3-.6,1.1.1,1.6.3,1,.5,1.3.8c.4.4.7.9.9,1.4.2.6.3,1.2.3,2v.7h-7.6v-1.5h5.2c0-.3,0-.7-.2-.9-.2-.3-.4-.5-.6-.6-.3-.2-.6-.2-.9-.2s-.7,0-1,.3c-.3.2-.5.4-.7.7-.2.3-.2.6-.2,1v1.5c0,.4,0,.8.2,1.2.2.3.4.6.7.8.3.2.7.3,1.1.3s.5,0,.8-.1c.2,0,.4-.2.6-.4.2-.1.3-.3.4-.6h2.3c-.1.7-.3,1.2-.7,1.6-.4.4-.8.7-1.4.9-.6.2-1.2.3-2,.3v-.3ZM3911.53,1195.79v-9h2.4v1.6h0c.2-.5.4-1,.8-1.3s.8-.4,1.3-.4.3,0,.4,0h.4v2.2h-1.1c-.4,0-.7,0-1,.2-.3.1-.5.4-.7.6-.2.3-.2.6-.2,1v5.1h-2.5.2ZM3920.73,1190.59v5.2h-2.5v-9h2.4v1.6h.1c.2-.5.5-.9,1-1.2.5-.3,1-.5,1.7-.5s1.2.1,1.6.4c.5.3.8.7,1.1,1.2.3.5.4,1.1.4,1.8v5.7h-2.5v-5.3c0-.6-.1-1-.4-1.3s-.7-.5-1.2-.5-.6,0-.9.2c-.2.1-.4.4-.6.6-.1.3-.2.6-.2,1v.1ZM3932.53,1195.99c-.9,0-1.7-.2-2.4-.6-.7-.4-1.2-.9-1.5-1.6-.4-.7-.5-1.5-.5-2.4s.2-1.7.5-2.4c.4-.7.9-1.2,1.5-1.6s1.4-.6,2.3-.6,1.1.1,1.6.3c.5.2,1,.5,1.4.8.4.4.7.9.9,1.4.2.6.3,1.2.3,2v.7h-7.6v-1.5h5.2c0-.3,0-.7-.2-.9-.1-.3-.4-.5-.6-.6-.3-.2-.6-.2-.9-.2s-.7,0-1,.3c-.3.2-.5.4-.7.7-.2.3-.2.6-.2,1v1.5c0,.4,0,.8.2,1.2.2.3.4.6.7.8.3.2.7.3,1.1.3s.5,0,.8-.1.4-.2.6-.4c.2-.1.3-.3.4-.6h2.3c-.1.7-.3,1.2-.7,1.6-.4.4-.8.7-1.4.9-.6.2-1.2.3-2,.3l-.1-.3ZM3950.43,1186.89l-3.1,9h-2.8l-3.1-9h2.6l1.9,6.4h0l1.9-6.4h2.6ZM3951.73,1195.79v-9h2.5v9h-2.5ZM3953.03,1185.69c-.4,0-.7-.1-.9-.4-.3-.2-.4-.6-.4-.9s.1-.6.4-.9c.3-.2.6-.4.9-.4s.7.1.9.4c.3.2.4.5.4.9s-.1.6-.4.9c-.3.2-.6.4-.9.4ZM3963.63,1189.39h-2.3s-.1-.2-.2-.4c-.1-.2-.3-.3-.5-.4-.2,0-.4-.1-.7-.1s-.7,0-1,.2-.4.4-.4.6,0,.4.3.5c.2.2.5.3.9.4l1.6.3c.9.2,1.5.5,1.9.9s.6.9.6,1.6-.2,1.1-.5,1.6c-.3.4-.8.8-1.4,1s-1.3.4-2.1.4c-1.2,0-2.1-.2-2.8-.7-.7-.5-1.1-1.2-1.2-2h2.4c0,.2.2.5.5.7s.6.3,1.1.3.8,0,1-.2c.3-.2.4-.4.4-.7s0-.4-.3-.6c-.2-.1-.5-.3-.9-.3l-1.6-.3c-.9-.2-1.5-.5-1.9-.9s-.6-1-.6-1.6.2-1.1.5-1.5.8-.7,1.3-1c.6-.2,1.2-.3,2-.3,1.1,0,2,.2,2.7.7.6.5,1,1.1,1.1,1.9l.1-.1ZM3971.13,1191.99v-5.1h2.5v9h-2.4v-1.6h0c-.2.5-.5,1-1,1.3s-1,.5-1.7.5-1.1-.1-1.6-.4c-.4-.3-.8-.7-1.1-1.2-.3-.5-.4-1.1-.4-1.8v-5.7h2.5v5.3c0,.5.1.9.4,1.2.3.3.7.5,1.1.5s.6,0,.8-.2c.3-.1.5-.4.6-.6s.2-.6.2-1l.1-.2ZM3979.73,1195.99c-.9,0-1.7-.2-2.4-.6-.7-.4-1.2-.9-1.5-1.6-.4-.7-.5-1.5-.5-2.4s.2-1.7.5-2.4c.4-.7.9-1.2,1.5-1.6.7-.4,1.4-.6,2.3-.6s1.1.1,1.7.3,1,.5,1.3.8c.4.4.7.9.9,1.4s.3,1.2.3,2v.7h-7.6v-1.5h5.2c0-.3,0-.7-.2-.9-.2-.3-.4-.5-.7-.6-.3-.2-.6-.2-.9-.2s-.7,0-1,.3c-.3.2-.5.4-.7.7-.2.3-.2.6-.2,1v1.5c0,.4,0,.8.2,1.2.2.3.4.6.7.8.3.2.7.3,1.1.3s.5,0,.8-.1.4-.2.6-.4c.2-.1.3-.3.4-.6h2.3c-.1.7-.4,1.2-.7,1.6-.4.4-.8.7-1.4.9-.6.2-1.2.3-1.9.3l-.1-.3ZM3987.93,1183.89v11.9h-2.5v-11.9h2.5ZM3992.43,1183.89v11.9h-2.5v-11.9h2.5ZM3998.53,1195.99c-.9,0-1.7-.2-2.4-.6-.7-.4-1.2-.9-1.5-1.6s-.5-1.5-.5-2.4.2-1.7.5-2.4c.4-.7.9-1.2,1.5-1.6.7-.4,1.4-.6,2.3-.6s1.1.1,1.7.3,1,.5,1.3.8c.4.4.7.9.9,1.4s.3,1.2.3,2v.7h-7.6v-1.5h5.2c0-.3,0-.7-.2-.9-.2-.3-.4-.5-.7-.6-.3-.2-.6-.2-.9-.2s-.7,0-1,.3c-.3.2-.5.4-.7.7-.2.3-.2.6-.2,1v1.5c0,.4,0,.8.2,1.2.2.3.4.6.7.8.3.2.7.3,1.1.3s.5,0,.8-.1.4-.2.6-.4c.2-.1.3-.3.4-.6h2.3c-.1.7-.4,1.2-.7,1.6-.4.4-.8.7-1.4.9-.6.2-1.2.3-1.9.3l-.1-.3ZM3754.33,1216.79h-4.2v-11.9h4.3c1.2,0,2.2.2,3.1.7s1.5,1.2,2,2.1.7,1.9.7,3.2-.2,2.3-.7,3.2c-.5.9-1.1,1.6-2,2.1s-1.9.7-3.1.7l-.1-.1ZM3752.63,1214.69h1.6c.8,0,1.4-.1,1.9-.4s.9-.7,1.2-1.2.4-1.3.4-2.2-.1-1.6-.4-2.2-.6-1-1.2-1.2c-.5-.3-1.1-.4-1.9-.4h-1.6v7.6h0ZM3764.53,1216.99c-.6,0-1.1,0-1.5-.3-.5-.2-.8-.5-1.1-.9-.3-.4-.4-.9-.4-1.5s0-.9.3-1.3c.2-.3.4-.6.8-.8.3-.2.7-.4,1.1-.5s.8-.2,1.3-.2.9-.1,1.3-.2c.3,0,.6-.1.7-.2.1,0,.2-.2.2-.4h0c0-.4-.1-.7-.3-.9-.2-.2-.6-.3-1-.3s-.8,0-1.1.3c-.3.2-.4.4-.5.7l-2.3-.2c.1-.5.3-1,.7-1.4.4-.4.8-.7,1.3-.9.5-.2,1.2-.3,1.9-.3s1,0,1.4.2c.5.1.9.3,1.2.5.4.2.6.6.9.9.2.4.3.8.3,1.4v6h-2.4v-1.2h0c-.1.3-.3.5-.6.8-.2.2-.5.4-.9.5-.3.1-.7.2-1.2.2h-.1ZM3765.33,1215.29c.4,0,.7,0,1-.2s.5-.4.7-.6.2-.5.2-.8v-1s-.2,0-.3.1c-.1,0-.3,0-.4.1h-.9c-.3,0-.6.1-.8.2s-.4.2-.5.4c-.1.2-.2.4-.2.6,0,.3.1.6.4.8.2.2.6.3,1,.3l-.2.1ZM3771.53,1216.79v-9h2.4v1.6h.1c.2-.5.4-1,.8-1.3s.8-.4,1.3-.4.3,0,.4,0h.4v2.2h-1.1c-.4,0-.7,0-1,.2-.3.1-.5.4-.7.6-.2.3-.2.6-.2,1v5.1h-2.5.1ZM3785.73,1210.39h-2.3s-.1-.2-.2-.4c-.1-.2-.3-.3-.5-.4-.2,0-.4-.1-.7-.1s-.7,0-1,.2-.4.4-.4.6,0,.4.3.5c.2.2.5.3.9.4l1.6.3c.9.2,1.5.5,2,.9.4.4.6.9.6,1.6s-.2,1.1-.5,1.6c-.3.4-.8.8-1.4,1s-1.3.4-2.1.4c-1.2,0-2.1-.2-2.8-.7-.7-.5-1.1-1.2-1.2-2h2.4c0,.2.2.5.5.7s.6.3,1.1.3.8,0,1.1-.2c.3-.2.4-.4.4-.7,0-.2,0-.4-.3-.6-.2-.1-.5-.3-.9-.3l-1.6-.3c-.9-.2-1.5-.5-2-.9-.4-.4-.6-1-.6-1.6s.2-1.1.5-1.5.8-.7,1.3-1c.6-.2,1.2-.3,2-.3,1.1,0,2,.2,2.7.7s1,1.1,1.1,1.9v-.1ZM3792.23,1207.89v1.9h-5.4v-1.9h5.4ZM3788.03,1205.69h2.5v8.4c0,.2,0,.4.1.5,0,.1.2.2.3.3h1.1l.4,1.8c-.1,0-.3,0-.5.1h-.8c-.6,0-1.1,0-1.6-.2-.4-.2-.8-.5-1-.8-.2-.4-.4-.9-.4-1.5v-8.7l-.1.1ZM3797.83,1216.99c-.9,0-1.7-.2-2.4-.6-.7-.4-1.2-.9-1.5-1.6-.4-.7-.5-1.5-.5-2.4s.2-1.7.5-2.4c.4-.7.9-1.2,1.5-1.6s1.4-.6,2.3-.6,1.1.1,1.6.3c.5.2,1,.5,1.3.8.4.4.7.9.9,1.4.2.6.3,1.2.3,2v.7h-7.6v-1.5h5.2c0-.3,0-.7-.2-.9-.1-.3-.4-.5-.6-.6-.3-.2-.6-.2-.9-.2s-.7,0-1,.3c-.3.2-.5.4-.7.7-.2.3-.2.6-.2,1v1.5c0,.4,0,.8.2,1.2.2.3.4.6.7.8.3.2.7.3,1.1.3s.5,0,.8-.1.4-.2.6-.4c.2-.1.3-.3.4-.6h2.3c-.1.7-.3,1.2-.7,1.6-.4.4-.8.7-1.4.9-.6.2-1.2.3-2,.3v-.3ZM3806.03,1204.89v11.9h-2.5v-11.9h2.5ZM3810.53,1204.89v11.9h-2.5v-11.9h2.5ZM3818.23,1212.99v-5.1h2.5v9h-2.4v-1.6h0c-.2.5-.5,1-1,1.3s-1,.5-1.7.5-1.1-.1-1.6-.4c-.4-.3-.8-.7-1.1-1.2-.3-.5-.4-1.1-.4-1.8v-5.7h2.5v5.3c0,.5.1.9.4,1.2.3.3.7.5,1.1.5s.6,0,.8-.2c.3-.1.5-.4.6-.6.2-.3.2-.6.2-1l.1-.2ZM3825.23,1211.59v5.2h-2.5v-9h2.4v1.6h.1c.2-.5.5-.9,1-1.2.5-.3,1-.5,1.7-.5s1.2.1,1.6.4c.5.3.8.7,1.1,1.2.3.5.4,1.1.4,1.8v5.7h-2.5v-5.3c0-.6-.1-1-.4-1.3s-.7-.5-1.2-.5-.6,0-.9.2c-.2.1-.5.4-.6.6-.1.3-.2.6-.2,1v.1ZM3837.03,1220.39c-.8,0-1.5-.1-2.1-.3s-1-.5-1.4-.9c-.3-.4-.6-.8-.7-1.3l2.3-.3c0,.2.2.3.3.5.1.1.4.3.6.4.3.1.6.2.9.2.5,0,1-.1,1.3-.4.4-.3.5-.7.5-1.3v-1.6h0c-.1.2-.3.5-.5.7s-.5.4-.8.5c-.4.1-.8.2-1.2.2s-1.3-.2-1.8-.5-1-.8-1.3-1.4-.5-1.5-.5-2.5.2-1.9.5-2.5c.3-.7.8-1.2,1.3-1.5s1.2-.5,1.8-.5.9,0,1.3.3c.3.2.6.4.8.6.2.2.4.5.5.7h0v-1.5h2.5v9c0,.8-.2,1.4-.6,1.9s-.9.9-1.6,1.1c-.7.3-1.4.4-2.3.4h.2ZM3837.03,1214.79c.4,0,.7-.1,1-.3.3-.2.5-.5.6-.9s.2-.8.2-1.3,0-1-.2-1.4c-.1-.4-.4-.7-.6-.9-.3-.2-.6-.3-1-.3s-.8.1-1,.3-.5.5-.6.9-.2.8-.2,1.4,0,1,.2,1.3c.2.4.4.7.6.9.3.2.6.3,1,.3ZM3847.43,1216.99c-.9,0-1.7-.2-2.4-.6-.7-.4-1.2-.9-1.5-1.6-.4-.7-.5-1.5-.5-2.4s.2-1.7.5-2.4c.4-.7.9-1.2,1.5-1.6s1.4-.6,2.3-.6,1.1.1,1.7.3,1,.5,1.3.8c.4.4.7.9.9,1.4.2.6.3,1.2.3,2v.7h-7.6v-1.5h5.2c0-.3,0-.7-.2-.9-.1-.3-.4-.5-.6-.6-.3-.2-.6-.2-.9-.2s-.7,0-1,.3c-.3.2-.5.4-.7.7-.2.3-.2.6-.2,1v1.5c0,.4,0,.8.2,1.2.2.3.4.6.7.8.3.2.7.3,1.1.3s.5,0,.8-.1.4-.2.6-.4c.2-.1.3-.3.4-.6h2.3c-.1.7-.4,1.2-.7,1.6-.4.4-.8.7-1.4.9-.6.2-1.2.3-2,.3l-.1-.3ZM3855.63,1211.59v5.2h-2.5v-9h2.4v1.6h.1c.2-.5.5-.9,1-1.2.5-.3,1-.5,1.7-.5s1.2.1,1.6.4c.5.3.8.7,1.1,1.2.3.5.4,1.1.4,1.8v5.7h-2.5v-5.3c0-.6-.1-1-.4-1.3s-.7-.5-1.2-.5-.6,0-.9.2c-.2.1-.4.4-.6.6-.1.3-.2.6-.2,1v.1ZM3872.93,1212.99v-5.1h2.5v9h-2.4v-1.6h0c-.2.5-.5,1-1,1.3s-1,.5-1.7.5-1.1-.1-1.6-.4c-.4-.3-.8-.7-1.1-1.2-.3-.5-.4-1.1-.4-1.8v-5.7h2.5v5.3c0,.5.1.9.4,1.2.3.3.7.5,1.1.5s.6,0,.8-.2c.3-.1.5-.4.6-.6s.2-.6.2-1l.1-.2ZM3879.83,1211.59v5.2h-2.5v-9h2.4v1.6h.1c.2-.5.5-.9,1-1.2.5-.3,1-.5,1.7-.5s1.2.1,1.6.4c.5.3.8.7,1.1,1.2.3.5.4,1.1.4,1.8v5.7h-2.5v-5.3c0-.6-.1-1-.4-1.3s-.7-.5-1.2-.5-.6,0-.9.2c-.2.1-.4.4-.6.6-.1.3-.2.6-.2,1v.1ZM3890.93,1216.99c-.7,0-1.3-.2-1.8-.5-.5-.4-1-.9-1.3-1.6s-.5-1.5-.5-2.5.2-1.9.5-2.6.8-1.2,1.3-1.5c.6-.4,1.2-.5,1.8-.5s.9,0,1.2.3c.3.2.6.4.8.6s.4.5.5.7h0v-4.5h2.5v11.9h-2.4v-1.4h-.1c-.1.2-.3.5-.5.7s-.5.4-.8.6-.8.2-1.2.2v.1ZM3891.73,1214.99c.4,0,.7-.1,1-.3.3-.2.5-.5.6-.9.2-.4.2-.9.2-1.4s0-1-.2-1.4c-.1-.4-.4-.7-.6-.9s-.6-.3-1-.3-.8.1-1,.3-.5.5-.6.9-.2.9-.2,1.4,0,1,.2,1.4c.1.4.4.7.6.9.3.2.6.3,1,.3ZM3904.13,1214.19v-3h.4l2.9-3.4h2.9l-3.9,4.5h-.6l-1.7,1.9h0ZM3901.83,1216.79v-11.9h2.5v11.9h-2.5ZM3907.43,1216.79l-2.6-3.9,1.7-1.8,3.9,5.7h-3ZM3913.93,1204.89v11.9h-2.5v-11.9h2.5ZM3918.43,1216.99c-.6,0-1.1,0-1.5-.3-.4-.2-.8-.5-1.1-.9-.3-.4-.4-.9-.4-1.5s0-.9.3-1.3c.2-.3.4-.6.7-.8.3-.2.7-.4,1.1-.5s.8-.2,1.3-.2.9-.1,1.3-.2c.3,0,.6-.1.7-.2.1,0,.2-.2.2-.4h0c0-.4-.1-.7-.4-.9-.2-.2-.6-.3-1-.3s-.8,0-1.1.3c-.3.2-.4.4-.5.7l-2.3-.2c.1-.5.3-1,.7-1.4.3-.4.8-.7,1.3-.9.5-.2,1.2-.3,1.9-.3s1,0,1.4.2c.5.1.9.3,1.2.5.4.2.6.6.8.9.2.4.3.8.3,1.4v6h-2.4v-1.2h0c-.1.3-.3.5-.6.8-.2.2-.5.4-.9.5-.3.1-.7.2-1.2.2h.2ZM3919.13,1215.29c.4,0,.7,0,1-.2s.5-.4.7-.6.2-.5.2-.8v-1s-.2,0-.3.1c-.1,0-.3,0-.4.1h-.9c-.3,0-.6.1-.8.2-.2,0-.4.2-.5.4-.1.2-.2.4-.2.6,0,.3.1.6.4.8.2.2.6.3.9.3l-.1.1ZM3925.43,1216.79v-9h2.4v1.6h0c.2-.5.4-1,.8-1.3s.8-.4,1.3-.4.3,0,.4,0h.4v2.2h-1.1c-.4,0-.7,0-1,.2-.3.1-.5.4-.7.6-.2.3-.2.6-.2,1v5.1h-2.5.2ZM3935.83,1216.99c-.9,0-1.7-.2-2.4-.6-.7-.4-1.2-.9-1.5-1.6s-.5-1.5-.5-2.4.2-1.7.5-2.4c.4-.7.9-1.2,1.5-1.6.7-.4,1.4-.6,2.3-.6s1.1.1,1.6.3c.5.2,1,.5,1.3.8.4.4.7.9.9,1.4.2.6.3,1.2.3,2v.7h-7.6v-1.5h5.2c0-.3,0-.7-.2-.9-.2-.3-.4-.5-.6-.6-.3-.2-.6-.2-.9-.2s-.7,0-1,.3c-.3.2-.5.4-.7.7-.2.3-.2.6-.2,1v1.5c0,.4,0,.8.2,1.2.2.3.4.6.7.8.3.2.7.3,1.1.3s.5,0,.8-.1c.2,0,.4-.2.6-.4.2-.1.3-.3.4-.6h2.3c-.1.7-.4,1.2-.7,1.6-.4.4-.8.7-1.4.9-.6.2-1.2.3-1.9.3l-.1-.3ZM3951.83,1208.29c0-.5-.2-.8-.6-1.1-.4-.3-.8-.4-1.4-.4s-.8,0-1.1.2c-.3.1-.5.3-.7.5-.1.2-.2.4-.2.7,0,.2,0,.4.1.6,0,.2.2.3.4.4.2.1.4.2.6.3.2,0,.5.2.7.2l1.1.3c.5.1,1,.3,1.4.5s.8.4,1.1.7.6.6.7,1c.2.4.3.8.3,1.3,0,.7-.2,1.4-.6,1.9s-.9.9-1.6,1.2c-.7.3-1.5.4-2.5.4s-1.8-.1-2.5-.4-1.3-.7-1.7-1.3c-.4-.6-.6-1.3-.6-2.2h2.4c0,.4.1.7.3,1,.2.3.5.5.8.6.4.1.7.2,1.2.2s.8,0,1.1-.2c.3-.1.6-.3.7-.5.2-.2.3-.5.3-.8s0-.5-.2-.7c-.1-.2-.4-.3-.7-.5-.3-.1-.7-.2-1.1-.4l-1.3-.3c-1-.2-1.8-.6-2.4-1.2s-.9-1.2-.9-2.1.2-1.4.6-1.9.9-1,1.6-1.3,1.5-.5,2.3-.5,1.7.2,2.3.5c.7.3,1.2.7,1.6,1.3.4.5.6,1.2.6,1.9h-2.4l.3.1ZM3958.53,1204.89v11.9h-2.5v-11.9h2.5ZM3964.63,1216.99c-.9,0-1.7-.2-2.3-.6-.7-.4-1.2-.9-1.5-1.6-.4-.7-.5-1.5-.5-2.4s.2-1.7.5-2.4c.4-.7.9-1.2,1.5-1.6.7-.4,1.4-.6,2.3-.6s1.7.2,2.4.6c.7.4,1.2.9,1.5,1.6s.5,1.5.5,2.4-.2,1.7-.5,2.4c-.4.7-.9,1.2-1.5,1.6-.7.4-1.4.6-2.4.6ZM3964.63,1215.09c.4,0,.8-.1,1-.4.3-.2.5-.6.6-1s.2-.9.2-1.4,0-1-.2-1.4c-.1-.4-.4-.7-.6-1-.3-.2-.6-.3-1-.3s-.8.1-1,.3c-.3.2-.5.6-.6,1s-.2.9-.2,1.4,0,1,.2,1.4c.1.4.4.7.6,1,.3.2.6.4,1,.4ZM3974.63,1220.39c-.8,0-1.5-.1-2.1-.3-.6-.2-1-.5-1.4-.9-.3-.4-.6-.8-.7-1.3l2.3-.3c0,.2.2.3.3.5.1.1.4.3.6.4s.6.2.9.2c.5,0,1-.1,1.3-.4s.5-.7.5-1.3v-1.6h-.1c-.1.2-.3.5-.5.7s-.5.4-.8.5-.8.2-1.2.2c-.7,0-1.3-.2-1.8-.5s-1-.8-1.3-1.4-.5-1.5-.5-2.5.2-1.9.5-2.5c.3-.7.8-1.2,1.3-1.5.6-.3,1.2-.5,1.8-.5s.9,0,1.3.3.6.4.8.6.4.5.5.7h0v-1.5h2.5v9c0,.8-.2,1.4-.6,1.9s-.9.9-1.6,1.1-1.4.4-2.3.4h.3ZM3974.73,1214.79c.4,0,.7-.1,1-.3.3-.2.5-.5.6-.9.2-.4.2-.8.2-1.3s0-1-.2-1.4c-.1-.4-.4-.7-.6-.9s-.6-.3-1-.3-.8.1-1,.3-.5.5-.6.9c-.2.4-.2.8-.2,1.4s0,1,.2,1.3c.1.4.4.7.6.9.3.2.6.3,1,.3ZM3983.53,1216.99c-.6,0-1.1,0-1.5-.3-.5-.2-.8-.5-1.1-.9-.2-.4-.4-.9-.4-1.5s0-.9.3-1.3c.2-.3.4-.6.8-.8.3-.2.7-.4,1.1-.5s.8-.2,1.3-.2.9-.1,1.3-.2c.3,0,.6-.1.7-.2.1,0,.2-.2.2-.4h0c0-.4-.1-.7-.3-.9-.2-.2-.6-.3-1-.3s-.8,0-1.1.3c-.3.2-.4.4-.5.7l-2.3-.2c.1-.5.4-1,.7-1.4.3-.4.8-.7,1.3-.9.5-.2,1.2-.3,1.9-.3s1,0,1.4.2c.5.1.9.3,1.2.5.4.2.6.6.9.9.2.4.3.8.3,1.4v6h-2.4v-1.2h0c-.1.3-.3.5-.6.8-.2.2-.5.4-.9.5-.3.1-.7.2-1.2.2h-.1ZM3984.23,1215.29c.4,0,.7,0,1-.2s.5-.4.7-.6.2-.5.2-.8v-1s-.2,0-.3.1c-.1,0-.3,0-.4.1h-1c-.3,0-.5.1-.8.2s-.4.2-.5.4c-.1.2-.2.4-.2.6,0,.3.1.6.4.8.2.2.6.3.9.3v.1ZM3993.03,1211.59v5.2h-2.5v-9h2.4v1.6h.1c.2-.5.5-.9,1-1.2.5-.3,1-.5,1.7-.5s1.2.1,1.6.4c.5.3.8.7,1.1,1.2.2.5.4,1.1.4,1.8v5.7h-2.5v-5.3c0-.6-.1-1-.4-1.3s-.7-.5-1.2-.5-.6,0-.9.2c-.2.1-.4.4-.6.6-.1.3-.2.6-.2,1v.1ZM4008.23,1210.39h-2.3s-.1-.2-.2-.4c-.1-.2-.3-.3-.5-.4-.2,0-.4-.1-.7-.1s-.7,0-1,.2-.4.4-.4.6,0,.4.2.5c.2.2.5.3.9.4l1.6.3c.9.2,1.5.5,1.9.9s.6.9.6,1.6-.2,1.1-.5,1.6c-.3.4-.8.8-1.4,1s-1.3.4-2.1.4c-1.2,0-2.1-.2-2.8-.7-.7-.5-1.1-1.2-1.2-2h2.5c0,.2.2.5.5.7s.7.3,1.1.3.8,0,1.1-.2c.3-.2.4-.4.4-.7s0-.4-.3-.6c-.2-.1-.5-.3-.9-.3l-1.6-.3c-.9-.2-1.5-.5-1.9-.9s-.6-1-.6-1.6.2-1.1.5-1.5.8-.7,1.3-1c.6-.2,1.2-.3,2-.3,1.1,0,2,.2,2.7.7.6.5,1,1.1,1.1,1.9v-.1ZM4019.53,1212.99v-5.1h2.5v9h-2.4v-1.6h0c-.2.5-.5,1-1,1.3s-1,.5-1.7.5-1.1-.1-1.6-.4c-.4-.3-.8-.7-1.1-1.2-.2-.5-.4-1.1-.4-1.8v-5.7h2.5v5.3c0,.5.1.9.4,1.2.3.3.6.5,1.1.5s.6,0,.8-.2c.3-.1.5-.4.6-.6.2-.3.2-.6.2-1l.1-.2ZM4024.03,1216.79v-9h2.4v1.6h.1c.2-.5.5-.9.9-1.2s1-.5,1.6-.5,1.1.2,1.6.5c.4.3.7.7.9,1.2h.1c.2-.5.5-.9,1-1.2s1.1-.5,1.7-.5,1.5.3,2,.8.8,1.3.8,2.2v6h-2.5v-5.5c0-.5-.1-.9-.4-1.1s-.6-.4-1-.4-.8.1-1.1.4-.4.7-.4,1.1v5.5h-2.4v-5.6c0-.4-.1-.8-.4-1.1s-.6-.4-1-.4-.5,0-.8.2c-.2.1-.4.3-.5.6-.1.2-.2.5-.2.9v5.4h-2.5l.1.1ZM3750.03,1236.79v-9h2.5v9h-2.5ZM3751.33,1226.69c-.4,0-.7-.1-1-.4-.3-.2-.4-.6-.4-.9s.1-.6.4-.9c.3-.2.6-.4,1-.4s.7.1.9.4c.3.2.4.5.4.9s-.1.6-.4.9c-.3.2-.6.4-.9.4ZM3757.03,1231.59v5.2h-2.5v-11.9h2.4v4.6h.1c.2-.5.5-.9,1-1.2.4-.3,1-.5,1.7-.5s1.2.1,1.6.4c.5.3.8.7,1.1,1.2.3.5.4,1.1.4,1.8v5.7h-2.5v-5.3c0-.6-.1-1-.4-1.3s-.7-.5-1.2-.5-.6,0-.9.2c-.3.1-.5.4-.6.6-.1.3-.2.6-.2,1h0ZM3764.83,1236.79v-9h2.4v1.6h.1c.2-.5.4-1,.8-1.3s.8-.4,1.3-.4.3,0,.4,0h.4v2.2h-1.1c-.4,0-.7,0-1,.2-.3.1-.5.4-.7.6-.2.3-.2.6-.2,1v5.1h-2.5.1ZM3775.13,1236.99c-.9,0-1.7-.2-2.4-.6-.7-.4-1.2-.9-1.5-1.6-.4-.7-.5-1.5-.5-2.4s.2-1.7.5-2.4c.4-.7.9-1.2,1.5-1.6s1.4-.6,2.3-.6,1.1.1,1.7.3,1,.5,1.3.8c.4.4.7.9.9,1.4.2.6.3,1.2.3,2v.7h-7.6v-1.5h5.2c0-.3,0-.7-.2-.9-.2-.3-.4-.5-.6-.6-.3-.2-.6-.2-1-.2s-.7,0-1,.3c-.3.2-.5.4-.7.7s-.2.6-.2,1v1.5c0,.4,0,.8.2,1.2.2.3.4.6.7.8.3.2.7.3,1.1.3s.5,0,.8-.1.4-.2.6-.4c.2-.1.3-.3.4-.6h2.3c-.1.7-.4,1.2-.7,1.6-.4.4-.8.7-1.4.9-.6.2-1.2.3-1.9.3l-.1-.3ZM3791.23,1228.29c0-.5-.2-.8-.6-1.1-.4-.3-.8-.4-1.4-.4s-.8,0-1,.2c-.3.1-.5.3-.6.5-.2.2-.2.4-.2.7,0,.2,0,.4.1.6s.2.3.4.4c.2.1.4.2.6.3.2,0,.5.2.7.2l1.1.3c.5.1,1,.3,1.4.5s.8.4,1.1.7c.3.3.6.6.7,1,.2.4.3.8.3,1.3,0,.7-.2,1.4-.6,1.9s-.9.9-1.6,1.2c-.7.3-1.5.4-2.5.4s-1.8-.1-2.5-.4-1.3-.7-1.7-1.3c-.4-.6-.6-1.3-.6-2.2h2.5c0,.4.1.7.3,1,.2.3.5.5.8.6s.7.2,1.2.2.8,0,1.1-.2c.3-.1.6-.3.7-.5.2-.2.3-.5.3-.8s0-.5-.2-.7-.4-.3-.7-.5c-.3-.1-.7-.2-1.1-.4l-1.3-.3c-1-.2-1.8-.6-2.4-1.2-.6-.5-.9-1.2-.9-2.1,0-.7.2-1.4.6-1.9s.9-1,1.6-1.3,1.5-.5,2.3-.5,1.7.2,2.3.5c.7.3,1.2.7,1.5,1.3.4.5.6,1.2.6,1.9h-2.4l.1.1ZM3799.53,1236.99c-.9,0-1.7-.2-2.4-.6-.7-.4-1.2-.9-1.5-1.6s-.5-1.5-.5-2.4.2-1.7.5-2.4c.4-.7.9-1.2,1.5-1.6.7-.4,1.4-.6,2.4-.6s1.5.2,2.1.4c.6.3,1,.7,1.4,1.2.3.5.5,1.1.6,1.8h-2.4c0-.4-.2-.8-.5-1.1-.3-.3-.6-.4-1.1-.4s-.7.1-1,.3c-.3.2-.5.5-.7.9s-.2.9-.2,1.4,0,1.1.2,1.5.4.7.7.9c.3.2.6.3,1,.3s.5,0,.8-.2c.2-.1.4-.3.6-.5s.2-.5.3-.8h2.4c0,.7-.2,1.3-.6,1.8s-.8.9-1.4,1.2c-.6.3-1.3.4-2.1.4l-.1.1ZM3807.63,1231.59v5.2h-2.5v-11.9h2.4v4.6h.1c.2-.5.5-.9,1-1.2.5-.3,1-.5,1.7-.5s1.2.1,1.6.4c.5.3.8.7,1.1,1.2.3.5.4,1.1.4,1.8v5.7h-2.5v-5.3c0-.6-.1-1-.4-1.3s-.7-.5-1.2-.5-.6,0-.9.2c-.3.1-.5.4-.6.6-.1.3-.2.6-.2,1h0ZM3817.13,1236.79l-2.4-9h2.5l1.4,6h0l1.4-6h2.5l1.5,6h0l1.4-6h2.5l-2.4,9h-2.6l-1.5-5.6h-.1l-1.5,5.6h-2.7ZM3833.13,1236.99c-.9,0-1.7-.2-2.4-.6-.7-.4-1.2-.9-1.5-1.6-.4-.7-.5-1.5-.5-2.4s.2-1.7.5-2.4c.4-.7.9-1.2,1.5-1.6.7-.4,1.4-.6,2.3-.6s1.1.1,1.7.3,1,.5,1.3.8c.4.4.7.9.9,1.4s.3,1.2.3,2v.7h-7.6v-1.5h5.2c0-.3,0-.7-.2-.9-.2-.3-.4-.5-.6-.6-.3-.2-.6-.2-1-.2s-.7,0-1,.3c-.3.2-.5.4-.7.7s-.2.6-.2,1v1.5c0,.4,0,.8.2,1.2.2.3.4.6.7.8.3.2.7.3,1.1.3s.5,0,.8-.1.4-.2.6-.4c.2-.1.3-.3.4-.6h2.3c-.1.7-.4,1.2-.7,1.6-.4.4-.8.7-1.4.9-.6.2-1.2.3-1.9.3l-.1-.3ZM3838.93,1236.79v-9h2.4v1.6h0c.2-.5.4-1,.8-1.3s.8-.4,1.3-.4.3,0,.4,0h.4v2.2h-1.1c-.4,0-.7,0-1,.2-.3.1-.5.4-.7.6-.2.3-.2.6-.2,1v5.1h-2.5.2ZM3845.63,1240.19v-12.3h2.4v1.5h.1c.1-.2.3-.5.5-.7s.5-.5.8-.6.8-.3,1.3-.3,1.2.2,1.8.5c.5.3,1,.9,1.3,1.5.3.7.5,1.5.5,2.6s-.2,1.8-.5,2.5-.8,1.2-1.3,1.6-1.2.5-1.8.5-.9,0-1.2-.2c-.3-.2-.6-.4-.8-.6s-.4-.5-.5-.7h0v4.8h-2.5l-.1-.1ZM3848.03,1232.29c0,.5,0,1,.2,1.4.1.4.4.7.6.9.3.2.6.3,1,.3s.8-.1,1-.3c.3-.2.5-.5.6-.9s.2-.9.2-1.4,0-1-.2-1.4c-.1-.4-.3-.7-.6-.9s-.6-.3-1-.3-.7.1-1,.3-.5.5-.6.9-.2.9-.2,1.4ZM3861.73,1232.99v-5.1h2.5v9h-2.4v-1.6h0c-.2.5-.5,1-1,1.3s-1,.5-1.7.5-1.1-.1-1.6-.4c-.4-.3-.8-.7-1.1-1.2-.3-.5-.4-1.1-.4-1.8v-5.7h2.5v5.3c0,.5.1.9.4,1.2.3.3.7.5,1.1.5s.6,0,.8-.2c.3-.1.5-.4.6-.6.2-.3.2-.6.2-1l.1-.2ZM3868.73,1231.59v5.2h-2.5v-9h2.4v1.6h.1c.2-.5.5-.9,1-1.2.5-.3,1-.5,1.7-.5s1.2.1,1.6.4c.5.3.8.7,1.1,1.2.2.5.4,1.1.4,1.8v5.7h-2.5v-5.3c0-.6-.1-1-.4-1.3s-.7-.5-1.2-.5-.6,0-.9.2c-.2.1-.5.4-.6.6-.1.3-.2.6-.2,1v.1ZM3878.73,1234.19v-3h.4l2.9-3.4h2.9l-3.9,4.5h-.6l-1.6,1.9h-.1ZM3876.43,1236.79v-11.9h2.5v11.9h-2.5ZM3882.03,1236.79l-2.6-3.9,1.7-1.8,3.9,5.7h-3ZM3890.73,1227.89v1.9h-5.4v-1.9h5.4ZM3886.63,1225.69h2.5v8.4c0,.2,0,.4.1.5,0,.1.2.2.3.3h1.1l.4,1.8c-.1,0-.3,0-.5.1s-.5,0-.8,0c-.6,0-1.1,0-1.6-.2-.4-.2-.8-.5-1-.8-.2-.4-.4-.9-.4-1.5v-8.7l-.1.1ZM3896.33,1236.99c-.9,0-1.7-.2-2.4-.6-.7-.4-1.2-.9-1.5-1.6-.4-.7-.5-1.5-.5-2.4s.2-1.7.5-2.4c.4-.7.9-1.2,1.5-1.6s1.4-.6,2.3-.6,1.1.1,1.6.3,1,.5,1.3.8c.4.4.7.9.9,1.4.2.6.3,1.2.3,2v.7h-7.6v-1.5h5.2c0-.3,0-.7-.2-.9-.1-.3-.4-.5-.6-.6-.3-.2-.6-.2-.9-.2s-.7,0-1,.3c-.3.2-.5.4-.7.7-.2.3-.2.6-.2,1v1.5c0,.4,0,.8.2,1.2.2.3.4.6.7.8.3.2.7.3,1.1.3s.5,0,.8-.1.4-.2.6-.4c.2-.1.3-.3.4-.6h2.3c-.1.7-.4,1.2-.7,1.6-.4.4-.8.7-1.4.9-.6.2-1.2.3-1.9.3l-.1-.3ZM3908.43,1236.99c-.6,0-1.1,0-1.5-.3-.4-.2-.8-.5-1.1-.9-.2-.4-.4-.9-.4-1.5s0-.9.3-1.3c.2-.3.4-.6.8-.8.3-.2.7-.4,1.1-.5s.8-.2,1.3-.2.9-.1,1.3-.2c.3,0,.6-.1.7-.2.1,0,.2-.2.2-.4h0c0-.4-.1-.7-.4-.9-.2-.2-.6-.3-1-.3s-.8,0-1.1.3c-.3.2-.4.4-.5.7l-2.3-.2c.1-.5.3-1,.7-1.4.3-.4.8-.7,1.3-.9.5-.2,1.2-.3,1.9-.3s1,0,1.4.2c.5.1.9.3,1.2.5.4.2.6.6.9.9.2.4.3.8.3,1.4v6h-2.4v-1.2h0c-.1.3-.3.5-.6.8-.2.2-.5.4-.9.5-.3.1-.7.2-1.2.2h0ZM3909.13,1235.29c.4,0,.7,0,1-.2s.5-.4.7-.6.2-.5.2-.8v-1s-.2,0-.3.1c-.1,0-.3,0-.4.1h-1c-.3,0-.5.1-.8.2-.2,0-.4.2-.5.4-.1.2-.2.4-.2.6,0,.3.1.6.4.8.2.2.6.3.9.3v.1ZM3921.13,1232.99v-5.1h2.5v9h-2.4v-1.6h-.1c-.2.5-.5,1-1,1.3s-1,.5-1.7.5-1.1-.1-1.6-.4-.8-.7-1.1-1.2c-.2-.5-.4-1.1-.4-1.8v-5.7h2.5v5.3c0,.5.1.9.4,1.2.3.3.7.5,1.1.5s.6,0,.8-.2c.3-.1.5-.4.6-.6s.2-.6.2-1l.2-.2ZM3930.43,1227.89v1.9h-5.5v-1.9h5.5ZM3926.23,1236.79v-9.6c0-.6.1-1.2.4-1.6s.6-.8,1.1-1c.4-.2.9-.3,1.5-.3h1c.3,0,.6.1.7.2l-.4,1.9h-.8c-.4,0-.6,0-.8.2-.1.2-.2.4-.2.7v9.6h-2.5v-.1ZM3940.03,1236.79h-4.2v-11.9h4.3c1.2,0,2.2.2,3.1.7s1.5,1.2,2,2.1.7,1.9.7,3.2-.2,2.3-.7,3.2c-.5.9-1.1,1.6-2,2.1s-1.9.7-3.1.7l-.1-.1ZM3938.33,1234.69h1.6c.7,0,1.4-.1,1.9-.4s.9-.7,1.2-1.2.4-1.3.4-2.2-.1-1.6-.4-2.2-.6-1-1.2-1.2c-.5-.3-1.1-.4-1.9-.4h-1.6v7.6h0ZM3947.73,1236.79v-9h2.5v9h-2.5ZM3948.93,1226.69c-.4,0-.7-.1-.9-.4-.3-.2-.4-.6-.4-.9s.1-.6.4-.9c.3-.2.6-.4.9-.4s.7.1.9.4c.3.2.4.5.4.9s-.1.6-.4.9c-.3.2-.6.4-.9.4ZM3956.23,1240.39c-.8,0-1.5-.1-2.1-.3s-1-.5-1.4-.9c-.3-.4-.6-.8-.7-1.3l2.3-.3c0,.2.2.3.3.5.2.1.4.3.6.4.3.1.6.2.9.2.5,0,1-.1,1.3-.4.4-.3.5-.7.5-1.3v-1.6h0c-.1.2-.3.5-.5.7s-.5.4-.8.5-.8.2-1.2.2-1.3-.2-1.8-.5-1-.8-1.3-1.4-.5-1.5-.5-2.5.2-1.9.5-2.5c.3-.7.8-1.2,1.3-1.5.6-.3,1.2-.5,1.8-.5s.9,0,1.3.3c.3.2.6.4.8.6.2.2.4.5.5.7h0v-1.5h2.5v9c0,.8-.2,1.4-.6,1.9s-.9.9-1.6,1.1c-.7.3-1.4.4-2.3.4h.2ZM3956.33,1234.79c.4,0,.7-.1,1-.3.3-.2.5-.5.6-.9s.2-.8.2-1.3,0-1-.2-1.4c-.1-.4-.4-.7-.6-.9-.3-.2-.6-.3-1-.3s-.8.1-1,.3-.5.5-.6.9-.2.8-.2,1.4,0,1,.2,1.3c.2.4.4.7.6.9.3.2.6.3,1,.3ZM3962.63,1236.79v-9h2.5v9h-2.5ZM3963.83,1226.69c-.4,0-.7-.1-.9-.4-.3-.2-.4-.6-.4-.9s.1-.6.4-.9c.3-.2.6-.4.9-.4s.7.1,1,.4c.3.2.4.5.4.9s-.1.6-.4.9c-.3.2-.6.4-1,.4ZM3971.83,1227.89v1.9h-5.4v-1.9h5.4ZM3967.63,1225.69h2.5v8.4c0,.2,0,.4.1.5,0,.1.2.2.3.3h1l.4,1.8c-.1,0-.3,0-.5.1s-.5,0-.8,0c-.6,0-1.1,0-1.6-.2-.4-.2-.8-.5-1-.8-.2-.4-.4-.9-.4-1.5v-8.7.1ZM3976.03,1236.99c-.6,0-1.1,0-1.5-.3-.4-.2-.8-.5-1.1-.9-.2-.4-.4-.9-.4-1.5s0-.9.3-1.3c.2-.3.4-.6.8-.8.3-.2.7-.4,1.1-.5s.8-.2,1.3-.2.9-.1,1.3-.2c.3,0,.6-.1.7-.2.1,0,.2-.2.2-.4h0c0-.4-.1-.7-.4-.9-.2-.2-.6-.3-1-.3s-.8,0-1.1.3c-.3.2-.4.4-.5.7l-2.3-.2c.1-.5.3-1,.7-1.4.3-.4.8-.7,1.3-.9.5-.2,1.2-.3,1.9-.3s1,0,1.4.2c.5.1.9.3,1.2.5.4.2.6.6.9.9.2.4.3.8.3,1.4v6h-2.4v-1.2h0c-.1.3-.3.5-.6.8-.2.2-.5.4-.9.5-.3.1-.7.2-1.2.2h0ZM3976.73,1235.29c.4,0,.7,0,1-.2s.5-.4.7-.6.2-.5.2-.8v-1s-.2,0-.3.1c-.1,0-.3,0-.4.1h-1c-.3,0-.5.1-.8.2-.2,0-.4.2-.5.4-.1.2-.2.4-.2.6,0,.3.1.6.4.8.2.2.6.3.9.3v.1ZM3985.43,1224.89v11.9h-2.5v-11.9h2.5ZM3987.43,1236.79v-9h2.5v9h-2.5ZM3988.73,1226.69c-.4,0-.7-.1-.9-.4-.3-.2-.4-.6-.4-.9s.1-.6.4-.9c.3-.2.6-.4.9-.4s.7.1.9.4c.3.2.4.5.4.9s-.1.6-.4.9c-.3.2-.6.4-.9.4ZM3999.33,1230.39h-2.3s-.1-.2-.2-.4c-.1-.2-.3-.3-.5-.4-.2,0-.4-.1-.7-.1s-.7,0-1,.2-.4.4-.4.6,0,.4.3.5c.2.2.5.3.9.4l1.6.3c.9.2,1.5.5,1.9.9s.6.9.6,1.6-.2,1.1-.5,1.6c-.3.4-.8.8-1.4,1s-1.3.4-2.1.4c-1.2,0-2.1-.2-2.8-.7-.7-.5-1.1-1.2-1.2-2h2.4c0,.2.2.5.5.7s.6.3,1.1.3.8,0,1.1-.2c.3-.2.4-.4.4-.7s0-.4-.3-.6c-.2-.1-.5-.3-.9-.3l-1.6-.3c-.9-.2-1.5-.5-1.9-.9s-.6-1-.6-1.6.1-1.1.5-1.5c.3-.4.8-.7,1.3-1,.6-.2,1.2-.3,2-.3,1.1,0,2,.2,2.7.7s1,1.1,1.1,1.9v-.1ZM4001.13,1236.79v-9h2.5v9h-2.5ZM4002.43,1226.69c-.4,0-.7-.1-.9-.4-.3-.2-.4-.6-.4-.9s.1-.6.4-.9c.3-.2.6-.4.9-.4s.7.1.9.4c.3.2.4.5.4.9s-.1.6-.4.9c-.3.2-.6.4-.9.4ZM4009.73,1236.99c-.9,0-1.7-.2-2.4-.6-.7-.4-1.2-.9-1.5-1.6-.4-.7-.5-1.5-.5-2.4s.2-1.7.5-2.4c.4-.7.9-1.2,1.5-1.6.7-.4,1.4-.6,2.3-.6s1.1.1,1.7.3,1,.5,1.3.8c.4.4.7.9.9,1.4s.3,1.2.3,2v.7h-7.6v-1.5h5.2c0-.3,0-.7-.2-.9-.2-.3-.4-.5-.7-.6-.3-.2-.6-.2-.9-.2s-.7,0-1,.3c-.3.2-.5.4-.7.7s-.2.6-.2,1v1.5c0,.4,0,.8.2,1.2.2.3.4.6.7.8.3.2.7.3,1.1.3s.5,0,.8-.1.4-.2.6-.4c.2-.1.3-.3.4-.6h2.3c-.1.7-.4,1.2-.7,1.6-.4.4-.8.7-1.4.9-.6.2-1.2.3-1.9.3l-.1-.3ZM4015.43,1236.79v-9h2.4v1.6h0c.2-.5.4-1,.8-1.3s.8-.4,1.3-.4.3,0,.4,0h.4v2.2h-1.1c-.4,0-.7,0-1,.2-.3.1-.5.4-.7.6-.2.3-.2.6-.2,1v5.1h-2.5.2ZM4027.93,1232.99v-5.1h2.5v9h-2.4v-1.6h0c-.2.5-.5,1-1,1.3s-1,.5-1.7.5-1.1-.1-1.6-.4c-.4-.3-.8-.7-1.1-1.2-.3-.5-.4-1.1-.4-1.8v-5.7h2.5v5.3c0,.5.2.9.4,1.2.3.3.6.5,1.1.5s.6,0,.8-.2c.3-.1.5-.4.6-.6.2-.3.2-.6.2-1l.1-.2ZM4034.83,1231.59v5.2h-2.5v-9h2.4v1.6h.1c.2-.5.5-.9,1-1.2.5-.3,1-.5,1.7-.5s1.2.1,1.6.4c.5.3.8.7,1.1,1.2.2.5.4,1.1.4,1.8v5.7h-2.5v-5.3c0-.6-.1-1-.4-1.3s-.7-.5-1.2-.5-.6,0-.9.2c-.2.1-.4.4-.6.6-.1.3-.2.6-.2,1v.1ZM4046.63,1240.39c-.8,0-1.5-.1-2.1-.3-.6-.2-1-.5-1.4-.9-.3-.4-.6-.8-.7-1.3l2.3-.3c0,.2.2.3.3.5.2.1.4.3.6.4s.6.2.9.2c.5,0,1-.1,1.3-.4s.5-.7.5-1.3v-1.6h-.1c-.1.2-.3.5-.5.7s-.5.4-.8.5-.8.2-1.2.2c-.7,0-1.3-.2-1.8-.5s-1-.8-1.3-1.4-.5-1.5-.5-2.5.2-1.9.5-2.5.8-1.2,1.3-1.5,1.2-.5,1.8-.5.9,0,1.3.3c.3.2.6.4.8.6s.4.5.5.7h.1v-1.5h2.5v9c0,.8-.2,1.4-.6,1.9s-.9.9-1.6,1.1c-.6.3-1.4.4-2.3.4h.2ZM4046.63,1234.79c.4,0,.7-.1,1-.3.3-.2.5-.5.6-.9s.2-.8.2-1.3,0-1-.2-1.4c-.1-.4-.4-.7-.6-.9s-.6-.3-1-.3-.8.1-1,.3c-.3.2-.5.5-.6.9s-.2.8-.2,1.4,0,1,.2,1.3c.1.4.4.7.6.9.3.2.6.3,1,.3ZM4055.63,1235.19v.7c-.1.5-.2,1-.4,1.5-.1.5-.3,1-.4,1.4s-.3.8-.4,1h-1.6c0-.2.1-.6.2-1s.2-.9.3-1.4c0-.5.2-1,.2-1.6v-.7h2.1v.1ZM3750.13,1257.79v-11.9h4.8c.9,0,1.6.1,2.2.4s1,.6,1.3,1.1.4,1,.4,1.6,0,.9-.3,1.2c-.2.4-.4.6-.8.9-.3.2-.7.4-1.1.5h0c.4.1.9.3,1.3.5s.7.6,1,1c.2.4.4.9.4,1.5s-.1,1.2-.5,1.7c-.3.5-.8.9-1.4,1.2-.6.3-1.4.4-2.3.4h-5.1l.1-.1ZM3752.63,1255.79h2.1c.7,0,1.2-.1,1.5-.4s.5-.6.5-1.1,0-.6-.2-.9c-.2-.2-.4-.5-.7-.6-.3-.2-.6-.2-1.1-.2h-2.1v3.2h0ZM3752.63,1250.89h1.9c.3,0,.6,0,.9-.2.3-.1.5-.3.6-.5.2-.2.2-.5.2-.8,0-.4-.2-.8-.5-1.1-.3-.3-.7-.4-1.3-.4h-1.9v3h.1ZM3760.93,1257.79v-9h2.5v9h-2.5ZM3762.13,1247.69c-.4,0-.7-.1-.9-.4-.3-.2-.4-.6-.4-.9s.1-.6.4-.9c.3-.2.6-.4.9-.4s.7.1.9.4c.3.2.4.5.4.9s-.1.6-.4.9c-.3.2-.6.4-.9.4ZM3767.93,1245.89v11.9h-2.5v-11.9h2.5ZM3773.13,1257.99c-.7,0-1.3-.2-1.9-.5-.5-.4-1-.9-1.3-1.6s-.5-1.5-.5-2.5.2-1.9.5-2.6.8-1.2,1.3-1.5c.6-.4,1.2-.5,1.8-.5s.9,0,1.3.3c.3.2.6.4.8.6.2.2.4.5.5.7h0v-4.5h2.5v11.9h-2.4v-1.4h-.1c-.1.2-.3.5-.5.7s-.5.4-.8.6-.7.2-1.2.2v.1ZM3773.93,1255.99c.4,0,.7-.1,1-.3.3-.2.5-.5.6-.9.2-.4.2-.9.2-1.4s0-1-.2-1.4c-.1-.4-.4-.7-.6-.9s-.6-.3-1-.3-.8.1-1,.3-.5.5-.6.9c-.2.4-.2.9-.2,1.4s0,1,.2,1.4c.1.4.4.7.6.9.3.2.6.3,1,.3ZM3786.03,1253.99v-5.1h2.5v9h-2.4v-1.6h0c-.2.5-.5,1-1,1.3s-1,.5-1.7.5-1.1-.1-1.6-.4-.8-.7-1.1-1.2c-.2-.5-.4-1.1-.4-1.8v-5.7h2.5v5.3c0,.5.1.9.4,1.2.3.3.6.5,1.1.5s.6,0,.8-.2c.3-.1.5-.4.6-.6.2-.3.2-.6.2-1l.1-.2ZM3793.03,1252.59v5.2h-2.5v-9h2.4v1.6h.1c.2-.5.5-.9,1-1.2.5-.3,1-.5,1.7-.5s1.2.1,1.6.4c.5.3.8.7,1.1,1.2.3.5.4,1.1.4,1.8v5.7h-2.5v-5.3c0-.6-.1-1-.4-1.3s-.7-.5-1.2-.5-.6,0-.9.2c-.3.1-.4.4-.6.6-.1.3-.2.6-.2,1v.1ZM3804.73,1261.39c-.8,0-1.5-.1-2.1-.3-.6-.2-1-.5-1.4-.9-.3-.4-.6-.8-.7-1.3l2.3-.3c0,.2.2.3.3.5.1.1.3.3.6.4.2.1.6.2.9.2.5,0,1-.1,1.3-.4.4-.3.5-.7.5-1.3v-1.6h-.1c-.1.2-.3.5-.5.7s-.5.4-.8.5-.8.2-1.2.2c-.7,0-1.3-.2-1.8-.5s-1-.8-1.3-1.4-.5-1.5-.5-2.5.2-1.9.5-2.5.8-1.2,1.3-1.5,1.1-.5,1.8-.5.9,0,1.3.3c.3.2.6.4.8.6s.4.5.5.7h0v-1.5h2.5v9c0,.8-.2,1.4-.6,1.9s-.9.9-1.5,1.1c-.7.3-1.4.4-2.3.4h.2ZM3804.83,1255.79c.4,0,.7-.1,1-.3.3-.2.5-.5.6-.9s.2-.8.2-1.3,0-1-.2-1.4-.4-.7-.7-.9c-.3-.2-.6-.3-1-.3s-.8.1-1,.3c-.3.2-.5.5-.6.9s-.2.8-.2,1.4,0,1,.2,1.3c.1.4.4.7.6.9.3.2.6.3,1,.3h.1ZM3820.63,1253.99v-5.1h2.5v9h-2.4v-1.6h0c-.2.5-.5,1-1,1.3s-1,.5-1.7.5-1.1-.1-1.6-.4-.8-.7-1.1-1.2c-.2-.5-.4-1.1-.4-1.8v-5.7h2.5v5.3c0,.5.2.9.4,1.2.3.3.7.5,1.1.5s.6,0,.8-.2c.3-.1.5-.4.6-.6.2-.3.2-.6.2-1l.1-.2ZM3827.63,1252.59v5.2h-2.5v-9h2.4v1.6h0c.2-.5.5-.9,1-1.2.5-.3,1-.5,1.7-.5s1.2.1,1.6.4c.5.3.8.7,1.1,1.2.3.5.4,1.1.4,1.8v5.7h-2.5v-5.3c0-.6-.1-1-.4-1.3s-.7-.5-1.2-.5-.6,0-.9.2c-.3.1-.4.4-.6.6-.1.3-.2.6-.2,1l.1.1ZM3838.63,1257.99c-.7,0-1.3-.2-1.8-.5-.6-.4-1-.9-1.3-1.6s-.5-1.5-.5-2.5.2-1.9.5-2.6.8-1.2,1.3-1.5c.6-.4,1.2-.5,1.8-.5s.9,0,1.3.3c.3.2.6.4.8.6.2.2.4.5.5.7h0v-4.5h2.5v11.9h-2.4v-1.4h-.1c-.1.2-.3.5-.5.7s-.5.4-.8.6-.7.2-1.2.2l-.1.1ZM3839.43,1255.99c.4,0,.7-.1,1-.3.3-.2.5-.5.6-.9.2-.4.2-.9.2-1.4s0-1-.2-1.4c-.1-.4-.4-.7-.6-.9s-.6-.3-1-.3-.8.1-1,.3-.5.5-.6.9c-.2.4-.2.9-.2,1.4s0,1,.2,1.4c.1.4.4.7.6.9.3.2.6.3,1,.3ZM3849.63,1257.79v-11.9h7.9v2.1h-5.4v2.8h4.9v2.1h-4.9v4.9h-2.5ZM3862.63,1257.99c-.9,0-1.7-.2-2.3-.6-.7-.4-1.2-.9-1.5-1.6-.4-.7-.5-1.5-.5-2.4s.2-1.7.5-2.4c.4-.7.9-1.2,1.5-1.6.7-.4,1.4-.6,2.3-.6s1.7.2,2.4.6c.7.4,1.2.9,1.5,1.6.4.7.5,1.5.5,2.4s-.2,1.7-.5,2.4c-.4.7-.9,1.2-1.5,1.6-.7.4-1.4.6-2.4.6ZM3862.63,1256.09c.4,0,.8-.1,1-.4.3-.2.5-.6.6-1s.2-.9.2-1.4,0-1-.2-1.4c-.1-.4-.4-.7-.6-1-.3-.2-.6-.3-1-.3s-.8.1-1,.3c-.3.2-.5.6-.6,1s-.2.9-.2,1.4,0,1,.2,1.4c.1.4.4.7.6,1,.3.2.6.4,1,.4ZM3868.63,1257.79v-9h2.4v1.6h0c.2-.5.4-1,.8-1.3s.8-.4,1.3-.4.3,0,.4,0h.4v2.2h-1.1c-.4,0-.7,0-1,.2-.3.1-.5.4-.7.6-.2.3-.2.6-.2,1v5.1h-2.5.2ZM3880.53,1248.89v1.9h-5.4v-1.9h5.4ZM3876.43,1246.69h2.5v8.4c0,.2,0,.4.1.5,0,.1.2.2.3.3h1.1l.4,1.8c-.1,0-.3,0-.5.1h-.8c-.6,0-1.1,0-1.6-.2s-.8-.5-1-.8c-.2-.4-.4-.9-.4-1.5v-8.7l-.1.1ZM3889.53,1251.39h-2.3s-.1-.2-.2-.4c-.1-.2-.3-.3-.5-.4-.2,0-.4-.1-.7-.1s-.7,0-1,.2-.4.4-.4.6,0,.4.3.5c.2.2.5.3.9.4l1.6.3c.9.2,1.5.5,1.9.9s.6.9.6,1.6-.2,1.1-.5,1.6c-.3.4-.8.8-1.4,1s-1.3.4-2.1.4c-1.2,0-2.1-.2-2.8-.7-.7-.5-1.1-1.2-1.2-2h2.4c0,.2.2.5.5.7s.6.3,1.1.3.8,0,1.1-.2c.3-.2.4-.4.4-.7s0-.4-.3-.6c-.2-.1-.5-.3-.9-.3l-1.6-.3c-.9-.2-1.5-.5-1.9-.9s-.6-1-.6-1.6.2-1.1.5-1.5.8-.7,1.3-1c.6-.2,1.2-.3,2-.3,1.1,0,2,.2,2.7.7s1,1.1,1.2,1.9l-.1-.1ZM3895.33,1257.99c-.9,0-1.7-.2-2.4-.6-.6-.4-1.2-.9-1.5-1.6-.4-.7-.5-1.5-.5-2.4s.2-1.7.5-2.4c.4-.7.9-1.2,1.5-1.6.7-.4,1.4-.6,2.4-.6s1.5.2,2,.4c.6.3,1.1.7,1.4,1.2s.5,1.1.6,1.8h-2.3c0-.4-.2-.8-.5-1.1-.3-.3-.6-.4-1.1-.4s-.7.1-1,.3c-.3.2-.5.5-.7.9s-.2.9-.2,1.4,0,1.1.2,1.5.4.7.7.9c.3.2.6.3,1,.3s.5,0,.8-.2c.2-.1.4-.3.6-.5.1-.2.2-.5.3-.8h2.3c0,.7-.2,1.3-.6,1.8-.3.5-.8.9-1.4,1.2-.6.3-1.3.4-2.1.4v.1ZM3903.43,1252.59v5.2h-2.5v-11.9h2.4v4.6h.1c.2-.5.5-.9,1-1.2s1-.5,1.7-.5,1.2.1,1.6.4c.5.3.8.7,1.1,1.2.3.5.4,1.1.4,1.8v5.7h-2.5v-5.3c0-.6-.1-1-.4-1.3s-.7-.5-1.2-.5-.6,0-.9.2c-.2.1-.5.4-.6.6-.1.3-.2.6-.2,1h0ZM3911.13,1257.79v-9h2.4v1.6h0c.2-.5.4-1,.8-1.3s.8-.4,1.3-.4.3,0,.4,0h.4v2.2h-1.1c-.4,0-.7,0-1,.2-.3.1-.5.4-.7.6-.2.3-.2.6-.2,1v5.1h-2.5.2ZM3917.93,1257.79v-9h2.5v9h-2.5ZM3919.13,1247.69c-.4,0-.7-.1-.9-.4-.3-.2-.4-.6-.4-.9s.1-.6.4-.9c.3-.2.6-.4.9-.4s.7.1.9.4c.3.2.4.5.4.9s-.1.6-.4.9c-.3.2-.6.4-.9.4ZM3927.13,1248.89v1.9h-5.4v-1.9h5.4ZM3922.93,1246.69h2.5v8.4c0,.2,0,.4.1.5,0,.1.2.2.3.3h1l.4,1.8c-.1,0-.3,0-.5.1h-.8c-.6,0-1.1,0-1.6-.2-.4-.2-.8-.5-1-.8-.2-.4-.4-.9-.4-1.5v-8.7.1ZM3933.53,1248.89v1.9h-5.4v-1.9h5.4ZM3929.33,1246.69h2.5v8.4c0,.2,0,.4.1.5,0,.1.2.2.3.3h1.1l.4,1.8c-.1,0-.3,0-.5.1h-.8c-.6,0-1.1,0-1.6-.2-.4-.2-.8-.5-1.1-.8-.2-.4-.4-.9-.4-1.5v-8.7.1ZM3938.83,1257.79v-1.5l4.4-5.4h-4.2v-2h7.2v1.6l-4.1,5.3h4.3v2h-7.6ZM3954.03,1253.99v-5.1h2.5v9h-2.4v-1.6h0c-.2.5-.5,1-1,1.3s-1,.5-1.7.5-1.1-.1-1.6-.4-.8-.7-1.1-1.2c-.2-.5-.4-1.1-.4-1.8v-5.7h2.5v5.3c0,.5.1.9.4,1.2.3.3.6.5,1.1.5s.6,0,.8-.2c.3-.1.5-.4.6-.6.2-.3.2-.6.2-1l.1-.2ZM3752.33,1275.19v-3h.4l2.9-3.4h2.8l-3.8,4.5h-.6l-1.6,1.9h-.1ZM3750.03,1277.79v-11.9h2.5v11.9h-2.5ZM3755.63,1277.79l-2.6-3.9,1.6-1.8,3.9,5.7h-2.9ZM3763.33,1277.99c-.9,0-1.7-.2-2.4-.6-.7-.4-1.2-.9-1.5-1.6-.4-.7-.5-1.5-.5-2.4s.2-1.7.5-2.4c.4-.7.9-1.2,1.5-1.6.7-.4,1.4-.6,2.4-.6s1.7.2,2.3.6c.7.4,1.2.9,1.5,1.6.4.7.5,1.5.5,2.4s-.2,1.7-.5,2.4c-.4.7-.9,1.2-1.5,1.6s-1.4.6-2.3.6ZM3763.33,1276.09c.4,0,.8-.1,1-.4.3-.2.5-.6.6-1s.2-.9.2-1.4,0-1-.2-1.4c-.1-.4-.4-.7-.6-1-.3-.2-.6-.3-1-.3s-.8.1-1.1.3c-.3.2-.5.6-.6,1s-.2.9-.2,1.4,0,1,.2,1.4c.1.4.4.7.6,1,.3.2.6.4,1.1.4ZM3769.33,1277.79v-9h2.4v1.6h.1c.2-.5.5-.9.9-1.2.4-.3.9-.5,1.6-.5s1.1.2,1.6.5c.4.3.7.7.9,1.2h0c.2-.5.5-.9,1-1.2.5-.3,1-.5,1.7-.5s1.5.3,2,.8.8,1.3.8,2.2v6h-2.5v-5.5c0-.5-.1-.9-.4-1.1s-.6-.4-1-.4-.8.1-1.1.4c-.3.3-.4.7-.4,1.1v5.5h-2.4v-5.6c0-.4-.1-.8-.4-1.1s-.6-.4-1-.4-.5,0-.7.2c-.2.1-.4.3-.5.6-.1.2-.2.5-.2.9v5.4h-2.5l.1.1ZM3784.33,1277.79v-9h2.4v1.6h.1c.2-.5.5-.9.9-1.2.4-.3.9-.5,1.6-.5s1.1.2,1.6.5c.4.3.7.7.9,1.2h0c.2-.5.5-.9,1-1.2.5-.3,1.1-.5,1.7-.5s1.5.3,2,.8.8,1.3.8,2.2v6h-2.5v-5.5c0-.5-.1-.9-.4-1.1s-.6-.4-1-.4-.8.1-1.1.4c-.2.3-.4.7-.4,1.1v5.5h-2.4v-5.6c0-.4-.1-.8-.4-1.1s-.6-.4-1-.4-.5,0-.7.2c-.2.1-.4.3-.5.6-.1.2-.2.5-.2.9v5.4h-2.5l.1.1ZM3805.03,1273.99v-5.1h2.5v9h-2.4v-1.6h0c-.2.5-.5,1-1,1.3s-1,.5-1.7.5-1.1-.1-1.6-.4-.8-.7-1.1-1.2c-.2-.5-.4-1.1-.4-1.8v-5.7h2.5v5.3c0,.5.1.9.4,1.2.3.3.6.5,1.1.5s.6,0,.8-.2c.3-.1.5-.4.6-.6.2-.3.2-.6.2-1l.1-.2ZM3812.03,1272.59v5.2h-2.5v-9h2.4v1.6h.1c.2-.5.5-.9,1-1.2.5-.3,1-.5,1.7-.5s1.2.1,1.6.4c.5.3.8.7,1.1,1.2.3.5.4,1.1.4,1.8v5.7h-2.5v-5.3c0-.6-.1-1-.4-1.3s-.7-.5-1.2-.5-.6,0-.9.2c-.3.1-.5.4-.6.6-.1.3-.2.6-.2,1v.1ZM3819.73,1277.79v-9h2.5v9h-2.5ZM3820.93,1267.69c-.4,0-.7-.1-.9-.4-.3-.2-.4-.6-.4-.9s.1-.6.4-.9c.3-.2.6-.4.9-.4s.7.1.9.4c.3.2.4.5.4.9s-.1.6-.4.9c-.3.2-.6.4-.9.4ZM3824.13,1277.79v-1.5l4.4-5.4h-4.2v-2h7.2v1.6l-4.1,5.3h4.3v2h-7.6ZM3833.53,1277.79v-9h2.5v9h-2.5ZM3834.83,1267.69c-.4,0-.7-.1-1-.4-.3-.2-.4-.6-.4-.9s.1-.6.4-.9c.3-.2.6-.4,1-.4s.7.1.9.4c.3.2.4.5.4.9s-.1.6-.4.9c-.3.2-.6.4-.9.4ZM3842.13,1277.99c-.9,0-1.7-.2-2.4-.6-.7-.4-1.2-.9-1.5-1.6-.4-.7-.5-1.5-.5-2.4s.2-1.7.5-2.4c.4-.7.9-1.2,1.5-1.6s1.4-.6,2.3-.6,1.1.1,1.6.3,1,.5,1.3.8c.4.4.7.9.9,1.4.2.6.3,1.2.3,2v.7h-7.6v-1.5h5.2c0-.3,0-.7-.2-.9-.2-.3-.4-.5-.6-.6-.3-.2-.6-.2-.9-.2s-.7,0-1,.3c-.3.2-.5.4-.7.7-.2.3-.2.6-.2,1v1.5c0,.4,0,.8.2,1.2.2.3.4.6.7.8.3.2.7.3,1.1.3s.5,0,.8-.1.4-.2.6-.4c.2-.1.3-.3.4-.6h2.3c-.1.7-.4,1.2-.7,1.6-.4.4-.8.7-1.4.9-.6.2-1.2.3-1.9.3l-.1-.3ZM3847.83,1277.79v-9h2.4v1.6h0c.2-.5.4-1,.8-1.3s.8-.4,1.3-.4.3,0,.4,0h.4v2.2h-1.1c-.4,0-.7,0-1,.2-.3.1-.5.4-.7.6-.2.3-.2.6-.2,1v5.1h-2.5.2ZM3858.23,1277.99c-.9,0-1.7-.2-2.4-.6-.7-.4-1.2-.9-1.5-1.6-.4-.7-.5-1.5-.5-2.4s.2-1.7.5-2.4c.4-.7.9-1.2,1.5-1.6.7-.4,1.4-.6,2.3-.6s1.1.1,1.7.3c.5.2,1,.5,1.3.8.4.4.7.9.9,1.4.2.6.3,1.2.3,2v.7h-7.6v-1.5h5.2c0-.3,0-.7-.2-.9-.2-.3-.4-.5-.7-.6-.3-.2-.6-.2-.9-.2s-.7,0-1,.3c-.3.2-.5.4-.7.7-.2.3-.2.6-.3,1v1.5c0,.4,0,.8.2,1.2.2.3.4.6.7.8.3.2.7.3,1.1.3s.5,0,.8-.1.4-.2.6-.4c.2-.1.3-.3.4-.6h2.3c-.1.7-.4,1.2-.7,1.6-.3.4-.8.7-1.4.9-.6.2-1.2.3-2,.3l.1-.3ZM3866.43,1272.59v5.2h-2.5v-9h2.4v1.6h.1c.2-.5.5-.9,1-1.2.5-.3,1-.5,1.7-.5s1.2.1,1.6.4c.5.3.8.7,1.1,1.2.2.5.4,1.1.4,1.8v5.7h-2.5v-5.3c0-.6-.1-1-.4-1.3s-.7-.5-1.2-.5-.6,0-.9.2c-.2.1-.4.4-.6.6-.1.3-.2.6-.2,1v.1ZM3875.63,1277.99c-.4,0-.7-.1-1-.4s-.4-.6-.4-1,.1-.7.4-1,.6-.4,1-.4.7.1,1,.4.4.6.4,1,0,.5-.2.7c-.1.2-.3.4-.5.5s-.4.2-.7.2h0Z"/>
  </g>
</svg>