<?xml version="1.0" standalone="no"?>
<!DOCTYPE svg PUBLIC "-//W3C//DTD SVG 1.1//EN" "http://www.w3.org/Graphics/SVG/1.1/DTD/svg11.dtd" >
<svg>
<metadata>
Created by FontForge 20090622 at Thu Jul  9 10:06:38 2015
 By deploy user
&#60; info@fontfont.de &#62; Copyright eBoy: Steffen Sauerteig, Kai Vermehr, 1998. Published by FontShop International.  FontFont Release 23
</metadata>
<defs>
<font id="Typestar-Normal" horiz-adv-x="530" >
  <font-face 
    font-family="Typestar"
    font-weight="400"
    font-stretch="normal"
    units-per-em="1000"
    panose-1="2 0 6 6 2 0 0 2 0 4"
    ascent="800"
    descent="-200"
    x-height="527"
    cap-height="692"
    bbox="-131.286 -223 860 895"
    underline-thickness="20"
    underline-position="-146"
    unicode-range="U+0005-U+2122"
  />
<missing-glyph horiz-adv-x="500" 
 />
    <glyph glyph-name=".notdef" horiz-adv-x="500" 
 />
    <glyph glyph-name=".null" horiz-adv-x="0" 
 />
    <glyph glyph-name="nonmarkingreturn" horiz-adv-x="340" 
 />
    <glyph glyph-name="space" unicode=" " horiz-adv-x="340" 
 />
    <glyph glyph-name="space" unicode="&#xa0;" horiz-adv-x="340" 
 />
    <glyph glyph-name="lslash" horiz-adv-x="397" 
d="M402 36q3 -4 -2 -8q-27 -19 -55 -29t-66 -10q-21 0 -45.5 8t-45 25t-34.5 43t-14 63v183l-65 -24q-9 -3 -11.5 -1.5t-5.5 9.5l-15 41q-3 8 -1.5 11t9.5 6l89 32v267h-118q-8 0 -10.5 2t-2.5 11v44q0 9 2.5 11t10.5 2h175q8 0 10.5 -2t2.5 -11v-298l83 30q9 3 11.5 1.5
t5.5 -9.5l15 -41q3 -8 1.5 -11t-9.5 -6l-107 -39v-208q0 -20 7.5 -33t18 -21t22.5 -11.5t21 -3.5q47 0 81 27q4 3 7 -1l35 -49v0z" />
    <glyph glyph-name="Scaron" unicode="&#x160;" horiz-adv-x="547" 
d="M299 739q-11 -10 -22 0l-128 110q-4 4 -3.5 6t4.5 6l29 30q3 3 5 3.5t7 -3.5l97 -84l96 84q5 4 7 3.5t5 -3.5l29 -30q4 -4 4.5 -6t-3.5 -6zM478 197q0 -103 -51 -155.5t-150 -52.5q-51 0 -104 23.5t-97 80.5q-3 5 -3 6.5t5 5.5l42 30q8 6 14 -2q29 -38 66 -56.5t76 -17.5
q18 0 41 4t43.5 18.5t34 41.5t13.5 73q0 44 -30.5 76.5t-103.5 55.5q-25 8 -42.5 15t-31.5 14.5t-26.5 16.5l-26.5 20q-27 22 -42.5 51t-15.5 82q0 39 14.5 70.5t39.5 54t59.5 35t74.5 12.5q62 0 102.5 -22t75.5 -61q5 -6 -1 -11l-39 -34q-5 -5 -7.5 -4.5t-7.5 5.5
q-28 31 -54 44t-69 13q-57 0 -87.5 -28.5t-30.5 -73.5q0 -24 4.5 -41.5t19 -32.5t41.5 -29t72 -30q41 -15 74.5 -32.5t57.5 -40.5t37 -53.5t13 -70.5z" />
    <glyph glyph-name="scaron" unicode="&#x161;" horiz-adv-x="505" 
d="M260 577q-11 -10 -22 0l-128 110q-4 4 -3.5 6t4.5 6l29 30q3 3 5 3.5t7 -3.5l97 -84l96 84q5 4 7 3.5t5 -3.5l29 -30q4 -4 4.5 -6t-3.5 -6zM437 151q0 -75 -47 -118.5t-139 -43.5q-32 0 -63.5 8.5t-58 25.5t-46 43.5t-28.5 61.5q-3 8 7 11l43 13q5 2 8.5 2.5t5.5 -6.5
q13 -43 51 -65.5t81 -22.5q26 0 47.5 4t37 14.5t24 28t8.5 45.5q0 25 -9 40t-22.5 24t-28.5 12.5t-28 5.5l-30.5 5t-38 6.5t-37 8t-27.5 9.5q-45 21 -59.5 53t-13.5 74q1 67 46 105t131 38q54 0 97.5 -22.5t73.5 -64.5q5 -6 -1 -11l-39 -34q-9 -8 -15 1q-17 25 -45.5 42.5
t-70.5 17.5q-49 0 -78 -15.5t-29 -59.5q0 -27 9.5 -41.5t29.5 -22t51 -11.5t73 -10q63 -8 96.5 -49t33.5 -102z" />
    <glyph glyph-name="Yacute" unicode="&#xdd;" horiz-adv-x="499" 
d="M425 823q3 -7 2.5 -9.5t-6.5 -4.5l-187 -72q-8 -3 -10.5 -2t-4.5 8l-15 34q-4 8 -3 10t9 7l175 91q8 5 11 3.5t6 -9.5l23 -56v0zM296 349v-336q0 -9 -2.5 -11t-10.5 -2h-44q-8 0 -10.5 2t-2.5 11v336l-157 331q-5 12 9 12h50q10 0 12 -1.5t6 -9.5l101 -216q7 -15 9.5 -27
t4.5 -26q2 14 4.5 26t9.5 27l101 216q4 8 6 9.5t12 1.5h50q14 0 9 -12z" />
    <glyph glyph-name="yacute" unicode="&#xfd;" horiz-adv-x="447" 
d="M409 667q3 -7 2.5 -9.5t-6.5 -4.5l-187 -72q-8 -3 -10.5 -2t-4.5 8l-15 34q-4 8 -3 10t9 7l175 91q8 5 11 3.5t6 -9.5l23 -56v0zM298 85q-5 -16 -11.5 -43t-14.5 -56.5l-16 -56.5t-15 -43q-14 -32 -35 -51t-46 -29.5t-51.5 -14t-50.5 -3.5q-45 0 -86 13t-76 36
q-6 5 -5.5 7t3.5 7l31 44q3 5 4.5 4.5t6.5 -3.5q32 -23 65.5 -30.5t56.5 -7.5q21 0 38 1.5t31.5 7t26.5 16.5t22 30q4 9 7.5 21l9 30t12.5 44l18 64h-51q-8 0 -10 1t-4 9l-130 433q-3 9 -1 10.5t11 1.5h50q7 0 9 -1.5t4 -9.5l126 -424l114 424q2 8 4 9.5t9 1.5h50
q9 0 10.5 -1.5t-0.5 -10.5z" />
    <glyph glyph-name="Thorn" unicode="&#xde;" 
d="M471 275q0 -53 -13.5 -90.5t-38.5 -60.5t-60 -34t-78 -11q-27 0 -59.5 8.5t-58.5 37.5v-112q0 -9 -2.5 -11t-10.5 -2h-44q-8 0 -10.5 2t-2.5 10v577q0 8 2.5 10t10.5 2h45q8 0 10.5 -2t2.5 -11v-117q21 32 51.5 47.5t65.5 15.5q43 0 78 -11t60 -34.5t38.5 -60.5t13.5 -91
v-62v0zM402 337q0 73 -31.5 100.5t-89.5 27.5q-19 0 -39.5 -9t-38 -27t-28.5 -46t-11 -65v-48q0 -52 26 -86.5t91 -34.5q60 0 90.5 26.5t30.5 99.5v62z" />
    <glyph glyph-name="thorn" unicode="&#xfe;" 
d="M471 185q0 -53 -13.5 -90.5t-38.5 -60.5t-60 -34t-78 -11q-27 0 -59.5 8.5t-58.5 37.5v-235q0 -12 -9 -12h-51q-5 0 -7.5 2t-2.5 10v880q0 8 2.5 10t10.5 2h44q8 0 10.5 -2t2.5 -11l1 -208q21 32 51.5 47.5t65.5 15.5q43 0 78 -11t60 -34.5t38.5 -60.5t13.5 -91v-152v0z
M402 337q0 73 -31.5 100.5t-89.5 27.5q-19 0 -39.5 -9t-38 -27t-28.5 -46t-11 -65v-138q0 -52 26 -86.5t91 -34.5q60 0 90.5 26.5t30.5 99.5v152z" />
    <glyph glyph-name="Zcaron" horiz-adv-x="562" 
d="M309 739q-11 -10 -22 0l-128 110q-4 4 -3.5 6t4.5 6l29 30q3 3 5 3.5t7 -3.5l97 -84l96 84q5 4 7 3.5t5 -3.5l29 -30q4 -4 4.5 -6t-3.5 -6zM495 13q0 -9 -2.5 -11t-10.5 -2h-383q-8 0 -10.5 2t-2.5 11v55l312 554h-279q-8 0 -10.5 2t-2.5 11v44q0 9 2.5 11t10.5 2h347
q8 0 10.5 -2t2.5 -11v-53l-313 -557h316q8 0 10.5 -2t2.5 -11v-43v0z" />
    <glyph glyph-name="zcaron" horiz-adv-x="468" 
d="M260 577q-11 -10 -22 0l-128 110q-4 4 -3.5 6t4.5 6l29 30q3 3 5 3.5t7 -3.5l97 -84l96 84q5 4 7 3.5t5 -3.5l29 -30q4 -4 4.5 -6t-3.5 -6zM410 13q0 -9 -2.5 -11t-10.5 -2h-309q-8 0 -10.5 2t-2.5 11v44l225 400h-196q-9 0 -11 2.5t-2 10.5v44q0 8 2 10.5t11 2.5h277
q8 0 10.5 -2t2.5 -11v-34l-232 -410h235q8 0 10.5 -2t2.5 -11v-44v0z" />
    <glyph glyph-name="onehalf" unicode="&#xbd;" horiz-adv-x="1000" 
d="M511 297q0 -37 -16.5 -60.5t-47.5 -46.5q-33 -24 -51.5 -41t-27.5 -31.5t-11 -28t-2 -30.5h147q5 0 6 -1t1 -6v-46q0 -7 -7 -7h-200q-7 0 -7 7v63q0 32 10 56.5t26.5 44t37.5 36l43 32.5q26 19 32.5 32t6.5 27q0 21 -13.5 33.5t-42.5 12.5q-19 0 -32 -7t-27 -23l-4 -4h-1
t-2 1l-38 38q-2 4 1 7q26 29 51 38.5t52 9.5q51 0 83.5 -30.5t32.5 -75.5zM161 10q-4 -8 -7 -9t-9 -1h-40q-8 0 -9.5 2t1.5 8l194 671q3 6 6 8.5t13 2.5h34q16 0 9 -12zM138 275q0 -7 -8 -7h-44q-8 0 -8 7v316l-64 -38h-4q-1 2 -1 4v55q0 6 4 9l80 47h38q5 0 6 -1t1 -6v-386
v0z" />
    <glyph glyph-name="onequarter" unicode="&#xbc;" horiz-adv-x="1000" 
d="M513 147q0 -9 -2.5 -11t-10.5 -2h-30v-121q0 -9 -2.5 -11t-10.5 -2h-34q-8 0 -10.5 2t-2.5 11v121h-125q-9 0 -11.5 2t-2.5 11v47l60 200q2 5 3 5.5t6 0.5h50q4 0 4.5 -1t-1.5 -8l-59 -198h76v93q0 10 2.5 12t10.5 2h34q8 0 10.5 -2t2.5 -11v-94h30q8 0 10.5 -2t2.5 -11
v-33v0zM161 10q-4 -8 -7 -9t-9 -1h-40q-8 0 -9.5 2t1.5 8l194 671q3 6 6 8.5t13 2.5h34q16 0 9 -12zM138 275q0 -7 -8 -7h-44q-8 0 -8 7v316l-64 -38h-4q-1 2 -1 4v55q0 6 4 9l80 47h38q5 0 6 -1t1 -6v-386v0z" />
    <glyph glyph-name="onesuperior" unicode="&#xb9;" horiz-adv-x="1000" 
d="M180 275q0 -7 -8 -7h-44q-8 0 -8 7v316l-64 -38h-4q-1 2 -1 4v55q0 6 4 9l80 47h38q5 0 6 -1t1 -6v-386v0z" />
    <glyph glyph-name="threequarters" unicode="&#xbe;" horiz-adv-x="1000" 
d="M541 147q0 -9 -2.5 -11t-10.5 -2h-30v-121q0 -9 -2.5 -11t-10.5 -2h-34q-8 0 -10.5 2t-2.5 11v121h-125q-9 0 -11.5 2t-2.5 11v47l60 200q2 5 3 5.5t6 0.5h50q4 0 4.5 -1t-1.5 -8l-59 -198h76v93q0 10 2.5 12t10.5 2h34q8 0 10.5 -2t2.5 -11v-94h30q8 0 10.5 -2t2.5 -11
v-33v0zM206 10q-4 -8 -7 -9t-9 -1h-40q-8 0 -9.5 2t1.5 8l194 671q3 6 6 8.5t13 2.5h34q16 0 9 -12zM216 394q0 -35 -10 -59.5t-28 -40t-42.5 -23t-52.5 -7.5q-23 0 -50 7.5t-50 23.5q-6 3 -2 8l28 41q2 4 6 1q12 -8 30.5 -14.5t37.5 -6.5q42 0 57.5 16t15.5 54q0 7 -2.5 17
t-10 18.5t-22.5 14.5t-39 6h-20q-7 0 -7 8v45q0 8 7 8h17q40 0 54 16t14 35q0 27 -16 39.5t-39 12.5q-16 0 -29.5 -5.5t-33.5 -27.5q-3 -3 -5 0l-38 37q-3 2 1 6q26 29 52.5 39.5t52.5 10.5q51 0 83 -30t32 -82q0 -29 -9 -49t-31 -31q25 -11 37 -36.5t12 -51.5z" />
    <glyph glyph-name="threesuperior" unicode="&#xb3;" horiz-adv-x="1000" 
d="M250 394q0 -35 -10 -59.5t-28 -40t-42.5 -23t-52.5 -7.5q-23 0 -50 7.5t-50 23.5q-6 3 -2 8l28 41q2 4 6 1q12 -8 30.5 -14.5t37.5 -6.5q42 0 57.5 16t15.5 54q0 7 -2.5 17t-10 18.5t-22.5 14.5t-39 6h-20q-7 0 -7 8v45q0 8 7 8h17q40 0 54 16t14 35q0 27 -16 39.5
t-39 12.5q-16 0 -29.5 -5.5t-33.5 -27.5q-3 -3 -5 0l-38 37q-3 2 1 6q26 29 52.5 39.5t52.5 10.5q51 0 83 -30t32 -82q0 -29 -9 -49t-31 -31q25 -11 37 -36.5t12 -51.5z" />
    <glyph glyph-name="twosuperior" unicode="&#xb2;" horiz-adv-x="1000" 
d="M247 567q0 -37 -16.5 -60.5t-47.5 -46.5q-33 -24 -51.5 -41t-27.5 -31.5t-11 -28t-2 -30.5h147q5 0 6 -1t1 -6v-46q0 -7 -7 -7h-200q-7 0 -7 7v63q0 32 10 56.5t26.5 44t37.5 36l43 32.5q26 19 32.5 32t6.5 27q0 21 -13.5 33.5t-42.5 12.5q-19 0 -32 -7t-27 -23l-4 -4h-1
t-2 1l-38 38q-2 4 1 7q26 29 51 38.5t52 9.5q51 0 83.5 -30.5t32.5 -75.5z" />
    <glyph glyph-name="brokenbar" unicode="&#xa6;" horiz-adv-x="261" 
d="M166 488q0 -9 -2.5 -11t-10.5 -2h-44q-8 0 -10.5 2t-2.5 11v233q0 9 2.5 11t10.5 2h44q8 0 10.5 -2t2.5 -11v-233v0zM166 14q0 -9 -2.5 -11t-10.5 -2h-44q-8 0 -10.5 2t-2.5 11v233q0 9 2.5 11t10.5 2h44q8 0 10.5 -2t2.5 -11v-233v0z" />
    <glyph glyph-name="minus" unicode="&#xad;" horiz-adv-x="534" 
d="M403 328q0 -8 -2 -10.5t-11 -2.5h-258q-9 0 -11 2.5t-2 10.5v44q0 8 2 10.5t11 2.5h258q9 0 11 -2.5t2 -10.5v-44v0z" />
    <glyph glyph-name="multiply" unicode="&#xd7;" 
d="M423 172q-6 -6 -8.5 -6t-9.5 6l-129 128l-128 -128q-6 -6 -9 -6t-9 6l-31 31q-6 6 -6.5 9t6.5 10l128 128l-127 127q-7 7 -6.5 9.5t6.5 8.5l31 31q6 6 8.5 6.5t9.5 -6.5l127 -127l128 128q7 7 10 6.5t9 -6.5l31 -31q6 -6 6 -9t-6 -9l-128 -128l128 -129q6 -7 6 -9.5
t-6 -8.5z" />
    <glyph glyph-name="Lslash" horiz-adv-x="457" 
d="M424 13q0 -9 -2 -11t-10 -2h-332v311l-65 -24q-9 -3 -11.5 -1.5t-5.5 9.5l-15 41q-3 8 -1.5 11t9.5 6l89 32v294q0 9 2.5 11t10.5 2h44q8 0 10.5 -2t2.5 -11v-268l83 30q9 3 11.5 1.5t5.5 -9.5l15 -41q3 -8 1.5 -11t-9.5 -6l-107 -39v-266h257q11 0 14 -2t3 -11v-44v0z
" />
    <glyph glyph-name="exclam" unicode="!" horiz-adv-x="311" 
d="M186 251q0 -9 -3 -11t-11 -2h-35q-8 0 -11 2t-4 11l-18 428q-1 9 2 11t11 2h73q8 0 10.5 -2t2.5 -11zM232 66q0 -32 -22.5 -54.5t-54.5 -22.5t-54.5 22.5t-22.5 54.5t22.5 54.5t54.5 22.5t54.5 -22.5t22.5 -54.5z" />
    <glyph glyph-name="quotedbl" unicode="&#x22;" horiz-adv-x="457" 
d="M359 457q-1 -9 -3.5 -11t-10.5 -2h-35q-8 0 -11 2t-4 11l-18 280q-1 9 2 11t11 2h73q8 0 11 -2t2 -11zM168 457q-1 -9 -3.5 -11t-10.5 -2h-35q-8 0 -11 2t-4 11l-18 280q-1 9 2 11t11 2h73q8 0 11 -2t2 -11z" />
    <glyph glyph-name="numbersign" unicode="#" 
d="M507 413q-2 -7 -3.5 -8t-6.5 -1h-87l-17 -92h85q8 0 9 -1.5t0 -5.5l-11 -57q-2 -7 -3.5 -8t-6.5 -1h-87l-43 -229q-2 -8 -4 -9t-8 -1h-51q-5 0 -8 1.5t-1 9.5l43 228h-126l-44 -229q-2 -8 -4 -9t-8 -1h-50q-5 0 -8 1.5t-1 9.5l43 228h-87q-4 0 -6 1t0 8l10 55q1 9 8 9h89
l16 92h-86q-4 0 -6 1t0 8l11 57q1 7 9 7h87l35 185q1 7 9 7h58q7 0 6 -7l-36 -185h126l35 185q1 7 9 7h59q6 0 6 -8l-37 -184h85q8 0 9 -1.5t0 -5.5zM212 404l-17 -92h126l17 92h-126z" />
    <glyph glyph-name="dollar" unicode="$" 
d="M478 197q0 -189 -169 -206v-72q0 -9 -2.5 -11t-10.5 -2h-44q-8 0 -10.5 2t-2.5 11v73q-43 7 -85.5 31t-77.5 70q-3 5 -3 6.5t5 5.5l42 30q8 6 14 -2q44 -58 104 -70v259q-37 14 -65 29t-46.5 35t-28 47t-9.5 66q0 34 11 62.5t31 50t47.5 36t60.5 20.5v68q0 9 2.5 11
t10.5 2h44q8 0 10.5 -2t2.5 -11v-67q48 -5 81.5 -26t64.5 -55q5 -6 -1 -11l-39 -34q-5 -5 -7.5 -4.5t-7.5 5.5q-22 24 -42.5 37.5t-48.5 18.5v-231q30 -11 60 -23.5t54.5 -31.5t39.5 -47t15 -70zM238 596q-39 -9 -59 -35t-20 -62q0 -20 3.5 -34.5t12 -26t24 -21.5t39.5 -20
v199zM408 197q0 21 -4.5 33.5t-13.5 21.5q-5 5 -8.5 9t-11 8.5t-22 9.5l-39.5 13v-235q18 5 35.5 13.5t31.5 24.5t23 40.5t9 61.5z" />
    <glyph glyph-name="percent" unicode="%" 
d="M255 481q0 -29 -6 -53t-20 -42t-37 -28t-56 -10q-34 0 -57 10t-37 28t-20 42t-6 53v62q0 28 6 52.5t20 42.5t37 28t57 10q33 0 56 -10t37 -28t20 -42.5t6 -52.5v-62v0zM137 10q-4 -8 -7 -9t-9 -1h-56q-8 0 -9.5 2t1.5 8l335 650q3 6 6 8.5t13 2.5h50q16 0 9 -12zM517 123
q0 -29 -6 -53t-20 -42t-37 -28t-56 -10q-34 0 -57 10t-37 28t-20 42t-6 53v62q0 28 6 52.5t20 42.5t37 28t57 10q33 0 56 -10t37 -28t20 -42.5t6 -52.5v-62v0zM186 543q0 11 -0.5 22.5t-5 20.5t-15 14.5t-29.5 5.5q-20 0 -30 -5.5t-15 -14.5t-5.5 -20.5t-0.5 -22.5v-62
q0 -11 1 -22.5t6 -20.5t15.5 -14.5t28.5 -5.5t28 5.5t15 14.5t6 20.5t1 22.5v62zM448 185q0 11 -0.5 22.5t-5 20.5t-15 14.5t-29.5 5.5q-20 0 -30 -5.5t-15 -14.5t-5.5 -20.5t-0.5 -22.5v-62q0 -11 1 -22.5t6 -20.5t15.5 -14.5t28.5 -5.5t28 5.5t15 14.5t6 20.5t1 22.5v62z
" />
    <glyph glyph-name="ampersand" unicode="&#x26;" horiz-adv-x="614" 
d="M571 7q5 -7 -5 -7h-69q-5 0 -8 1t-7 6l-37 45q-24 -18 -44 -29.5t-40.5 -18t-44.5 -8.5t-57 -2q-43 0 -78 15t-59.5 41t-37.5 61t-13 76q0 28 4 55t15 51t30.5 45t50.5 38q-19 24 -32.5 44t-22.5 38.5t-13 37t-4 39.5q0 41 13.5 71.5t36 51t51.5 31t59 10.5
q31 0 60.5 -10.5t52 -31t36 -51.5t13.5 -71q0 -29 -7 -55t-23.5 -48.5t-43 -42.5t-66.5 -38l164 -192q17 35 15.5 71t-8.5 64q-2 8 3 10l53 20q5 2 6 0.5t2 -4.5q17 -55 13 -112t-35 -108l77 -93v0zM351 535q0 25 -8 42.5t-21 29t-29.5 17t-33.5 5.5t-33 -5.5t-28.5 -17
t-20.5 -29t-8 -42.5q0 -19 5 -34.5t14.5 -30.5t22.5 -30.5l29 -33.5q34 16 55.5 31t34 30.5t17 32t4.5 35.5zM215 320q-43 -21 -59.5 -51.5t-16.5 -81.5q0 -21 6.5 -42.5t21 -39.5t37.5 -29.5t55 -11.5h32t34.5 3.5t36 12t37.5 24.5z" />
    <glyph glyph-name="quotesingle" unicode="'" horiz-adv-x="270" 
d="M163 457q-1 -9 -3.5 -11t-10.5 -2h-35q-8 0 -11 2t-4 11l-18 280q-1 9 2 11t11 2h73q8 0 11 -2t2 -11z" />
    <glyph glyph-name="parenleft" unicode="(" horiz-adv-x="270" 
d="M223 -157q-3 -4 -7 -2q-54 28 -83.5 72t-43.5 96t-16.5 107.5t-2.5 107.5v183q0 54 2.5 110.5t16.5 109t43.5 96t83.5 72.5q4 2 7 -2l29 -53q2 -4 -3 -7q-30 -16 -51 -39.5t-33.5 -61t-18.5 -92.5t-6 -133v-183q0 -77 6 -130.5t18.5 -90.5t33.5 -60.5t51 -39.5q5 -3 3 -7
z" />
    <glyph glyph-name="parenright" unicode=")" horiz-adv-x="270" 
d="M243 224q0 -52 -2.5 -107.5t-16.5 -107.5t-43.5 -96t-83.5 -72q-4 -2 -7 2l-29 53q-2 4 3 7q30 16 51 39.5t33.5 60.5t18.5 90.5t6 130.5v183q0 78 -6 133t-18.5 92.5t-33.5 61t-51 39.5q-5 3 -3 7l29 53q3 4 7 2q54 -29 83.5 -72.5t43.5 -96t16.5 -109t2.5 -110.5v-183
v0z" />
    <glyph glyph-name="asterisk" unicode="*" horiz-adv-x="431" 
d="M366 636q2 -8 0.5 -9.5t-7.5 -3.5l-111 -30l72 -91q5 -7 4.5 -9t-5.5 -6l-28 -20q-5 -5 -7.5 -4.5t-7.5 5.5l-69 91l-69 -91q-5 -5 -7 -5.5t-9 4.5l-27 20q-5 4 -5.5 6t4.5 9l71 91l-110 30q-7 2 -8.5 3.5t0.5 9.5l8 32q2 6 4 7.5t9 -0.5l111 -30v116q0 7 2 8.5t9 1.5h34
q7 0 8.5 -1.5t1.5 -8.5v-116l111 30q8 2 9.5 0.5t3.5 -7.5l8 -32v0z" />
    <glyph glyph-name="plus" unicode="+" 
d="M497 328q0 -8 -2 -10.5t-11 -2.5h-181v-182q0 -9 -2.5 -11t-10.5 -2h-44q-8 0 -10.5 2t-2.5 11v182h-181q-9 0 -11 2.5t-2 10.5v44q0 8 2 10.5t11 2.5h181v180q0 9 2.5 11t10.5 2h44q8 0 10.5 -2t2.5 -11v-180h181q9 0 11 -2.5t2 -10.5v-44v0z" />
    <glyph glyph-name="comma" unicode="," horiz-adv-x="270" 
d="M214 58q0 -47 -25.5 -90t-92.5 -83q-7 -4 -9.5 -4t-8.5 7l-13 16q-5 5 -5 8t5 8q26 22 36.5 36t18.5 37q-10 0 -21 5.5t-20 15t-14.5 23t-5.5 29.5q0 32 22.5 54.5t54.5 22.5t55 -24.5t23 -60.5z" />
    <glyph glyph-name="hyphen" unicode="-" horiz-adv-x="427" 
d="M352 328q0 -8 -2 -10.5t-11 -2.5h-258q-9 0 -11 2.5t-2 10.5v44q0 8 2 10.5t11 2.5h258q9 0 11 -2.5t2 -10.5v-44v0z" />
    <glyph glyph-name="period" unicode="." horiz-adv-x="270" 
d="M213 66q0 -32 -22.5 -54.5t-54.5 -22.5t-54.5 22.5t-22.5 54.5t22.5 54.5t54.5 22.5t54.5 -22.5t22.5 -54.5z" />
    <glyph glyph-name="slash" unicode="/" horiz-adv-x="319" 
d="M100 10q-4 -8 -7 -9t-9 -1h-49q-8 0 -9.5 2t1.5 8l194 671q3 6 6 8.5t13 2.5h43q16 0 9 -12z" />
    <glyph glyph-name="zero" unicode="0" horiz-adv-x="531" 
d="M466 174q0 -88 -54 -136.5t-145 -48.5q-92 0 -146 48.5t-54 136.5v314q0 90 54 139t146 49q91 0 145 -49t54 -139v-314v0zM396 477q0 42 -13.5 67t-33.5 39t-42.5 18.5t-39.5 4.5q-18 0 -40.5 -4.5t-42.5 -18.5t-33.5 -39t-13.5 -67v-289q0 -42 13.5 -67t33.5 -39
t42.5 -18.5t40.5 -4.5q17 0 39.5 4.5t42.5 18.5t33.5 39t13.5 67v289z" />
    <glyph glyph-name="one" unicode="1" 
d="M451 13q0 -9 -2.5 -11t-10.5 -2h-338q-8 0 -10.5 2t-2.5 11v44q0 9 2.5 11t10.5 2h134v519l-128 -76q-3 -2 -7 0q-3 2 -3 6v57q0 12 8 17l128 76h59q8 0 10.5 -2t2.5 -11v-586h134q8 0 10.5 -2t2.5 -11v-44v0z" />
    <glyph glyph-name="two" unicode="2" 
d="M443 13q0 -9 -2.5 -11t-10.5 -2h-334q-8 0 -10.5 2t-2.5 11q0 39 1 70.5t5.5 58.5t13.5 51t26 48.5t42.5 50.5t62.5 57q30 25 55 42.5t42.5 34.5t27 36.5t9.5 49.5q-1 45 -30 69.5t-81 24.5q-35 0 -63 -15.5t-54 -43.5q-2 -3 -6 -3q-2 0 -4 2l-40 40q-6 4 0 11
q43 47 84 63t83 16q36 0 69 -11.5t58 -33t40 -51.5t15 -67q0 -29 -5.5 -52t-18 -42.5t-32.5 -38.5t-49 -41l-60.5 -45.5t-72.5 -70.5q-12 -14 -21 -29t-14.5 -33t-8.5 -40.5t-3 -51.5h276q8 0 10.5 -2t2.5 -11v-43v0z" />
    <glyph glyph-name="three" unicode="3" 
d="M445 189q0 -54 -16.5 -92t-45 -62t-66 -35t-79.5 -11q-45 0 -86 13t-76 36q-6 5 -5.5 7t3.5 7l31 44q3 5 4.5 4.5t6.5 -3.5q32 -23 65.5 -30.5t56.5 -7.5q21 0 45 5t44.5 19.5t34 39.5t13.5 66q0 21 -7 43t-23.5 40.5t-44 30.5t-69.5 12h-29q-8 0 -10.5 2t-2.5 11v44
q0 9 2.5 11t10.5 2h29q38 0 63 11t39.5 27.5t20 37t5.5 40.5q0 45 -28.5 72.5t-76.5 27.5q-21 0 -37 -4t-28.5 -11.5t-24 -18.5t-24.5 -25q-2 -3 -6 -3q-2 0 -4 2l-40 40q-6 4 0 11q38 44 81.5 61.5t82.5 17.5q38 0 70 -12t55.5 -34t36.5 -53t13 -70q0 -16 -3 -37t-12.5 -43
t-27 -41.5t-47.5 -32.5q55 -18 80.5 -61.5t25.5 -97.5z" />
    <glyph glyph-name="four" unicode="4" 
d="M460 226q0 -9 -2.5 -11t-10.5 -2h-61v-200q0 -9 -2.5 -11t-10.5 -2h-44q-8 0 -10.5 2t-2.5 11v200h-239q-9 0 -11.5 2t-2.5 11v57l116 380q2 5 3 5.5t6 0.5h60q4 0 4.5 -1t-1.5 -8l-115 -378h180v231q0 10 2.5 12t10.5 2h44q8 0 10.5 -2t2.5 -11v-232h61q8 0 10.5 -2
t2.5 -11v-43v0z" />
    <glyph glyph-name="five" unicode="5" 
d="M450 221q0 -68 -16.5 -112.5t-45 -71t-66.5 -37.5t-82 -11t-78 13t-69 36q-6 5 -5.5 7t3.5 7l31 44q3 5 4.5 4.5t6.5 -3.5q32 -23 57.5 -30.5t49.5 -7.5q21 0 45.5 4t45.5 20.5t35 49t14 88.5q0 73 -27.5 103.5t-99.5 30.5q-16 0 -27.5 -3t-21 -8t-18.5 -13.5l-19 -18.5
q-6 -8 -15 -4l-45 19q-5 2 -6 4t0 8l42 318q1 8 4 10t10 2h241q8 0 10.5 -2t2.5 -11v-44q0 -9 -2.5 -11t-10.5 -2h-192l-28 -199q19 13 36.5 19t38.5 6q32 0 66.5 -6.5t63.5 -28t48 -62t19 -107.5z" />
    <glyph glyph-name="six" unicode="6" 
d="M464 226q0 -43 -7 -85.5t-30 -77.5q-24 -37 -62.5 -56t-95.5 -19q-61 0 -99 21t-59 51t-28.5 64.5t-7.5 61.5v202v51t4 62t14 63t30.5 55.5t53.5 40t83 15.5q44 0 78 -13t69 -36q6 -5 5.5 -7t-3.5 -7l-31 -44q-3 -5 -4.5 -4.5t-6.5 3.5q-32 23 -57.5 30.5t-49.5 7.5
q-46 0 -70 -20.5t-34 -54t-10.5 -75.5t-0.5 -85q17 24 45 39.5t79 15.5q38 0 73 -12t62 -37t43.5 -62t16.5 -88zM394 226q0 26 -7.5 49.5t-23 41t-39 28t-55.5 10.5q-64 0 -94.5 -37t-30.5 -92q0 -90 29 -129t96 -39t96 39t29 129z" />
    <glyph glyph-name="seven" unicode="7" 
d="M202 -6q-1 -3 -5 -2l-60 17q-4 1 -3 4l214 586h-241q-8 0 -10.5 2t-2.5 11v44q0 9 2.5 11t10.5 2h309q8 0 10.5 -2t2.5 -11v-45z" />
    <glyph glyph-name="eight" unicode="8" 
d="M479 187q0 -27 -7.5 -61.5t-28.5 -64.5t-59 -51t-99 -21t-99 21t-59 51.5t-28.5 65t-7.5 60.5q1 57 23 104t70 72q-38 27 -54.5 63t-16.5 77q0 75 42 122t130 47t130 -47t42 -122q0 -41 -17 -77t-54 -63q48 -25 70.5 -72t22.5 -104zM387 503q0 22 -4.5 40t-16.5 31
t-31.5 20.5t-49.5 7.5t-49.5 -7.5t-31.5 -20.5t-16.5 -31t-4.5 -40q0 -18 5 -37.5t16.5 -36.5t31 -28t49.5 -11t49.5 11t31 28t16.5 36.5t5 37.5zM408 187q0 60 -29.5 96.5t-93.5 36.5t-93.5 -36.5t-29.5 -96.5q0 -57 28 -92.5t95 -35.5t95 35.5t28 92.5z" />
    <glyph glyph-name="nine" unicode="9" 
d="M459 277v-51.5t-4 -61.5t-14 -63t-30.5 -55.5t-53.5 -40t-83 -15.5q-44 0 -78 13t-69 36q-6 5 -5.5 7t3.5 7l31 44q3 5 4.5 4.5t6.5 -3.5q32 -23 57.5 -30.5t49.5 -7.5q46 0 70 20.5t34 54t10.5 75.5t0.5 85q-17 -24 -45 -39.5t-79 -15.5q-38 0 -73 12t-62 37t-43.5 62
t-16.5 88q0 43 7 85.5t30 77.5q24 37 62.5 56t95.5 19q61 0 99 -21t59 -51t28.5 -64.5t7.5 -61.5v-202v0zM390 439q0 90 -29 129t-96 39t-96 -39t-29 -129q0 -26 7.5 -49.5t23 -41t39 -28t55.5 -10.5q64 0 94.5 37t30.5 92z" />
    <glyph glyph-name="colon" unicode=":" horiz-adv-x="270" 
d="M213 433q0 -32 -22.5 -54.5t-54.5 -22.5t-54.5 22.5t-22.5 54.5t22.5 54.5t54.5 22.5t54.5 -22.5t22.5 -54.5zM213 66q0 -32 -22.5 -54.5t-54.5 -22.5t-54.5 22.5t-22.5 54.5t22.5 54.5t54.5 22.5t54.5 -22.5t22.5 -54.5z" />
    <glyph glyph-name="semicolon" unicode=";" horiz-adv-x="270" 
d="M213 433q0 -32 -22.5 -54.5t-54.5 -22.5t-54.5 22.5t-22.5 54.5t22.5 54.5t54.5 22.5t54.5 -22.5t22.5 -54.5zM214 58q0 -47 -25.5 -90t-92.5 -83q-7 -4 -9.5 -4t-8.5 7l-13 16q-5 5 -5 8t5 8q26 22 36.5 36t18.5 37q-10 0 -21 5.5t-20 15t-14.5 23t-5.5 29.5
q0 32 22.5 54.5t54.5 22.5t55 -24.5t23 -60.5z" />
    <glyph glyph-name="less" unicode="&#x3c;" 
d="M475 81q0 -8 -1 -9.5t-8 1.5l-417 195q-8 4 -8 15v46q0 9 8 13l417 195q7 3 8 1.5t1 -9.5v-50q0 -8 -1.5 -10t-6.5 -4l-347 -159l347 -161q5 -2 6.5 -4t1.5 -10v-50v0z" />
    <glyph glyph-name="equal" unicode="=" 
d="M467 413q0 -8 -2 -10.5t-11 -2.5h-354q-9 0 -11 2.5t-2 10.5v44q0 8 2 10.5t11 2.5h354q9 0 11 -2.5t2 -10.5v-44v0zM468 243q0 -8 -2 -10.5t-11 -2.5h-354q-9 0 -11 2.5t-2 10.5v44q0 8 2 10.5t11 2.5h354q9 0 11 -2.5t2 -10.5v-44v0z" />
    <glyph glyph-name="greater" unicode="&#x3e;" 
d="M475 284q0 -11 -8 -15l-417 -195q-7 -3 -8 -1.5t-1 9.5v50q0 8 1.5 10t6.5 4l347 161l-347 159q-5 2 -6.5 4t-1.5 10v50q0 8 1 9.5t8 -1.5l417 -195q8 -4 8 -13v-46v0z" />
    <glyph glyph-name="question" unicode="?" horiz-adv-x="471" 
d="M403 529q0 -36 -11 -68t-33 -56.5t-53.5 -40.5t-73.5 -20v-92q0 -9 -2.5 -11t-10.5 -2h-43q-8 0 -10.5 2t-2.5 11v148q0 9 2.5 11t10.5 2h29q38 0 63 11t39.5 27.5t20 37t5.5 40.5q0 45 -28.5 72.5t-76.5 27.5q-21 0 -37 -4t-28.5 -11.5t-24 -18.5t-24.5 -25q-2 -3 -6 -3
q-2 0 -4 2l-40 40q-6 4 0 11q38 44 81.5 61.5t82.5 17.5q38 0 70 -12t55.5 -34t36.5 -53.5t13 -70.5zM276 66q0 -32 -22.5 -54.5t-54.5 -22.5t-54.5 22.5t-22.5 54.5t22.5 54.5t54.5 22.5t54.5 -22.5t22.5 -54.5z" />
    <glyph glyph-name="at" unicode="@" horiz-adv-x="895" 
d="M794 129q0 -42 -11 -68.5t-29 -42.5t-42 -22t-50 -6q-35 0 -62 14t-46 37q-16 -22 -42 -36.5t-71 -14.5q-32 0 -60 10.5t-48.5 29t-32 44t-11.5 55.5v107q0 68 41.5 107t109.5 39q38 0 63 -14.5t42 -46.5q5 25 10.5 38t10.5 21q3 6 10 1l46 -27q3 -2 4 -4t-1 -7
q-9 -18 -17 -41t-8 -65v-108q0 -21 2.5 -34.5t9.5 -21t19 -10t31 -2.5t31.5 2.5t19 10t9 21t2.5 34.5v149q0 66 -10.5 114t-37 78.5t-71.5 45.5t-114 15h-109q-62 0 -106.5 -12t-73 -41.5t-42.5 -78t-14 -120.5v-169q0 -72 14 -120.5t43 -78t73.5 -41.5t106.5 -12h90
q48 0 83 28q4 3 7 -1l35 -50q3 -4 -1 -7q-26 -19 -57 -29.5t-67 -10.5h-90q-94 0 -153.5 25.5t-93.5 69.5t-47 102.5t-13 124.5v169q0 66 13 124.5t47 102.5t93.5 69.5t153.5 25.5h109q67 0 115.5 -13t82 -36.5t54 -54.5t32 -67t15 -75t3.5 -77v-149v0zM529 261
q-12 16 -20.5 26t-18 16t-21.5 8t-29 2q-37 -1 -59 -19t-22 -58v-107q0 -34 22 -52t59 -18q10 0 25 2.5t29 10t24.5 21t10.5 35.5v133z" />
    <glyph glyph-name="A" unicode="A" horiz-adv-x="545" 
d="M520 7q2 -5 1 -6t-5 -1h-54q-7 0 -10 1t-5 9l-68 228h-211l-67 -228q-2 -8 -5 -9t-10 -1h-54q-4 0 -5 1t1 6l197 678q2 5 3 6t6 1h82q5 0 6 -1t3 -6l195 -678v0zM301 527q-11 38 -16.5 63t-8.5 52q-5 -27 -10.5 -52t-16.5 -63l-62 -219h175z" />
    <glyph glyph-name="B" unicode="B" horiz-adv-x="547" 
d="M477 201q0 -56 -16.5 -94.5t-44.5 -62t-64 -34t-76 -10.5h-174q-8 0 -10.5 2t-2.5 11v666q0 9 2.5 11t10.5 2h159q38 0 74 -11t63.5 -32.5t44.5 -55t17 -78.5q0 -57 -21 -94t-60 -58q17 -7 34.5 -20t31.5 -33t23 -47t9 -62zM390 515q0 28 -11.5 48.5t-30 33.5t-41.5 19
t-47 6h-101v-222h102q37 0 62 9t40 25t21 36.5t6 44.5zM407 201q0 24 -7.5 47t-22.5 41.5t-38.5 30t-54.5 11.5h-125v-261h116q21 0 44.5 5.5t43 20t32 40t12.5 65.5z" />
    <glyph glyph-name="C" unicode="C" horiz-adv-x="531" 
d="M472 170q-2 -87 -55.5 -134t-143.5 -47q-92 0 -146 49t-54 139v336q0 88 54 136.5t146 48.5q91 0 145 -48.5t54 -134.5q0 -12 -9 -12l-50 -3q-10 0 -11 10q-2 37 -16.5 60.5t-34 36t-41 17t-37.5 4.5q-18 0 -40.5 -4.5t-42.5 -18.5t-33.5 -39t-13.5 -67v-311
q0 -42 13.5 -67t33.5 -39t42.5 -18.5t40.5 -4.5q16 0 37.5 4t41 16t33.5 34.5t16 59.5q1 13 11 13l51 -3q9 0 9 -13z" />
    <glyph glyph-name="D" unicode="D" horiz-adv-x="553" 
d="M473 188q0 -90 -54 -139t-145 -49h-172q-8 0 -10.5 2t-2.5 11v666q0 9 2.5 11t10.5 2h172q91 0 145 -49t54 -139v-316v0zM403 493q0 42 -13.5 67t-33.5 39t-42.5 18.5t-39.5 4.5h-112v-552h112q17 0 39.5 4.5t42.5 18.5t33.5 39t13.5 67v294z" />
    <glyph glyph-name="E" unicode="E" horiz-adv-x="464" 
d="M445 13q0 -9 -2.5 -11t-10.5 -2h-330q-8 0 -10.5 2t-2.5 11v666q0 9 2.5 11t10.5 2h311q8 0 10.5 -2t2.5 -11v-44q0 -9 -2.5 -11t-13.5 -2h-251v-210h249q8 0 10.5 -2t2.5 -11v-44q0 -9 -2.5 -11t-10.5 -2h-248v-272h272q8 0 10.5 -2t2.5 -11v-44v0z" />
    <glyph glyph-name="F" unicode="F" horiz-adv-x="445" 
d="M426 635q0 -9 -2.5 -11t-13.5 -2h-251v-210h241q8 0 10.5 -2t2.5 -11v-44q0 -9 -2.5 -11t-10.5 -2h-240v-329q0 -9 -2.5 -11t-10.5 -2h-45q-8 0 -10.5 2t-2.5 11v666q0 9 2.5 11t10.5 2h311q8 0 10.5 -2t2.5 -11v-44v0z" />
    <glyph glyph-name="G" unicode="G" horiz-adv-x="558" 
d="M479 101q0 -7 -1 -11t-6 -9q-43 -51 -93.5 -71.5t-98.5 -20.5q-92 0 -146 49t-54 139v336q0 88 54 136.5t146 48.5q59 0 99 -22t75 -60q6 -7 0 -12l-40 -35q-5 -4 -6.5 -4t-6.5 5q-14 16 -26.5 27t-26 17.5t-30 10t-38.5 3.5q-18 0 -40.5 -4.5t-42.5 -18.5t-33.5 -39
t-13.5 -67v-311q0 -42 13.5 -67t33.5 -39t42.5 -18.5t40.5 -4.5q35 -1 68.5 13.5t60.5 43.5v187h-116q-8 0 -10.5 2t-2.5 11v44q0 9 2.5 11t10.5 2h173q8 0 10.5 -2t2.5 -11v-259v0z" />
    <glyph glyph-name="H" unicode="H" horiz-adv-x="569" 
d="M483 13q0 -9 -2.5 -11t-10.5 -2h-44q-8 0 -10.5 2t-2.5 11v300h-254v-300q0 -9 -2.5 -11t-10.5 -2h-44q-8 0 -10.5 2t-2.5 11v666q0 9 2.5 11t10.5 2h44q8 0 10.5 -2t2.5 -11v-296h254v296q0 9 2.5 11t10.5 2h44q8 0 10.5 -2t2.5 -11v-666v0z" />
    <glyph glyph-name="I" unicode="I" horiz-adv-x="403" 
d="M343 13q0 -9 -2.5 -11t-10.5 -2h-256q-8 0 -10.5 2t-2.5 11v44q0 9 2.5 11t10.5 2h92v552h-92q-8 0 -10.5 2t-2.5 11v44q0 9 2.5 11t10.5 2h256q8 0 10.5 -2t2.5 -11v-44q0 -9 -2.5 -11t-10.5 -2h-94v-552h94q8 0 10.5 -2t2.5 -11v-44v0z" />
    <glyph glyph-name="J" unicode="J" horiz-adv-x="499" 
d="M422 177q0 -90 -54 -139t-146 -49q-89 0 -143.5 48t-55.5 136q0 13 9 13l51 3q10 0 11 -14q2 -37 16 -60t33.5 -35.5t40.5 -16.5t38 -4q18 0 40.5 4.5t42.5 18.5t33.5 39t13.5 67v434h-209q-8 0 -10.5 2t-2.5 11v44q0 9 2.5 11t10.5 2h269q8 0 9 -1t1 -8v-506v0z" />
    <glyph glyph-name="K" unicode="K" horiz-adv-x="532" 
d="M491 12q7 -12 -9 -12h-51q-10 0 -12.5 2t-6.5 9l-181 364l-92 -119v-243q0 -9 -2.5 -11t-10.5 -2h-44q-8 0 -10.5 2t-2.5 11v666q0 9 2.5 11t10.5 2h44q8 0 10.5 -2t2.5 -11v-313l231 315q5 7 7 9t12 2h57q16 0 9 -12l-177 -242l213 -426v0z" />
    <glyph glyph-name="L" unicode="L" horiz-adv-x="457" 
d="M433 13q0 -9 -2 -11t-10 -2h-332v679q0 9 2.5 11t10.5 2h44q8 0 10.5 -2t2.5 -11v-609h257q11 0 14 -2t3 -11v-44v0z" />
    <glyph glyph-name="M" unicode="M" horiz-adv-x="666" 
d="M594 10q0 -10 -10 -10h-46q-10 0 -10 10l-22 524q-1 19 -0.5 39t1.5 37.5t2 29.5t1 17q-1 -6 -3 -14.5t-4.5 -18l-5 -18.5t-4.5 -15l-116 -381q-2 -7 -5 -8t-8 -1h-57q-5 0 -8 1t-5 8l-116 381q-2 6 -4.5 15l-5 18.5t-4.5 18t-3 14.5q0 -5 1 -17t2 -29.5t1.5 -37.5
t-0.5 -39l-22 -524q0 -10 -10 -10h-46q-10 0 -10 10l30 674q0 8 7 8h93q8 0 9 -7l82 -276l9.5 -34t11 -42.5t10 -44.5t6.5 -40q2 18 7 40l10.5 44.5t11 42.5l9.5 34l82 276q1 7 9 7h93q7 0 7 -8l30 -674v0z" />
    <glyph glyph-name="N" unicode="N" horiz-adv-x="612" 
d="M526 7q0 -3 -1.5 -5t-7.5 -2h-94q-7 0 -10 7l-223 535l-11 29.5l-11.5 32l-10 29t-6.5 20.5q2 -14 5 -48t3 -71v-521q0 -9 -2.5 -11t-10.5 -2h-44q-8 0 -10.5 2t-2.5 11v672q0 3 1.5 5t7.5 2h94q6 0 10 -7l213 -503l15.5 -39t11.5 -32.5t9.5 -31.5t10.5 -35
q-2 46 -4 77.5t-2 51.5v506q0 9 2.5 11t10.5 2h44q8 0 10.5 -2t2.5 -11v-672v0z" />
    <glyph glyph-name="O" unicode="O" horiz-adv-x="569" 
d="M488 177q0 -90 -54 -139t-145 -49q-92 0 -146 49t-54 139v336q0 88 54 136.5t146 48.5q91 0 145 -48.5t54 -136.5v-336v0zM418 499q0 42 -13.5 67t-33.5 39t-42.5 18.5t-39.5 4.5q-18 0 -40.5 -4.5t-42.5 -18.5t-33.5 -39t-13.5 -67v-311q0 -42 13.5 -67t33.5 -39
t42.5 -18.5t40.5 -4.5q17 0 39.5 4.5t42.5 18.5t33.5 39t13.5 67v311z" />
    <glyph glyph-name="P" unicode="P" horiz-adv-x="516" 
d="M481 475q0 -40 -12 -69.5t-32.5 -48.5t-47.5 -28t-58 -9h-172v-307q0 -9 -2.5 -11t-10.5 -2h-44q-8 0 -10.5 2t-2.5 11v666q0 9 2.5 11t10.5 2h231q30 0 57 -9t47 -28t32 -48t12 -69v-63v0zM411 530q0 48 -23.5 70t-66.5 22h-162v-232h162q43 0 66.5 22t23.5 70v48z" />
    <glyph glyph-name="Q" unicode="Q" horiz-adv-x="553" 
d="M541 -37q-5 -5 -11 0l-91 81q-52 -55 -150 -55q-92 0 -146 49t-54 139v336q0 88 54 136.5t146 48.5q91 0 145 -48.5t54 -136.5v-336q0 -44 -13 -72l102 -89q5 -4 6 -6t-4 -7zM418 499q0 42 -13.5 67t-33.5 39t-42.5 18.5t-39.5 4.5q-18 0 -40.5 -4.5t-42.5 -18.5
t-33.5 -39t-13.5 -67v-240h59q22 0 49.5 -3t57.5 -20q15 -8 26 -16.5t33 -28.5q15 -14 20 -19.5t12 -12.5q2 8 2 14.5v14.5v311zM385 94l-47 44.5t-45 35.5q-19 10 -38 12.5t-37 2.5h-59q0 -42 13.5 -67.5t33.5 -39.5t42.5 -18.5t40.5 -4.5q20 0 47.5 7t48.5 28z" />
    <glyph glyph-name="R" unicode="R" horiz-adv-x="535" 
d="M492 12q7 -12 -9 -12h-51q-10 0 -12.5 2t-6.5 9l-153 308h-101v-306q0 -9 -2.5 -11t-10.5 -2h-44q-8 0 -10.5 2t-2.5 11v666q0 9 2.5 11t10.5 2h231q30 0 57 -9t47 -28t32 -48t12 -69v-63q0 -40 -11.5 -69.5t-31.5 -48.5t-46.5 -28t-55.5 -9l156 -308v0zM411 530
q0 48 -23.5 70t-66.5 22h-162v-232h162q43 0 66.5 22t23.5 70v48z" />
    <glyph glyph-name="S" unicode="S" horiz-adv-x="547" 
d="M478 197q0 -103 -51 -155.5t-150 -52.5q-51 0 -104 23.5t-97 80.5q-3 5 -3 6.5t5 5.5l42 30q8 6 14 -2q29 -38 66 -56.5t76 -17.5q18 0 41 4t43.5 18.5t34 41.5t13.5 73q0 44 -30.5 76.5t-103.5 55.5q-25 8 -42.5 15t-31.5 14.5t-26.5 16.5l-26.5 20q-27 22 -42.5 51
t-15.5 82q0 39 14.5 70.5t39.5 54t59.5 35t74.5 12.5q62 0 102.5 -22t75.5 -61q5 -6 -1 -11l-39 -34q-5 -5 -7.5 -4.5t-7.5 5.5q-28 31 -54 44t-69 13q-57 0 -87.5 -28.5t-30.5 -73.5q0 -24 4.5 -41.5t19 -32.5t41.5 -29t72 -30q41 -15 74.5 -32.5t57.5 -40.5t37 -53.5
t13 -70.5z" />
    <glyph glyph-name="T" unicode="T" horiz-adv-x="416" 
d="M410 635q0 -9 -2.5 -11t-10.5 -2h-153v-609q0 -9 -2.5 -11t-10.5 -2h-44q-8 0 -10.5 2t-2.5 11v609h-153q-8 0 -10.5 2t-2.5 11v44q0 9 2.5 11t10.5 2h376q8 0 10.5 -2t2.5 -11v-44v0z" />
    <glyph glyph-name="U" unicode="U" horiz-adv-x="574" 
d="M488 177q0 -90 -54 -139t-145 -49q-92 0 -146 49t-54 139v502q0 9 2.5 11t10.5 2h44q8 0 10.5 -2t2.5 -11v-491q0 -42 13.5 -67t33.5 -39t42.5 -18.5t40.5 -4.5q17 0 39.5 4.5t42.5 18.5t33.5 39t13.5 67v491q0 9 2.5 11t10.5 2h44q8 0 10.5 -2t2.5 -11v-502v0z" />
    <glyph glyph-name="V" unicode="V" horiz-adv-x="549" 
d="M330 8q-2 -6 -4 -7t-7 -1h-75q-5 0 -7 1t-4 7l-193 672q-4 12 9 12h48q9 0 11 -2t4 -9l140 -494q8 -29 15.5 -61t13.5 -82q6 50 13.5 82t15.5 61l140 494q2 7 4 9t12 2h48q13 0 9 -12z" />
    <glyph glyph-name="W" unicode="W" horiz-adv-x="767" 
d="M605 10q-3 -10 -12 -10h-79q-5 0 -7.5 1.5t-4.5 9.5l-93 516q-7 36 -11 66.5t-8 64.5q-3 -34 -7 -64.5t-11 -66.5l-93 -516q-2 -8 -4.5 -9.5t-7.5 -1.5h-79q-10 0 -12 10l-136 673q-2 6 0.5 7.5t9.5 1.5h41q10 0 12 -2t4 -9l104 -513q2 -11 4.5 -27.5t4 -34.5t3 -34
t1.5 -26q2 20 6 49t9 58l98 532q1 5 3 6t6 1h90q3 0 5 -1t3 -6l98 -532q5 -29 9 -58t6 -49q0 10 1.5 26t3 34t4 34.5t4.5 27.5l104 513q2 7 4 9t12 2h41q7 0 9.5 -1.5t0.5 -7.5z" />
    <glyph glyph-name="X" unicode="X" horiz-adv-x="532" 
d="M463 12q5 -12 -9 -12h-50q-10 0 -12 1.5t-6 9.5l-93 202q-11 24 -19.5 53.5t-10.5 55.5q-3 -26 -12 -55.5t-20 -53.5l-93 -202q-4 -8 -6 -9.5t-12 -1.5h-50q-14 0 -9 12l163 344l-154 324q-5 12 9 12h50q10 0 12 -1.5t6 -9.5l86 -182q11 -23 18 -46.5t13 -52.5
q4 29 10.5 52.5t17.5 46.5l85 182q4 8 6 9.5t12 1.5h50q14 0 9 -12l-156 -325l165 -343v0z" />
    <glyph glyph-name="Y" unicode="Y" horiz-adv-x="499" 
d="M296 349v-336q0 -9 -2.5 -11t-10.5 -2h-44q-8 0 -10.5 2t-2.5 11v336l-157 331q-5 12 9 12h50q10 0 12.5 -1.5t5.5 -9.5l87 -192q6 -12 10 -22t7 -20.5t5.5 -22.5t5.5 -29q3 17 5.5 29t5.5 22.5t7 20.5t10 22l87 192q3 8 5.5 9.5t12.5 1.5h50q14 0 9 -12z" />
    <glyph glyph-name="Z" unicode="Z" horiz-adv-x="562" 
d="M495 13q0 -9 -2.5 -11t-10.5 -2h-383q-8 0 -10.5 2t-2.5 11v55l312 554h-279q-8 0 -10.5 2t-2.5 11v44q0 9 2.5 11t10.5 2h347q8 0 10.5 -2t2.5 -11v-53l-313 -557h316q8 0 10.5 -2t2.5 -11v-43v0z" />
    <glyph glyph-name="bracketleft" unicode="[" 
d="M359 -168q0 -9 -2.5 -11t-10.5 -2h-204q-8 0 -10.5 2t-2.5 11v1015q0 9 2.5 11t10.5 2h204q8 0 10.5 -2t2.5 -11v-44q0 -9 -2.5 -11t-10.5 -2h-147v-901h147q8 0 10.5 -2t2.5 -11v-44v0z" />
    <glyph glyph-name="backslash" unicode="\" horiz-adv-x="359" 
d="M311 10q3 -6 1.5 -8t-9.5 -2h-49q-6 0 -9 1t-7 9l-192 670q-7 12 9 12h43q10 0 13 -2.5t6 -8.5l194 -671v0z" />
    <glyph glyph-name="bracketright" unicode="]" 
d="M359 -168q0 -9 -2.5 -11t-10.5 -2h-204q-8 0 -10.5 2t-2.5 11v44q0 9 2.5 11t10.5 2h147v901h-147q-8 0 -10.5 2t-2.5 11v44q0 9 2.5 11t10.5 2h204q8 0 10.5 -2t2.5 -11v-1015v0z" />
    <glyph glyph-name="asciicircum" unicode="^" horiz-adv-x="629" 
d="M539 395q4 -7 -3 -7h-66q-6 0 -10 7l-143 238l-141 -238q-4 -7 -10 -7h-66q-7 0 -3 7l169 290q3 5 5 6t7 1h80q5 0 7 -1t5 -6l169 -290v0z" />
    <glyph glyph-name="underscore" unicode="_" horiz-adv-x="594" 
d="M588 -128q0 -8 -2 -10.5t-11 -2.5h-553q-9 0 -11 2.5t-2 10.5v44q0 8 2 10.5t11 2.5h553q9 0 11 -2.5t2 -10.5v-44v0z" />
    <glyph glyph-name="grave" unicode="`" horiz-adv-x="546" 
d="M314 589q-2 -7 -4.5 -8t-10.5 2l-187 72q-6 2 -6.5 4.5t2.5 9.5l23 56q3 8 6 9.5t11 -3.5l175 -91q8 -5 9 -7t-3 -10z" />
    <glyph glyph-name="a" unicode="a" horiz-adv-x="533" 
d="M494 10q6 -10 -5 -10h-55q-11 0 -17 10q-8 14 -14 28l-14 34q-20 -43 -51 -63t-79 -20q-52 0 -88 10.5t-58 31t-32 49.5t-10 67t9.5 68t31.5 50.5t58 31.5t89 11h120v67q0 46 -21 67t-83 21q-23 0 -56.5 -7.5t-65.5 -30.5q-5 -3 -6.5 -3.5t-4.5 4.5l-31 44q-3 5 -3.5 7
t5.5 7q35 23 76 36t86 13q38 0 70 -8t55 -26.5t36 -48.5t13 -75v-226q0 -39 14 -74.5t31 -64.5zM378 238h-120q-61 0 -89 -19t-28 -72q0 -51 28 -69.5t90 -18.5q19 0 40 8.5t38.5 26.5t29 45.5t11.5 65.5v33z" />
    <glyph glyph-name="b" unicode="b" horiz-adv-x="554" 
d="M486 186q0 -54 -13.5 -91.5t-38.5 -61t-60 -34t-78 -10.5q-40 0 -74 20t-54 63q-6 -26 -10 -37.5l-9 -25.5q-2 -6 -5 -7.5t-8 -1.5h-55q-7 0 -7 3t2 11q14 34 23 65t9 70v530q0 9 2.5 11t10.5 2h44q8 0 10.5 -2t2.5 -11v-193q26 29 58.5 37.5t59.5 8.5q43 0 78 -11
t60 -34t38.5 -60.5t13.5 -90.5v-150v0zM417 336q0 73 -30.5 99.5t-90.5 26.5q-65 0 -91 -34.5t-26 -86.5v-136q0 -38 11 -65.5t28.5 -45.5t38 -27t39.5 -9q29 0 51.5 6t38 21t23.5 39.5t8 61.5v150z" />
    <glyph glyph-name="c" unicode="c" horiz-adv-x="505" 
d="M449 147q0 -81 -44 -119.5t-145 -38.5t-145 38.5t-44 119.5v228q0 81 44 119.5t145 38.5t145 -38.5t44 -119.5q0 -13 -9 -13l-50 -3q-11 0 -11 10v6q0 24 -5 41t-18 27.5t-36.5 15.5t-59.5 5t-59.5 -5t-36.5 -15.5t-18 -27.5t-5 -41v-228q0 -24 5 -41t18 -27.5
t36.5 -15.5t59.5 -5t59.5 5t36.5 15.5t17.5 27.5t4.5 41q0 10 2.5 13t8.5 3l51 -3q9 0 9 -13z" />
    <glyph glyph-name="d" unicode="d" horiz-adv-x="539" 
d="M481 14q2 -8 2 -11t-7 -3h-55q-5 0 -8 1.5t-5 7.5l-9 25.5t-10 37.5q-20 -43 -54 -63t-74 -20q-43 0 -78 10.5t-60 34t-38.5 61t-13.5 91.5v150q0 53 13.5 90.5t38.5 60.5t60 34t78 11q27 0 59.5 -8.5t58.5 -37.5v193q0 9 2.5 11t10.5 2h44q8 0 10.5 -2t2.5 -11v-530
q0 -39 9 -70t23 -65zM378 341q0 52 -26 86.5t-91 34.5q-60 0 -90.5 -26.5t-30.5 -99.5v-150q0 -37 8 -61.5t23.5 -39.5t38 -21t51.5 -6q19 0 39.5 9t37.5 27t28.5 45.5t11.5 65.5v136z" />
    <glyph glyph-name="e" unicode="e" horiz-adv-x="517" 
d="M449 250q0 -9 -2.5 -10.5t-11.5 -1.5h-293v-91q0 -23 4 -39.5t15 -27.5t32 -16t54 -5h56q49 0 83 27q4 3 7 -1l35 -50q3 -4 -1 -7q-53 -39 -124 -39h-56q-89 0 -132.5 38.5t-43.5 119.5v228q0 81 44 119.5t145 38.5t145 -38.5t44 -119.5v-125v0zM379 375q0 24 -5 41
t-18 27.5t-36.5 15.5t-59.5 5t-59.5 -5t-36.5 -15.5t-18 -27.5t-5 -41v-67h238v67z" />
    <glyph glyph-name="f" unicode="f" horiz-adv-x="427" 
d="M395 637q-3 -4 -7 -1q-34 27 -83 27q-33 0 -54 -5t-32 -16t-15 -27.5t-4 -39.5v-48h143q8 0 10.5 -2t2.5 -11v-44q0 -9 -2.5 -11t-10.5 -2h-142v-442q0 -11 -2.5 -13t-10.5 -2h-44q-8 0 -10.5 2t-2.5 11v444h-109q-8 0 -10.5 2t-2.5 11v44q0 9 2.5 11t10.5 2h108v48
q0 81 43 119.5t132 38.5q71 0 124 -39q4 -3 1 -7z" />
    <glyph glyph-name="g" unicode="g" horiz-adv-x="538" 
d="M522 539q0 -9 -2.5 -11t-10.5 -2h-17q-26 0 -53.5 -13.5t-47.5 -41.5q12 -18 17 -34t7 -31.5t1.5 -30t-0.5 -27.5q0 -32 -5.5 -62.5t-20 -54t-39 -37.5t-63.5 -13l-66 1q-12 0 -25 -2.5t-23 -9t-16.5 -17.5t-6.5 -28q0 -35 28 -44.5t81 -10.5l90 -1q31 0 57 -6.5t45 -22
t29.5 -42.5t10.5 -68q0 -42 -10.5 -69.5t-29.5 -43.5t-45 -22.5t-57 -6.5h-150q-31 0 -57 6.5t-45 22.5t-29.5 43.5t-10.5 69.5q0 25 3.5 46t13.5 37t27.5 26.5t46.5 16.5q-37 4 -52 24.5t-15 43.5q0 18 14.5 38t49.5 28q-44 30 -57 76t-13 102q0 39 6 70t23 52.5t47 32.5
t77 11h54q17 0 37 -5t35 -16q20 43 53 63t84 20h17q8 0 10.5 -2t2.5 -11v-44v0zM351 368q0 48 -16.5 72.5t-55.5 24.5h-67q-37 0 -53 -24.5t-16 -72.5q0 -24 2 -46t8.5 -38.5t20.5 -26t38 -9.5h70q24 0 38 9.5t20.5 26t8.5 38.5t2 46zM424 -72q1 45 -16.5 60.5t-54.5 15.5
h-165q-36 0 -51.5 -16.5t-15.5 -59.5q0 -40 19 -56.5t52 -16.5h161q40 0 55 20.5t16 52.5z" />
    <glyph glyph-name="h" unicode="h" horiz-adv-x="555" 
d="M464 13q0 -9 -2.5 -11t-10.5 -2h-44q-8 0 -10.5 2t-2.5 11v361q0 54 -28 71.5t-90 17.5q-61 0 -90 -35t-29 -87v-328q0 -9 -2.5 -11t-10.5 -2h-43q-10 0 -12 2.5t-2 13.5v663q0 9 2.5 11t10.5 2h44q8 0 10.5 -2t2.5 -11v-206q13 20 28 32t31 18t31 8t29 2q98 0 143 -38
t45 -121v-361v0z" />
    <glyph glyph-name="i" unicode="i" horiz-adv-x="374" 
d="M275 663q0 -24 -16 -42t-42 -18q-24 0 -41 17t-17 43q0 23 16 41t42 18q24 0 41 -17t17 -42zM264 13q0 -9 -2.5 -11t-10.5 -2h-44q-8 0 -10.5 2t-2.5 11v444h-170q-9 0 -11 2.5t-2 10.5v44q0 8 2 10.5t11 2.5h227q8 0 10.5 -2t2.5 -11v-501v0z" />
    <glyph glyph-name="j" unicode="j" horiz-adv-x="361" 
d="M253 665q0 -24 -16 -42t-42 -18q-24 0 -41 17t-17 43q0 23 16 41t42 18q24 0 41 -17t17 -42zM250 -54q0 -52 -20.5 -83.5t-50 -48t-62 -21.5t-56.5 -5q-45 0 -86 13t-76 36q-6 5 -5.5 7t3.5 7l31 44q3 5 4.5 4.5t6.5 -3.5q32 -23 65.5 -30.5t56.5 -7.5q21 0 42 2.5
t38 11.5t28 26t11 45v514h-131q-9 0 -11 2.5t-2 10.5v44q0 8 2 10.5t11 2.5h188q8 0 10.5 -2t2.5 -11v-568v0z" />
    <glyph glyph-name="k" unicode="k" horiz-adv-x="489" 
d="M464 12q7 -12 -9 -12h-51q-10 0 -12.5 2t-6.5 9l-134 267l-94 -127v-138q0 -9 -2.5 -11t-10.5 -2h-44q-8 0 -10.5 2t-2.5 11v666q0 9 2.5 11t10.5 2h44q8 0 10.5 -2t2.5 -11v-412l184 249q5 7 7 9t12 2h59q16 0 9 -12l-130 -172l166 -331v0z" />
    <glyph glyph-name="l" unicode="l" horiz-adv-x="397" 
d="M402 36q3 -4 -2 -8q-27 -19 -55 -29t-66 -10q-21 0 -45.5 8t-45 25t-34.5 43t-14 63v524h-118q-8 0 -10.5 2t-2.5 11v44q0 9 2.5 11t10.5 2h175q8 0 10.5 -2t2.5 -11v-581q0 -20 7.5 -33t18 -21t22.5 -11.5t21 -3.5q47 0 81 27q4 3 7 -1l35 -49v0z" />
    <glyph glyph-name="m" unicode="m" horiz-adv-x="791" 
d="M700 13q0 -9 -2.5 -11t-10.5 -2h-44q-8 0 -10.5 2t-2.5 11v362q0 48 -20.5 67.5t-58.5 19.5q-20 0 -40 -8t-36 -25t-26.5 -45t-10.5 -67v-304q0 -9 -2.5 -11t-10.5 -2h-44q-8 0 -10.5 2t-2.5 11v362q0 48 -21 67.5t-59 19.5q-16 0 -35.5 -8.5t-37 -26.5t-29 -45.5
t-11.5 -64.5v-304q0 -9 -2.5 -11t-10.5 -2h-44q-8 0 -10.5 2t-2.5 11v360q0 42 -11.5 71t-23.5 50q-2 5 0 7l4 4l47 25q6 5 10 -1q11 -19 19.5 -40.5t15.5 -45.5q25 54 53.5 72t68.5 18q48 0 83 -20t57 -69q8 23 22 40t30 28t32 16t29 5q79 0 119 -41t40 -117v-362v0z" />
    <glyph glyph-name="n" unicode="n" horiz-adv-x="575" 
d="M484 13q0 -9 -2.5 -11t-10.5 -2h-43q-8 0 -10.5 2t-2.5 11v323q0 73 -30.5 100t-90.5 27q-20 0 -41 -9t-38.5 -27t-28.5 -45.5t-11 -64.5v-304q0 -9 -2.5 -11t-10.5 -2h-44q-8 0 -10.5 2t-2.5 11v365q0 38 -11.5 66.5t-23.5 49.5q-2 5 0 7l4 4l47 25q6 5 10 -1
q11 -19 20 -39.5t15 -44.5q12 24 24.5 41t27.5 27.5t33.5 15t42.5 4.5q43 0 78 -10.5t60 -34t38.5 -61t13.5 -91.5v-323v0z" />
    <glyph glyph-name="o" unicode="o" horiz-adv-x="517" 
d="M449 147q0 -81 -44 -119.5t-145 -38.5t-145 38.5t-44 119.5v228q0 81 44 119.5t145 38.5t145 -38.5t44 -119.5v-228v0zM379 375q0 24 -5 41t-18 27.5t-36.5 15.5t-59.5 5t-59.5 -5t-36.5 -15.5t-18 -27.5t-5 -41v-228q0 -24 5 -41t18 -27.5t36.5 -15.5t59.5 -5t59.5 5
t36.5 15.5t18 27.5t5 41v228z" />
    <glyph glyph-name="p" unicode="p" horiz-adv-x="539" 
d="M471 185q0 -53 -13.5 -90.5t-38.5 -60.5t-60 -34t-78 -11q-27 0 -59.5 8.5t-58.5 37.5v-235q0 -12 -9 -12h-51q-5 0 -7.5 2t-2.5 10v574q0 42 -12 70.5t-24 49.5q-2 5 0 7l4 4l47 25q6 5 10 -1q11 -19 19 -37t16 -41q20 43 54 63t74 20q43 0 78 -10.5t60 -34t38.5 -61
t13.5 -91.5v-152v0zM402 337q0 73 -31.5 100.5t-89.5 27.5q-19 0 -39.5 -9t-38 -27t-28.5 -46t-11 -65v-138q0 -52 26 -86.5t91 -34.5q60 0 90.5 26.5t30.5 99.5v152z" />
    <glyph glyph-name="q" unicode="q" horiz-adv-x="554" 
d="M485 494q-12 -21 -24 -49.5t-12 -70.5v-574q0 -12 -9 -12h-50q-5 0 -7.5 2.5t-3.5 10.5v234q-26 -29 -58.5 -37.5t-59.5 -8.5q-43 0 -78 11t-60 34t-38.5 60.5t-13.5 90.5v152q0 54 13.5 91.5t38.5 61t60 34t78 10.5q40 0 74 -20t54 -63q8 23 16 41t19 37q4 6 10 1
l47 -25l4 -4t0 -7zM378 318q0 37 -11.5 65t-28.5 46t-37.5 27t-39.5 9q-58 0 -89.5 -27.5t-31.5 -100.5v-152q0 -73 30.5 -99.5t90.5 -26.5q65 0 91 34.5t26 86.5v138z" />
    <glyph glyph-name="r" unicode="r" horiz-adv-x="487" 
d="M430 328q0 -9 -2.5 -11t-10.5 -2h-44q-8 0 -10.5 2t-2.5 11v58q0 40 -17 59t-57 19q-22 0 -43 -9t-37.5 -27t-27 -45.5t-10.5 -64.5v-305q0 -9 -2.5 -11t-10.5 -2h-44q-8 0 -10.5 2t-2.5 11v361q0 38 -12 66.5t-24 49.5q-3 5 -1 7l4 4l47 25q6 5 10 -1q11 -19 19 -36
t16 -38q19 40 52 61.5t77 21.5q30 0 56 -8.5t45.5 -26.5t31 -46t11.5 -67v-58v0z" />
    <glyph glyph-name="s" unicode="s" horiz-adv-x="505" 
d="M437 151q0 -75 -47 -118.5t-139 -43.5q-32 0 -63.5 8.5t-58 25.5t-46 43.5t-28.5 61.5q-3 8 7 11l43 13q5 2 8.5 2.5t5.5 -6.5q13 -43 51 -65.5t81 -22.5q26 0 47.5 4t37 14.5t24 28t8.5 45.5q0 25 -9 40t-22.5 24t-28.5 12.5t-28 5.5l-30.5 5t-38 6.5t-37 8t-27.5 9.5
q-45 21 -59.5 53t-13.5 74q1 67 46 105t131 38q54 0 97.5 -22.5t73.5 -64.5q5 -6 -1 -11l-39 -34q-9 -8 -15 1q-17 25 -45.5 42.5t-70.5 17.5q-49 0 -78 -15.5t-29 -59.5q0 -27 9.5 -41.5t29.5 -22t51 -11.5t73 -10q63 -8 96.5 -49t33.5 -102z" />
    <glyph glyph-name="t" unicode="t" horiz-adv-x="414" 
d="M413 35q3 -4 -1 -7q-53 -39 -124 -39q-89 0 -132 38.5t-43 119.5v310h-92q-8 0 -10.5 2t-2.5 11v44q0 9 2.5 11t10.5 2h92v128q0 12 2.5 14.5t10.5 2.5h44q8 0 10.5 -2t2.5 -11v-132h155q8 0 10.5 -2t2.5 -11v-44q0 -9 -2.5 -11t-10.5 -2h-155v-310q0 -23 4 -39.5
t15 -27.5t32 -16t54 -5q49 0 83 27q4 3 7 -1l35 -50v0z" />
    <glyph glyph-name="u" unicode="u" horiz-adv-x="545" 
d="M496 10q6 -10 -5 -10h-55q-11 0 -17 10q-9 14 -15 28t-13 34q-20 -43 -50.5 -63t-79.5 -20q-43 0 -78 10.5t-60 34t-38.5 61t-13.5 91.5v328q0 9 2.5 11t10.5 2h43q8 0 10.5 -2t2.5 -11v-328q0 -37 7.5 -61.5t23 -39t38 -20.5t52.5 -6q20 0 41 8.5t38.5 26.5t28.5 45.5
t11 65.5v309q0 9 2.5 11t10.5 2h44q8 0 10.5 -2t2.5 -11v-365q0 -39 14 -74.5t32 -64.5z" />
    <glyph glyph-name="v" unicode="v" horiz-adv-x="503" 
d="M307 10q-3 -10 -12 -10h-85q-10 0 -12 10l-145 504q-2 8 -0.5 10.5t9.5 2.5h45q10 0 12.5 -1.5t4.5 -9.5l102 -366l7.5 -27t6.5 -24.5l6.5 -27t6.5 -34.5q3 20 6 34.5t6 27t6.5 24.5l7.5 27l102 366q2 8 4.5 9.5t12.5 1.5h45q8 0 9.5 -2.5t-0.5 -10.5z" />
    <glyph glyph-name="w" unicode="w" horiz-adv-x="722" 
d="M577 11q-2 -8 -4.5 -9.5t-7.5 -1.5h-81q-10 0 -12 10l-82 349q-5 22 -9.5 38.5t-8 32t-6 30.5t-4.5 34q-2 -19 -4.5 -34t-6 -30.5t-8 -32t-9.5 -38.5l-82 -349q-3 -10 -12 -10h-81q-5 0 -7.5 1.5t-4.5 9.5l-94 503q-2 8 -0.5 10.5t9.5 2.5h41q10 0 12.5 -1.5t4.5 -9.5
l66 -365q6 -35 8.5 -64t4.5 -50q2 20 8 51.5t11 54.5l91 377q2 5 3.5 6t5.5 1h88q4 0 5.5 -1t3.5 -6l91 -377q5 -23 11 -54.5t8 -51.5q2 21 4.5 50t8.5 64l66 365q2 8 4.5 9.5t12.5 1.5h41q8 0 9.5 -2.5t-0.5 -10.5z" />
    <glyph glyph-name="x" unicode="x" horiz-adv-x="463" 
d="M414 13q4 -8 2 -10.5t-11 -2.5h-51q-8 0 -11 1.5t-7 9.5l-71 149q-15 31 -20 53t-8 42q-2 -20 -7 -42t-20 -53l-71 -149q-4 -8 -7 -9.5t-11 -1.5h-51q-16 0 -9 13l137 275l-111 226q-7 13 9 13h49q8 0 11 -1.5t7 -9.5l49 -102q13 -28 17.5 -46t8.5 -44q1 13 3 23.5
t4.5 20.5t6.5 21t11 25l49 102q4 8 7 9.5t11 1.5h49q9 0 11 -2.5t-2 -10.5l-111 -226l137 -275v0z" />
    <glyph glyph-name="y" unicode="y" horiz-adv-x="447" 
d="M298 85q-5 -16 -11.5 -43t-14.5 -56.5l-16 -56.5t-15 -43q-14 -32 -35 -51t-46 -29.5t-51.5 -14t-50.5 -3.5q-45 0 -86 13t-76 36q-6 5 -5.5 7t3.5 7l31 44q3 5 4.5 4.5t6.5 -3.5q32 -23 65.5 -30.5t56.5 -7.5q21 0 38 1.5t31.5 7t26.5 16.5t22 30q4 9 7.5 21l9 30
t12.5 44l18 64h-51q-8 0 -10 1t-4 9l-130 433q-3 9 -1 10.5t11 1.5h50q7 0 9 -1.5t4 -9.5l126 -424l114 424q2 8 4 9.5t9 1.5h50q9 0 10.5 -1.5t-0.5 -10.5z" />
    <glyph glyph-name="z" unicode="z" horiz-adv-x="468" 
d="M406 13q0 -9 -2.5 -11t-10.5 -2h-309q-8 0 -10.5 2t-2.5 11v44l225 400h-196q-9 0 -11 2.5t-2 10.5v44q0 8 2 10.5t11 2.5h277q8 0 10.5 -2t2.5 -11v-34l-232 -410h235q8 0 10.5 -2t2.5 -11v-44v0z" />
    <glyph glyph-name="braceleft" unicode="{" horiz-adv-x="270" 
d="M264 -147q0 -9 -2.5 -11t-10.5 -2h-10q-44 0 -74.5 14t-49.5 36.5t-27.5 52t-8.5 60.5v226q0 21 -1 37t-6.5 27t-17 16.5t-32.5 5.5h-8q-13 0 -13 18v34q0 18 13 18h8q21 0 32.5 5.5t17 16.5t6.5 27t1 37v198q0 31 8.5 60.5t27.5 52t49.5 36.5t74.5 14h10q8 0 10.5 -2
t2.5 -11v-44q0 -9 -2.5 -11t-10.5 -2h-10q-43 0 -66.5 -22t-23.5 -71v-233q0 -33 -12 -57t-45 -29q33 -6 45 -30.5t12 -57.5v-259q0 -49 23.5 -71t66.5 -22h10q8 0 10.5 -2t2.5 -11v-44v0z" />
    <glyph glyph-name="bar" unicode="|" horiz-adv-x="363" 
d="M214 -161q0 -9 -2.5 -11t-10.5 -2h-44q-8 0 -10.5 2t-2.5 11v1019q0 9 2.5 11t10.5 2h44q8 0 10.5 -2t2.5 -11v-1019v0z" />
    <glyph glyph-name="braceright" unicode="}" horiz-adv-x="270" 
d="M270 333q0 -18 -13 -18h-8q-21 0 -32.5 -5.5t-17 -16.5t-6.5 -27t-1 -37v-226q0 -31 -8.5 -60.5t-27.5 -52t-49.5 -36.5t-74.5 -14h-10q-8 0 -10.5 2t-2.5 11v44q0 9 2.5 11t10.5 2h10q43 0 66.5 22t23.5 71v259q0 33 12 57.5t45 30.5q-33 5 -45 29t-12 57v233
q0 49 -23.5 71t-66.5 22h-10q-8 0 -10.5 2t-2.5 11v44q0 9 2.5 11t10.5 2h10q44 0 74.5 -14t49.5 -36.5t27.5 -52t8.5 -60.5v-198q0 -21 1 -37t6.5 -27t17 -16.5t32.5 -5.5h8q13 0 13 -18v-34v0z" />
    <glyph glyph-name="asciitilde" unicode="~" horiz-adv-x="631" 
d="M564 276q-34 -50 -72 -66.5t-79 -16.5q-24 0 -42 4.5t-33 11.5t-28.5 16.5l-27.5 18.5q-12 8 -25.5 12t-33.5 4q-32 0 -55 -12.5t-43 -41.5q-5 -8 -9.5 -7.5t-9.5 5.5l-31 27q-5 5 -6.5 7.5t3.5 9.5q35 49 71.5 66t77.5 17q30 0 61.5 -13t54.5 -26q18 -11 34.5 -19.5
t41.5 -8.5q16 0 29.5 3t25 9.5t22.5 17.5t24 27q3 5 6 5.5t8 -4.5l35 -31q4 -3 5 -5.5t-4 -9.5z" />
    <glyph glyph-name="Adieresis" unicode="&#xc4;" horiz-adv-x="545" 
d="M520 7q2 -5 1 -6t-5 -1h-54q-7 0 -10 1t-5 9l-68 228h-211l-67 -228q-2 -8 -5 -9t-10 -1h-54q-4 0 -5 1t1 6l197 678q2 5 3 6t6 1h82q5 0 6 -1t3 -6l195 -678v0zM301 527q-11 38 -16.5 63t-8.5 52q-5 -27 -10.5 -52t-16.5 -63l-62 -219h175zM426 804q0 -23 -15.5 -38
t-35.5 -15q-25 0 -39.5 15.5t-14.5 37.5t15.5 37.5t38.5 15.5t37 -16t14 -37zM229 804q0 -22 -14.5 -37.5t-39.5 -15.5q-20 0 -35.5 15t-15.5 38q0 21 14 37t37 16t38.5 -15.5t15.5 -37.5z" />
    <glyph glyph-name="Aring" unicode="&#xc5;" horiz-adv-x="545" 
d="M520 7q2 -5 1 -6t-5 -1h-54q-7 0 -10 1t-5 9l-68 228h-211l-67 -228q-2 -8 -5 -9t-10 -1h-54q-4 0 -5 1t1 6l187 645q-23 14 -37 37.5t-14 55.5q0 21 8 40.5t22 35t34.5 25t45.5 9.5q21 0 40.5 -8t35 -22t25 -34.5t9.5 -45.5q0 -27 -13 -52t-36 -40l185 -646v0zM328 745
q0 23 -15.5 38.5t-38.5 15.5t-38.5 -15.5t-15.5 -38.5t15.5 -38.5t38.5 -15.5t38.5 15.5t15.5 38.5zM275 610l-88 -302h175z" />
    <glyph glyph-name="Ccedilla" unicode="&#xc7;" horiz-adv-x="531" 
d="M472 170q-2 -87 -55.5 -134t-143.5 -47q-92 0 -146 49t-54 139v336q0 88 54 136.5t146 48.5q91 0 145 -48.5t54 -134.5q0 -12 -9 -12l-50 -3q-10 0 -11 10q-2 37 -16.5 60.5t-34 36t-41 17t-37.5 4.5q-18 0 -40.5 -4.5t-42.5 -18.5t-33.5 -39t-13.5 -67v-311
q0 -42 13.5 -67t33.5 -39t42.5 -18.5t40.5 -4.5q16 0 37.5 4t41 16t33.5 34.5t16 59.5q1 13 11 13l51 -3q9 0 9 -13zM321 -145q-11 -27 -33.5 -38.5t-57.5 3.5l-42 18q-3 1 -2 4l12 37q1 4 5 2l42 -19q27 -12 37 9q6 12 0.5 21.5t-13.5 13.5l-50 21l-4.5 3t0.5 6l24 76h47
l-20 -56l20 -9q36 -16 41.5 -40t-6.5 -52z" />
    <glyph glyph-name="Eacute" unicode="&#xc9;" horiz-adv-x="460" 
d="M445 13q0 -9 -2.5 -11t-10.5 -2h-330q-8 0 -10.5 2t-2.5 11v666q0 9 2.5 11t10.5 2h311q8 0 10.5 -2t2.5 -11v-44q0 -9 -2.5 -11t-13.5 -2h-251v-210h249q8 0 10.5 -2t2.5 -11v-44q0 -9 -2.5 -11t-10.5 -2h-248v-272h272q8 0 10.5 -2t2.5 -11v-44v0zM417 824
q3 -7 2.5 -9.5t-6.5 -4.5l-187 -72q-8 -3 -10.5 -2t-4.5 8l-15 34q-4 8 -3 10t9 7l175 91q8 5 11 3.5t6 -9.5l23 -56v0z" />
    <glyph glyph-name="Ntilde" unicode="&#xd1;" horiz-adv-x="612" 
d="M526 7q0 -3 -1.5 -5t-7.5 -2h-94q-7 0 -10 7l-223 535l-11 29.5l-11.5 32l-10 29t-6.5 20.5q2 -14 5 -48t3 -71v-521q0 -9 -2.5 -11t-10.5 -2h-44q-8 0 -10.5 2t-2.5 11v672q0 3 1.5 5t7.5 2h94q6 0 10 -7l213 -503l15.5 -39t11.5 -32.5t9.5 -31.5t10.5 -35
q-2 46 -4 77.5t-2 51.5v506q0 9 2.5 11t10.5 2h44q8 0 10.5 -2t2.5 -11v-672v0zM468 797q-22 -35 -44.5 -49.5t-54.5 -14.5q-18 0 -33 6t-28 13.5t-25 13.5t-25 6q-14 0 -22 -6t-21 -27q-3 -5 -4 -6t-6 3l-36 23q-5 3 -6 5t3 10q20 32 41.5 45t51.5 13q18 0 33.5 -6
t29 -13.5t25.5 -13.5t25 -6q14 0 23.5 7.5t21.5 27.5q6 9 11 5l36 -22q9 -5 4 -14z" />
    <glyph glyph-name="Odieresis" unicode="&#xd6;" horiz-adv-x="569" 
d="M488 177q0 -90 -54 -139t-145 -49q-92 0 -146 49t-54 139v336q0 88 54 136.5t146 48.5q91 0 145 -48.5t54 -136.5v-336v0zM418 499q0 42 -13.5 67t-33.5 39t-42.5 18.5t-39.5 4.5q-18 0 -40.5 -4.5t-42.5 -18.5t-33.5 -39t-13.5 -67v-311q0 -42 13.5 -67t33.5 -39
t42.5 -18.5t40.5 -4.5q17 0 39.5 4.5t42.5 18.5t33.5 39t13.5 67v311zM436 804q0 -23 -15.5 -38t-35.5 -15q-25 0 -39.5 15.5t-14.5 37.5t15.5 37.5t38.5 15.5t37 -16t14 -37zM239 804q0 -22 -14.5 -37.5t-39.5 -15.5q-20 0 -35.5 15t-15.5 38q0 21 14 37t37 16t38.5 -15.5
t15.5 -37.5z" />
    <glyph glyph-name="Udieresis" unicode="&#xdc;" horiz-adv-x="574" 
d="M488 177q0 -90 -54 -139t-145 -49q-92 0 -146 49t-54 139v502q0 9 2.5 11t10.5 2h44q8 0 10.5 -2t2.5 -11v-491q0 -42 13.5 -67t33.5 -39t42.5 -18.5t40.5 -4.5q17 0 39.5 4.5t42.5 18.5t33.5 39t13.5 67v491q0 9 2.5 11t10.5 2h44q8 0 10.5 -2t2.5 -11v-502v0zM443 803
q0 -23 -15.5 -38t-35.5 -15q-25 0 -39.5 15.5t-14.5 37.5t15.5 37.5t38.5 15.5t37 -16t14 -37zM246 803q0 -22 -14.5 -37.5t-39.5 -15.5q-20 0 -35.5 15t-15.5 38q0 21 14 37t37 16t38.5 -15.5t15.5 -37.5z" />
    <glyph glyph-name="aacute" unicode="&#xe1;" horiz-adv-x="533" 
d="M494 10q6 -10 -5 -10h-55q-11 0 -17 10q-8 14 -14 28l-14 34q-20 -43 -51 -63t-79 -20q-52 0 -88 10.5t-58 31t-32 49.5t-10 67t9.5 68t31.5 50.5t58 31.5t89 11h120v67q0 46 -21 67t-83 21q-23 0 -56.5 -7.5t-65.5 -30.5q-5 -3 -6.5 -3.5t-4.5 4.5l-31 44q-3 5 -3.5 7
t5.5 7q35 23 76 36t86 13q38 0 70 -8t55 -26.5t36 -48.5t13 -75v-226q0 -39 14 -74.5t31 -64.5zM378 238h-120q-61 0 -89 -19t-28 -72q0 -51 28 -69.5t90 -18.5q19 0 40 8.5t38.5 26.5t29 45.5t11.5 65.5v33zM432 667q3 -7 2.5 -9.5t-6.5 -4.5l-187 -72q-8 -3 -10.5 -2
t-4.5 8l-15 34q-4 8 -3 10t9 7l175 91q8 5 11 3.5t6 -9.5l23 -56v0z" />
    <glyph glyph-name="agrave" unicode="&#xe0;" horiz-adv-x="533" 
d="M494 10q6 -10 -5 -10h-55q-11 0 -17 10q-8 14 -14 28l-14 34q-20 -43 -51 -63t-79 -20q-52 0 -88 10.5t-58 31t-32 49.5t-10 67t9.5 68t31.5 50.5t58 31.5t89 11h120v67q0 46 -21 67t-83 21q-23 0 -56.5 -7.5t-65.5 -30.5q-5 -3 -6.5 -3.5t-4.5 4.5l-31 44q-3 5 -3.5 7
t5.5 7q35 23 76 36t86 13q38 0 70 -8t55 -26.5t36 -48.5t13 -75v-226q0 -39 14 -74.5t31 -64.5zM378 238h-120q-61 0 -89 -19t-28 -72q0 -51 28 -69.5t90 -18.5q19 0 40 8.5t38.5 26.5t29 45.5t11.5 65.5v33zM314 589q-2 -7 -4.5 -8t-10.5 2l-187 72q-6 2 -6.5 4.5t2.5 9.5
l23 56q3 8 6 9.5t11 -3.5l175 -91q8 -5 9 -7t-3 -10z" />
    <glyph glyph-name="acircumflex" unicode="&#xe2;" horiz-adv-x="533" 
d="M494 10q6 -10 -5 -10h-55q-11 0 -17 10q-8 14 -14 28l-14 34q-20 -43 -51 -63t-79 -20q-52 0 -88 10.5t-58 31t-32 49.5t-10 67t9.5 68t31.5 50.5t58 31.5t89 11h120v67q0 46 -21 67t-83 21q-23 0 -56.5 -7.5t-65.5 -30.5q-5 -3 -6.5 -3.5t-4.5 4.5l-31 44q-3 5 -3.5 7
t5.5 7q35 23 76 36t86 13q38 0 70 -8t55 -26.5t36 -48.5t13 -75v-226q0 -39 14 -74.5t31 -64.5zM378 238h-120q-61 0 -89 -19t-28 -72q0 -51 28 -69.5t90 -18.5q19 0 40 8.5t38.5 26.5t29 45.5t11.5 65.5v33zM415 619q4 -4 3.5 -6t-4.5 -6l-29 -30q-3 -3 -5 -3.5t-7 3.5
l-96 84l-97 -84q-5 -4 -7 -3.5t-5 3.5l-29 30q-7 6 -1 12l128 110q11 10 22 0l127 -110v0z" />
    <glyph glyph-name="adieresis" unicode="&#xe4;" horiz-adv-x="533" 
d="M494 10q6 -10 -5 -10h-55q-11 0 -17 10q-8 14 -14 28l-14 34q-20 -43 -51 -63t-79 -20q-52 0 -88 10.5t-58 31t-32 49.5t-10 67t9.5 68t31.5 50.5t58 31.5t89 11h120v67q0 46 -21 67t-83 21q-23 0 -56.5 -7.5t-65.5 -30.5q-5 -3 -6.5 -3.5t-4.5 4.5l-31 44q-3 5 -3.5 7
t5.5 7q35 23 76 36t86 13q38 0 70 -8t55 -26.5t36 -48.5t13 -75v-226q0 -39 14 -74.5t31 -64.5zM378 238h-120q-61 0 -89 -19t-28 -72q0 -51 28 -69.5t90 -18.5q19 0 40 8.5t38.5 26.5t29 45.5t11.5 65.5v33zM410 656q0 -23 -15.5 -38t-35.5 -15q-25 0 -39.5 15.5
t-14.5 37.5t15.5 37.5t38.5 15.5t37 -16t14 -37zM213 656q0 -22 -14.5 -37.5t-39.5 -15.5q-20 0 -35.5 15t-15.5 38q0 21 14 37t37 16t38.5 -15.5t15.5 -37.5z" />
    <glyph glyph-name="atilde" unicode="&#xe3;" horiz-adv-x="533" 
d="M494 10q6 -10 -5 -10h-55q-11 0 -17 10q-8 14 -14 28l-14 34q-20 -43 -51 -63t-79 -20q-52 0 -88 10.5t-58 31t-32 49.5t-10 67t9.5 68t31.5 50.5t58 31.5t89 11h120v67q0 46 -21 67t-83 21q-23 0 -56.5 -7.5t-65.5 -30.5q-5 -3 -6.5 -3.5t-4.5 4.5l-31 44q-3 5 -3.5 7
t5.5 7q35 23 76 36t86 13q38 0 70 -8t55 -26.5t36 -48.5t13 -75v-226q0 -39 14 -74.5t31 -64.5zM378 238h-120q-61 0 -89 -19t-28 -72q0 -51 28 -69.5t90 -18.5q19 0 40 8.5t38.5 26.5t29 45.5t11.5 65.5v33zM425 657q-22 -35 -44.5 -49.5t-54.5 -14.5q-18 0 -33 6t-28 13.5
t-25 13.5t-25 6q-14 0 -22 -6t-21 -27q-3 -5 -4 -6t-6 3l-36 23q-5 3 -6 5t3 10q20 32 41.5 45t51.5 13q18 0 33.5 -6t29 -13.5t25.5 -13.5t25 -6q14 0 23.5 7.5t21.5 27.5q6 9 11 5l36 -22q9 -5 4 -14z" />
    <glyph glyph-name="aring" unicode="&#xe5;" horiz-adv-x="533" 
d="M494 10q6 -10 -5 -10h-55q-11 0 -17 10q-8 14 -14 28l-14 34q-20 -43 -51 -63t-79 -20q-52 0 -88 10.5t-58 31t-32 49.5t-10 67t9.5 68t31.5 50.5t58 31.5t89 11h120v67q0 46 -21 67t-83 21q-23 0 -56.5 -7.5t-65.5 -30.5q-5 -3 -6.5 -3.5t-4.5 4.5l-31 44q-3 5 -3.5 7
t5.5 7q35 23 76 36t86 13q38 0 70 -8t55 -26.5t36 -48.5t13 -75v-226q0 -39 14 -74.5t31 -64.5zM378 238h-120q-61 0 -89 -19t-28 -72q0 -51 28 -69.5t90 -18.5q19 0 40 8.5t38.5 26.5t29 45.5t11.5 65.5v33zM385 667q0 -21 -8 -40.5t-22 -35t-34.5 -25t-45.5 -9.5
q-21 0 -40.5 8t-35 22t-25 34.5t-9.5 45.5q0 21 8 40.5t22 35t34.5 25t45.5 9.5q21 0 40.5 -8t35 -22t25 -34.5t9.5 -45.5zM329 667q0 23 -15.5 38.5t-38.5 15.5t-38.5 -15.5t-15.5 -38.5t15.5 -38.5t38.5 -15.5t38.5 15.5t15.5 38.5z" />
    <glyph glyph-name="ccedilla" unicode="&#xe7;" horiz-adv-x="498" 
d="M449 147q0 -81 -44 -119.5t-145 -38.5t-145 38.5t-44 119.5v228q0 81 44 119.5t145 38.5t145 -38.5t44 -119.5q0 -13 -9 -13l-50 -3q-11 0 -11 10v6q0 24 -5 41t-18 27.5t-36.5 15.5t-59.5 5t-59.5 -5t-36.5 -15.5t-18 -27.5t-5 -41v-228q0 -24 5 -41t18 -27.5
t36.5 -15.5t59.5 -5t59.5 5t36.5 15.5t17.5 27.5t4.5 41q0 10 2.5 13t8.5 3l51 -3q9 0 9 -13zM321 -145q-11 -27 -33.5 -38.5t-57.5 3.5l-42 18q-3 1 -2 4l12 37q1 4 5 2l42 -19q27 -12 37 9q6 12 0.5 21.5t-13.5 13.5l-50 21l-4.5 3t0.5 6l24 76h47l-20 -56l20 -9
q36 -16 41.5 -40t-6.5 -52z" />
    <glyph glyph-name="eacute" unicode="&#xe9;" horiz-adv-x="517" 
d="M414 667q3 -7 2.5 -9.5t-6.5 -4.5l-187 -72q-8 -3 -10.5 -2t-4.5 8l-15 34q-4 8 -3 10t9 7l175 91q8 5 11 3.5t6 -9.5l23 -56v0zM453 250q0 -9 -2.5 -10.5t-11.5 -1.5h-293v-91q0 -23 4 -39.5t15 -27.5t32 -16t54 -5h56q49 0 83 27q4 3 7 -1l35 -50q3 -4 -1 -7
q-53 -39 -124 -39h-56q-89 0 -132.5 38.5t-43.5 119.5v228q0 81 44 119.5t145 38.5t145 -38.5t44 -119.5v-125v0zM383 375q0 24 -5 41t-18 27.5t-36.5 15.5t-59.5 5t-59.5 -5t-36.5 -15.5t-18 -27.5t-5 -41v-67h238v67z" />
    <glyph glyph-name="egrave" unicode="&#xe8;" horiz-adv-x="517" 
d="M318 589q-2 -7 -4.5 -8t-10.5 2l-187 72q-6 2 -6.5 4.5t2.5 9.5l23 56q3 8 6 9.5t11 -3.5l175 -91q8 -5 9 -7t-3 -10zM453 250q0 -9 -2.5 -10.5t-11.5 -1.5h-293v-91q0 -23 4 -39.5t15 -27.5t32 -16t54 -5h56q49 0 83 27q4 3 7 -1l35 -50q3 -4 -1 -7q-53 -39 -124 -39
h-56q-89 0 -132.5 38.5t-43.5 119.5v228q0 81 44 119.5t145 38.5t145 -38.5t44 -119.5v-125v0zM383 375q0 24 -5 41t-18 27.5t-36.5 15.5t-59.5 5t-59.5 -5t-36.5 -15.5t-18 -27.5t-5 -41v-67h238v67z" />
    <glyph glyph-name="ecircumflex" unicode="&#xea;" horiz-adv-x="517" 
d="M412 619q4 -4 3.5 -6t-4.5 -6l-29 -30q-3 -3 -5 -3.5t-7 3.5l-96 84l-97 -84q-5 -4 -7 -3.5t-5 3.5l-29 30q-7 6 -1 12l128 110q11 10 22 0l127 -110v0zM453 250q0 -9 -2.5 -10.5t-11.5 -1.5h-293v-91q0 -23 4 -39.5t15 -27.5t32 -16t54 -5h56q49 0 83 27q4 3 7 -1
l35 -50q3 -4 -1 -7q-53 -39 -124 -39h-56q-89 0 -132.5 38.5t-43.5 119.5v228q0 81 44 119.5t145 38.5t145 -38.5t44 -119.5v-125v0zM383 375q0 24 -5 41t-18 27.5t-36.5 15.5t-59.5 5t-59.5 -5t-36.5 -15.5t-18 -27.5t-5 -41v-67h238v67z" />
    <glyph glyph-name="edieresis" unicode="&#xeb;" horiz-adv-x="517" 
d="M414 656q0 -23 -15.5 -38t-35.5 -15q-25 0 -39.5 15.5t-14.5 37.5t15.5 37.5t38.5 15.5t37 -16t14 -37zM217 656q0 -22 -14.5 -37.5t-39.5 -15.5q-20 0 -35.5 15t-15.5 38q0 21 14 37t37 16t38.5 -15.5t15.5 -37.5zM453 250q0 -9 -2.5 -10.5t-11.5 -1.5h-293v-91
q0 -23 4 -39.5t15 -27.5t32 -16t54 -5h56q49 0 83 27q4 3 7 -1l35 -50q3 -4 -1 -7q-53 -39 -124 -39h-56q-89 0 -132.5 38.5t-43.5 119.5v228q0 81 44 119.5t145 38.5t145 -38.5t44 -119.5v-125v0zM383 375q0 24 -5 41t-18 27.5t-36.5 15.5t-59.5 5t-59.5 -5t-36.5 -15.5
t-18 -27.5t-5 -41v-67h238v67z" />
    <glyph glyph-name="iacute" unicode="&#xed;" horiz-adv-x="374" 
d="M376 667q3 -7 2.5 -9.5t-6.5 -4.5l-187 -72q-8 -3 -10.5 -2t-4.5 8l-15 34q-4 8 -3 10t9 7l175 91q8 5 11 3.5t6 -9.5l23 -56v0zM228 13q0 -9 -2.5 -11t-10.5 -2h-44q-8 0 -10.5 2t-2.5 11v444h-170q-9 0 -11 2.5t-2 10.5v44q0 8 2 10.5t11 2.5h227q8 0 10.5 -2t2.5 -11
v-501v0z" />
    <glyph glyph-name="igrave" unicode="&#xec;" horiz-adv-x="374" 
d="M264 13q0 -9 -2.5 -11t-10.5 -2h-44q-8 0 -10.5 2t-2.5 11v444h-170q-9 0 -11 2.5t-2 10.5v44q0 8 2 10.5t11 2.5h227q8 0 10.5 -2t2.5 -11v-501v0zM266 589q-2 -7 -4.5 -8t-10.5 2l-187 72q-6 2 -6.5 4.5t2.5 9.5l23 56q3 8 6 9.5t11 -3.5l175 -91q8 -5 9 -7t-3 -10z
" />
    <glyph glyph-name="icircumflex" unicode="&#xee;" horiz-adv-x="374" 
d="M264 13q0 -9 -2.5 -11t-10.5 -2h-44q-8 0 -10.5 2t-2.5 11v444h-170q-9 0 -11 2.5t-2 10.5v44q0 8 2 10.5t11 2.5h227q8 0 10.5 -2t2.5 -11v-501v0zM375 619q4 -4 3.5 -6t-4.5 -6l-29 -30q-3 -3 -5 -3.5t-7 3.5l-96 84l-97 -84q-5 -4 -7 -3.5t-5 3.5l-29 30q-7 6 -1 12
l128 110q11 10 22 0l127 -110v0z" />
    <glyph glyph-name="idieresis" unicode="&#xef;" horiz-adv-x="374" 
d="M264 13q0 -9 -2.5 -11t-10.5 -2h-44q-8 0 -10.5 2t-2.5 11v444h-170q-9 0 -11 2.5t-2 10.5v44q0 8 2 10.5t11 2.5h227q8 0 10.5 -2t2.5 -11v-501v0zM340 656q0 -23 -15.5 -38t-35.5 -15q-25 0 -39.5 15.5t-14.5 37.5t15.5 37.5t38.5 15.5t37 -16t14 -37zM143 656
q0 -22 -14.5 -37.5t-39.5 -15.5q-20 0 -35.5 15t-15.5 38q0 21 14 37t37 16t38.5 -15.5t15.5 -37.5z" />
    <glyph glyph-name="ntilde" unicode="&#xf1;" horiz-adv-x="575" 
d="M484 13q0 -9 -2.5 -11t-10.5 -2h-43q-8 0 -10.5 2t-2.5 11v323q0 73 -30.5 100t-90.5 27q-20 0 -41 -9t-38.5 -27t-28.5 -45.5t-11 -64.5v-304q0 -9 -2.5 -11t-10.5 -2h-44q-8 0 -10.5 2t-2.5 11v365q0 38 -11.5 66.5t-23.5 49.5q-2 5 0 7l4 4l47 25q6 5 10 -1
q11 -19 20 -39.5t15 -44.5q12 24 24.5 41t27.5 27.5t33.5 15t42.5 4.5q43 0 78 -10.5t60 -34t38.5 -61t13.5 -91.5v-323v0zM435 657q-22 -35 -44.5 -49.5t-54.5 -14.5q-18 0 -33 6t-28 13.5t-25 13.5t-25 6q-14 0 -22 -6t-21 -27q-3 -5 -4 -6t-6 3l-36 23q-5 3 -6 5t3 10
q20 32 41.5 45t51.5 13q18 0 33.5 -6t29 -13.5t25.5 -13.5t25 -6q14 0 23.5 7.5t21.5 27.5q6 9 11 5l36 -22q9 -5 4 -14z" />
    <glyph glyph-name="oacute" unicode="&#xf3;" horiz-adv-x="517" 
d="M449 147q0 -81 -44 -119.5t-145 -38.5t-145 38.5t-44 119.5v228q0 81 44 119.5t145 38.5t145 -38.5t44 -119.5v-228v0zM379 375q0 24 -5 41t-18 27.5t-36.5 15.5t-59.5 5t-59.5 -5t-36.5 -15.5t-18 -27.5t-5 -41v-228q0 -24 5 -41t18 -27.5t36.5 -15.5t59.5 -5t59.5 5
t36.5 15.5t18 27.5t5 41v228zM406 667q3 -7 2.5 -9.5t-6.5 -4.5l-187 -72q-8 -3 -10.5 -2t-4.5 8l-15 34q-4 8 -3 10t9 7l175 91q8 5 11 3.5t6 -9.5l23 -56v0z" />
    <glyph glyph-name="ograve" unicode="&#xf2;" horiz-adv-x="517" 
d="M449 147q0 -81 -44 -119.5t-145 -38.5t-145 38.5t-44 119.5v228q0 81 44 119.5t145 38.5t145 -38.5t44 -119.5v-228v0zM379 375q0 24 -5 41t-18 27.5t-36.5 15.5t-59.5 5t-59.5 -5t-36.5 -15.5t-18 -27.5t-5 -41v-228q0 -24 5 -41t18 -27.5t36.5 -15.5t59.5 -5t59.5 5
t36.5 15.5t18 27.5t5 41v228zM300 589q-2 -7 -4.5 -8t-10.5 2l-187 72q-6 2 -6.5 4.5t2.5 9.5l23 56q3 8 6 9.5t11 -3.5l175 -91q8 -5 9 -7t-3 -10z" />
    <glyph glyph-name="ocircumflex" unicode="&#xf4;" horiz-adv-x="517" 
d="M449 147q0 -81 -44 -119.5t-145 -38.5t-145 38.5t-44 119.5v228q0 81 44 119.5t145 38.5t145 -38.5t44 -119.5v-228v0zM379 375q0 24 -5 41t-18 27.5t-36.5 15.5t-59.5 5t-59.5 -5t-36.5 -15.5t-18 -27.5t-5 -41v-228q0 -24 5 -41t18 -27.5t36.5 -15.5t59.5 -5t59.5 5
t36.5 15.5t18 27.5t5 41v228zM394 619q4 -4 3.5 -6t-4.5 -6l-29 -30q-3 -3 -5 -3.5t-7 3.5l-96 84l-97 -84q-5 -4 -7 -3.5t-5 3.5l-29 30q-7 6 -1 12l128 110q11 10 22 0l127 -110v0z" />
    <glyph glyph-name="odieresis" unicode="&#xf6;" horiz-adv-x="517" 
d="M449 147q0 -81 -44 -119.5t-145 -38.5t-145 38.5t-44 119.5v228q0 81 44 119.5t145 38.5t145 -38.5t44 -119.5v-228v0zM379 375q0 24 -5 41t-18 27.5t-36.5 15.5t-59.5 5t-59.5 -5t-36.5 -15.5t-18 -27.5t-5 -41v-228q0 -24 5 -41t18 -27.5t36.5 -15.5t59.5 -5t59.5 5
t36.5 15.5t18 27.5t5 41v228zM407 656q0 -23 -15.5 -38t-35.5 -15q-25 0 -39.5 15.5t-14.5 37.5t15.5 37.5t38.5 15.5t37 -16t14 -37zM210 656q0 -22 -14.5 -37.5t-39.5 -15.5q-20 0 -35.5 15t-15.5 38q0 21 14 37t37 16t38.5 -15.5t15.5 -37.5z" />
    <glyph glyph-name="otilde" unicode="&#xf5;" horiz-adv-x="517" 
d="M449 147q0 -81 -44 -119.5t-145 -38.5t-145 38.5t-44 119.5v228q0 81 44 119.5t145 38.5t145 -38.5t44 -119.5v-228v0zM379 375q0 24 -5 41t-18 27.5t-36.5 15.5t-59.5 5t-59.5 -5t-36.5 -15.5t-18 -27.5t-5 -41v-228q0 -24 5 -41t18 -27.5t36.5 -15.5t59.5 -5t59.5 5
t36.5 15.5t18 27.5t5 41v228zM414 657q-22 -35 -44.5 -49.5t-54.5 -14.5q-18 0 -33 6t-28 13.5t-25 13.5t-25 6q-14 0 -22 -6t-21 -27q-3 -5 -4 -6t-6 3l-36 23q-5 3 -6 5t3 10q20 32 41.5 45t51.5 13q18 0 33.5 -6t29 -13.5t25.5 -13.5t25 -6q14 0 23.5 7.5t21.5 27.5
q6 9 11 5l36 -22q9 -5 4 -14z" />
    <glyph glyph-name="uacute" unicode="&#xfa;" horiz-adv-x="545" 
d="M496 10q6 -10 -5 -10h-55q-11 0 -17 10q-9 14 -15 28t-13 34q-20 -43 -50.5 -63t-79.5 -20q-43 0 -78 10.5t-60 34t-38.5 61t-13.5 91.5v328q0 9 2.5 11t10.5 2h43q8 0 10.5 -2t2.5 -11v-328q0 -37 7.5 -61.5t23 -39t38 -20.5t52.5 -6q20 0 41 8.5t38.5 26.5t28.5 45.5
t11 65.5v309q0 9 2.5 11t10.5 2h44q8 0 10.5 -2t2.5 -11v-365q0 -39 14 -74.5t32 -64.5zM411 667q3 -7 2.5 -9.5t-6.5 -4.5l-187 -72q-8 -3 -10.5 -2t-4.5 8l-15 34q-4 8 -3 10t9 7l175 91q8 5 11 3.5t6 -9.5l23 -56v0z" />
    <glyph glyph-name="ugrave" unicode="&#xf9;" horiz-adv-x="545" 
d="M496 10q6 -10 -5 -10h-55q-11 0 -17 10q-9 14 -15 28t-13 34q-20 -43 -50.5 -63t-79.5 -20q-43 0 -78 10.5t-60 34t-38.5 61t-13.5 91.5v328q0 9 2.5 11t10.5 2h43q8 0 10.5 -2t2.5 -11v-328q0 -37 7.5 -61.5t23 -39t38 -20.5t52.5 -6q20 0 41 8.5t38.5 26.5t28.5 45.5
t11 65.5v309q0 9 2.5 11t10.5 2h44q8 0 10.5 -2t2.5 -11v-365q0 -39 14 -74.5t32 -64.5zM314 589q-2 -7 -4.5 -8t-10.5 2l-187 72q-6 2 -6.5 4.5t2.5 9.5l23 56q3 8 6 9.5t11 -3.5l175 -91q8 -5 9 -7t-3 -10z" />
    <glyph glyph-name="ucircumflex" unicode="&#xfb;" horiz-adv-x="545" 
d="M496 10q6 -10 -5 -10h-55q-11 0 -17 10q-9 14 -15 28t-13 34q-20 -43 -50.5 -63t-79.5 -20q-43 0 -78 10.5t-60 34t-38.5 61t-13.5 91.5v328q0 9 2.5 11t10.5 2h43q8 0 10.5 -2t2.5 -11v-328q0 -37 7.5 -61.5t23 -39t38 -20.5t52.5 -6q20 0 41 8.5t38.5 26.5t28.5 45.5
t11 65.5v309q0 9 2.5 11t10.5 2h44q8 0 10.5 -2t2.5 -11v-365q0 -39 14 -74.5t32 -64.5zM394 619q4 -4 3.5 -6t-4.5 -6l-29 -30q-3 -3 -5 -3.5t-7 3.5l-96 84l-97 -84q-5 -4 -7 -3.5t-5 3.5l-29 30q-7 6 -1 12l128 110q11 10 22 0l127 -110v0z" />
    <glyph glyph-name="udieresis" unicode="&#xfc;" horiz-adv-x="545" 
d="M496 10q6 -10 -5 -10h-55q-11 0 -17 10q-9 14 -15 28t-13 34q-20 -43 -50.5 -63t-79.5 -20q-43 0 -78 10.5t-60 34t-38.5 61t-13.5 91.5v328q0 9 2.5 11t10.5 2h43q8 0 10.5 -2t2.5 -11v-328q0 -37 7.5 -61.5t23 -39t38 -20.5t52.5 -6q20 0 41 8.5t38.5 26.5t28.5 45.5
t11 65.5v309q0 9 2.5 11t10.5 2h44q8 0 10.5 -2t2.5 -11v-365q0 -39 14 -74.5t32 -64.5zM410 656q0 -23 -15.5 -38t-35.5 -15q-25 0 -39.5 15.5t-14.5 37.5t15.5 37.5t38.5 15.5t37 -16t14 -37zM213 656q0 -22 -14.5 -37.5t-39.5 -15.5q-20 0 -35.5 15t-15.5 38q0 21 14 37
t37 16t38.5 -15.5t15.5 -37.5z" />
    <glyph glyph-name="dagger" unicode="&#x2020;" horiz-adv-x="495" 
d="M411 420q0 -8 -2.5 -10.5t-10.5 -2.5h-115v-606q0 -8 -2.5 -10.5t-10.5 -2.5h-44q-8 0 -10.5 2.5t-2.5 10.5v606h-115q-8 0 -10.5 2.5t-2.5 10.5v43q0 9 2 11.5t11 2.5h115v201q0 8 2.5 11t10.5 3h44q8 0 10.5 -2.5t2.5 -11.5v-201h115q9 0 11 -2.5t2 -14.5v-40v0z" />
    <glyph glyph-name="degree" unicode="&#xb0;" horiz-adv-x="270" 
d="M273 565q0 -26 -9.5 -50t-27 -43t-42.5 -30.5t-56 -11.5q-26 0 -50 9.5t-43 27t-30.5 42.5t-11.5 56q0 25 9.5 49.5t27 43.5t42.5 30.5t56 11.5q25 0 49.5 -9.5t43.5 -27t30.5 -42.5t11.5 -56zM216 565q0 14 -5.5 28t-15.5 25t-24.5 18t-32.5 7q-14 0 -28 -5.5t-25 -15.5
t-18 -24.5t-7 -32.5q0 -14 5.5 -28t15.5 -25t24.5 -18t32.5 -7q14 0 28 5.5t25 15.5t18 24.5t7 32.5z" />
    <glyph glyph-name="cent" unicode="&#xa2;" horiz-adv-x="505" 
d="M459 222q0 -74 -37 -115.5t-117 -41.5v-63q0 -9 -2.5 -11t-10.5 -2h-44q-8 0 -10.5 2t-2.5 11v63q-81 0 -117.5 41.5t-36.5 115.5v196q0 75 35.5 116t118.5 41v61q0 9 2.5 11t10.5 2h44q8 0 10.5 -2t2.5 -11v-61q81 0 117.5 -41.5t36.5 -115.5q0 -13 -9 -13l-50 -3
q-11 0 -11 10v6q0 21 -3.5 37.5t-12.5 28t-25.5 17t-42.5 5.5v-372q50 0 67 22.5t16 65.5q0 10 2.5 13t8.5 3l51 -3q9 0 9 -13zM235 506q-26 0 -42.5 -6t-25.5 -17t-12.5 -27.5t-3.5 -37.5v-196q0 -42 17 -64.5t67 -22.5v371z" />
    <glyph glyph-name="sterling" unicode="&#xa3;" 
d="M458 13q0 -9 -2.5 -11t-10.5 -2h-374q-8 0 -10.5 2t-2.5 11v56q26 18 52 48.5t44.5 66t27.5 71t1 64.5h-101q-9 0 -11 2.5t-2 10.5v44q0 8 2 10.5t11 2.5h74q-28 50 -36 95.5t9 87.5q9 21 25 40t37 33t47 22.5t55 8.5q39 0 82.5 -17.5t81.5 -61.5q5 -7 0 -11l-40 -40
q-2 -2 -4 -2q-4 0 -6 3q-13 14 -24.5 25t-24.5 18.5t-28.5 11.5t-36.5 4q-24 0 -48.5 -10.5t-40.5 -32t-17 -54t23 -75.5q7 -11 12.5 -22.5l10.5 -22.5h107q9 0 11 -2.5t2 -10.5v-44q0 -8 -2 -10.5t-11 -2.5h-84q4 -33 -3 -70t-23 -72q-11 -24 -29.5 -52.5t-42.5 -54.5h287
q8 0 10.5 -2t2.5 -11v-44v0z" />
    <glyph glyph-name="section" unicode="&#xa7;" 
d="M443 70q0 -70 -47 -113.5t-139 -43.5q-32 0 -63.5 8.5t-58 25.5t-46 43.5t-28.5 61.5q-3 8 7 11l43 13q5 2 8.5 2.5t5.5 -6.5q13 -43 51 -65.5t81 -22.5q26 0 47.5 4t37 14.5t24 28t8.5 45.5q0 15 -2.5 28.5t-12.5 24.5t-30.5 19t-56.5 13t-67 10.5t-52 15.5
q-45 21 -59 53t-14 74q0 40 19 71t67 47q-53 19 -70 49.5t-16 67.5q1 67 46 105t131 38q54 0 97.5 -22.5t73.5 -64.5q5 -6 -1 -11l-39 -34q-9 -8 -15 1q-17 25 -45.5 42.5t-70.5 17.5q-49 0 -78 -15.5t-29 -59.5q0 -27 8 -41t25.5 -21.5t45.5 -11t67 -9.5q40 -6 68.5 -20
t45.5 -34.5t25 -47t8 -56.5q0 -42 -15.5 -68.5t-50.5 -44.5q38 -20 52 -53.5t14 -68.5zM374 311q0 15 -5 30t-17.5 27.5t-33.5 20.5t-52 8q-54 0 -85 -20.5t-31 -65.5t31 -60t85 -15q53 0 80.5 14.5t27.5 60.5z" />
    <glyph glyph-name="bullet" unicode="&#x2022;" horiz-adv-x="629" 
d="M505 363q0 -42 -15 -77t-41.5 -60.5t-61 -39.5t-73.5 -14q-42 0 -77 15t-60.5 41.5t-39.5 61t-14 73.5q0 42 15 77t41.5 60.5t61 39.5t73.5 14q42 0 77 -15t60.5 -41.5t39.5 -61t14 -73.5z" />
    <glyph glyph-name="paragraph" unicode="&#xb6;" horiz-adv-x="591" 
d="M213 296q-31 0 -58 9t-47.5 28t-32.5 48.5t-12 69.5v65q0 40 12 69t32 48t47 28t57 9h65v-374h-63zM532 613q0 -8 -2 -10.5t-11 -2.5h-104v-695q0 -9 -2.5 -11t-10.5 -2h-203q-9 0 -11 2.5t-2 10.5v45q0 8 2 10.5t11 2.5h146v691q0 11 2 13.5t11 2.5h161q9 0 11 -2.5
t2 -10.5v-44v0z" />
    <glyph glyph-name="germandbls" unicode="&#xdf;" horiz-adv-x="582" 
d="M519 154q0 -33 -10 -62t-28.5 -50.5t-46 -34t-62.5 -12.5q-45 0 -88 17t-72 57q-2 3 0 5l48 42q2 2 5 0q19 -25 47 -38t60 -13q18 0 32 6.5t24 17.5t15.5 24.5t5.5 27.5q0 21 -3.5 38.5t-15 34t-34 32.5t-59.5 35q-50 25 -68 54t-18 76q0 19 6.5 33.5t17.5 26.5t25 22
l29 21q19 13 26 26t7 42q0 27 -12.5 41t-29 21t-33.5 8t-26 1q-27 0 -46.5 -10.5t-31.5 -27.5t-17.5 -37.5t-5.5 -40.5v-524q0 -9 -2.5 -11t-10.5 -2h-44q-8 0 -10.5 2t-2.5 11v524q0 23 8.5 55t28 61t52.5 49.5t82 20.5q32 0 62.5 -7.5t54.5 -24t39 -43.5t15 -66
q0 -18 -2 -34.5t-8.5 -31.5t-19 -29.5t-32.5 -29.5l-21 -13.5t-15 -11t-9.5 -11.5t-3.5 -15q0 -21 8.5 -34.5t41.5 -29.5q45 -22 73.5 -43t45 -43t23 -47t6.5 -55z" />
    <glyph glyph-name="registered" unicode="&#xae;" horiz-adv-x="576" 
d="M534 576q0 -44 -16.5 -87.5t-48 -78t-76.5 -56t-102 -21.5q-44 0 -87.5 16.5t-78 48t-56 76.5t-21.5 102q0 44 16.5 87.5t48 78t76.5 56t102 21.5q51 0 95.5 -19t77 -51.5t51.5 -77t19 -95.5zM485 576q0 41 -15 76.5t-41 61.5t-61.5 41t-76.5 15q-35 0 -69.5 -13
t-62.5 -38t-45 -61t-17 -82q0 -36 13.5 -70.5t38.5 -62t61 -44.5t81 -17q36 0 70.5 13.5t62 38.5t44.5 61t17 81zM395 433q3 -5 -3 -5h-45q-4 0 -4.5 1t-2.5 3l-55 113h-32v-112q0 -5 -5 -5h-40q-5 0 -5 5v287q0 6 5 6h89q16 0 31.5 -5t28.5 -15.5t21 -27.5t8 -42
q0 -36 -14.5 -55t-35.5 -27l59 -121v0zM336 636q0 24 -11 32.5t-28 8.5h-44v-83h44q18 0 28.5 9.5t10.5 32.5z" />
    <glyph glyph-name="copyright" unicode="&#xa9;" horiz-adv-x="576" 
d="M534 576q0 -44 -16.5 -87.5t-48 -78t-76.5 -56t-102 -21.5q-44 0 -87.5 16.5t-78 48t-56 76.5t-21.5 102q0 44 16.5 87.5t48 78t76.5 56t102 21.5q51 0 95.5 -19t77 -51.5t51.5 -77t19 -95.5zM485 576q0 41 -15 76.5t-41 61.5t-61.5 41t-76.5 15q-35 0 -69.5 -13
t-62.5 -38t-45 -61t-17 -82q0 -36 13.5 -70.5t38.5 -62t61 -44.5t81 -17q36 0 70.5 13.5t62 38.5t44.5 61t17 81zM376 500q0 -34 -22 -54.5t-64 -20.5q-86 0 -86 82v140q0 82 86 82q42 0 64 -20.5t22 -54.5q0 -5 -3 -6l-41 -5q-5 0 -5 4q0 14 -8 23t-29 9t-29 -9t-8 -23
v-140q0 -14 8 -23t29 -9t29 9t8 23q0 4 5 4l41 -5q3 -1 3 -6z" />
    <glyph glyph-name="trademark" unicode="&#x2122;" horiz-adv-x="654" 
d="M622 367q0 -7 -6 -7h-35q-7 0 -7 7l-14 356v22l-2 -10t-3 -12l-63 -225q-2 -5 -3 -5.5t-6 -0.5h-50q-5 0 -6 0.5t-3 5.5l-63 225q-2 7 -3 12l-2 10v-22l-14 -356q0 -7 -7 -7h-35q-6 0 -6 7l16 424q0 5 4 5h72q4 0 6 -5l61 -214q3 -11 3.5 -18t1.5 -18q1 11 1.5 18t3.5 18
l61 214q2 5 6 5h72q4 0 4 -5l16 -424v0zM265 755q0 -9 -8 -9h-90v-378q0 -6 -1 -7t-6 -1h-32q-6 0 -7.5 1t-1.5 7v378h-90q-7 0 -7 9v32q0 6 1 7.5t6 1.5h228q5 0 6.5 -1.5t1.5 -7.5v-32v0z" />
    <glyph glyph-name="acute" unicode="&#xb4;" horiz-adv-x="623" 
d="M432 667q3 -7 2.5 -9.5t-6.5 -4.5l-187 -72q-8 -3 -10.5 -2t-4.5 8l-15 34q-4 8 -3 10t9 7l175 91q8 5 11 3.5t6 -9.5l23 -56v0z" />
    <glyph glyph-name="dieresis" unicode="&#xa8;" horiz-adv-x="533" 
d="M410 656q0 -23 -15.5 -38t-35.5 -15q-25 0 -39.5 15.5t-14.5 37.5t15.5 37.5t38.5 15.5t37 -16t14 -37zM213 656q0 -22 -14.5 -37.5t-39.5 -15.5q-20 0 -35.5 15t-15.5 38q0 21 14 37t37 16t38.5 -15.5t15.5 -37.5z" />
    <glyph glyph-name="AE" unicode="&#xc6;" horiz-adv-x="702" 
d="M678 13q0 -9 -2.5 -11t-10.5 -2h-291q-8 0 -10.5 2t-2.5 11v227h-151l-102 -230q-5 -8 -8 -9t-10 -1h-58q-4 0 -4.5 1t2.5 6l302 678q3 5 4.5 6t6.5 1h322q8 0 10.5 -2t2.5 -11v-44q0 -9 -2.5 -11t-10.5 -2h-234v-210h210q8 0 10.5 -2t2.5 -11v-44q0 -9 -2.5 -11
t-10.5 -2h-209v-272h233q8 0 10.5 -2t2.5 -11v-44v0zM362 579l-122 -271h122v271z" />
    <glyph glyph-name="Oslash" unicode="&#xd8;" horiz-adv-x="567" 
d="M465 607q24 -41 24 -98v-332q0 -90 -54 -139t-145 -49q-75 0 -127 35l-35 -68q-4 -6 -10 -1l-48 26l-4 4t2 9l44 86q-22 42 -22 97v332q0 88 54 136.5t146 48.5q76 0 124 -33l40 75q4 6 10 1l47 -25l4 -4t-1 -7zM380 594q-20 18 -45.5 24t-44.5 6q-18 0 -40.5 -4.5
t-42.5 -18.5t-33.5 -39t-13.5 -67v-307q0 -5 -0.5 -8.5t0.5 -7.5l220 422v0zM419 495v11t-1 10l-220 -426q20 -19 46 -25t46 -6q17 0 39.5 4.5t42.5 18.5t33.5 39t13.5 67v307z" />
    <glyph glyph-name="plusminus" unicode="&#xb1;" 
d="M488 360q0 -8 -2 -10.5t-11 -2.5h-181v-182q0 -9 -2.5 -11t-10.5 -2h-44q-8 0 -10.5 2t-2.5 11v182h-181q-9 0 -11 2.5t-2 10.5v44q0 8 2 10.5t11 2.5h181v180q0 9 2.5 11t10.5 2h44q8 0 10.5 -2t2.5 -11v-180h181q9 0 11 -2.5t2 -10.5v-44v0zM488 61q0 -8 -2 -10.5
t-11 -2.5h-432q-9 0 -11 2.5t-2 10.5v44q0 8 2 10.5t11 2.5h432q9 0 11 -2.5t2 -10.5v-44v0z" />
    <glyph glyph-name="yen" unicode="&#xa5;" 
d="M462 247q0 -8 -2 -10.5t-11 -2.5h-149v-221q0 -9 -2.5 -11t-10.5 -2h-44q-8 0 -10.5 2t-2.5 11v221h-135q-9 0 -11 2.5t-2 10.5v44q0 8 2 10.5t11 2.5h135v45l-26 55h-110q-9 0 -11 2.5t-2 10.5v44q0 8 2 10.5t11 2.5h77l-87 183q-5 12 9 12h50q10 0 12 -1.5t6 -9.5
l90 -193q7 -15 9.5 -27t4.5 -26q2 14 4.5 26t9.5 27l90 193q4 8 6 9.5t12 1.5h50q14 0 9 -12l-87 -183h89q9 0 11 -2.5t2 -10.5v-44q0 -8 -2 -10.5t-11 -2.5h-122l-26 -55v-45h149q9 0 11 -2.5t2 -10.5v-44v0z" />
    <glyph glyph-name="mu" unicode="&#xb5;" 
d="M499 10q6 -10 -5 -10h-55q-11 0 -17 10q-9 14 -15 28.5t-13 34.5q-20 -43 -52 -63.5t-80 -20.5q-80 0 -119 63v-262q0 -9 -2.5 -11t-10.5 -2h-44q-8 0 -10.5 2t-2.5 11v724q0 9 2.5 11t10.5 2h44q8 0 10.5 -2t2.5 -11v-308q0 -38 11 -65.5t28.5 -45.5t39 -26.5t41.5 -8.5
q19 0 40 8.5t38.5 26.5t29 45.5t11.5 65.5v308q0 9 2.5 11t10.5 2h44q8 0 10.5 -2t2.5 -11l1 -364q0 -39 14 -74.5t32 -65.5z" />
    <glyph glyph-name="ordfeminine" unicode="&#xaa;" horiz-adv-x="328" 
d="M286 405q2 -4 -3 -4h-48q-6 0 -9 4q-4 5 -5 7t-4 10q-5 -10 -21 -18.5t-40 -8.5q-61 0 -85 22.5t-24 71.5q0 43 24.5 65t84.5 22h49v24q0 19 -7 27.5t-39 8.5q-29 0 -53 -18q-4 -4 -6 0l-28 41q-4 4 2 7q19 14 43 20.5t48 6.5q20 0 38 -4t31 -14t20.5 -26.5t7.5 -40.5
v-127q0 -22 7.5 -40.5t16.5 -35.5zM289 327q0 -8 -2.5 -10.5t-10.5 -2.5h-215q-8 0 -10.5 2.5t-2.5 10.5v34q0 8 2 10.5t11 2.5h215q8 0 10.5 -2.5t2.5 -10.5v-34v0zM205 519h-49q-32 0 -42 -6t-10 -24q0 -19 9.5 -28t42.5 -9q25 0 37 12t12 32v23z" />
    <glyph glyph-name="ordmasculine" unicode="&#xba;" horiz-adv-x="328" 
d="M272 488q0 -45 -24 -65.5t-79 -20.5t-79 20.5t-24 65.5v124q0 45 24 65.5t79 20.5t79 -20.5t24 -65.5v-124v0zM272 327q0 -8 -2.5 -10.5t-10.5 -2.5h-180q-8 0 -10.5 2.5t-2.5 10.5v34q0 8 2 10.5t11 2.5h180q8 0 10.5 -2.5t2.5 -10.5v-34v0zM215 600q0 17 -7.5 29
t-38.5 12q-16 0 -25 -3t-13.5 -8.5t-6 -13t-1.5 -16.5v-102q0 -8 1.5 -15t6 -12.5t13.5 -8.5t25 -3q31 0 38.5 11.5t7.5 27.5v102z" />
    <glyph glyph-name="ae" unicode="&#xe6;" horiz-adv-x="816" 
d="M748 250q0 -9 -2.5 -10.5t-11.5 -1.5h-294v-91q0 -24 4.5 -41t16.5 -27.5t32 -15t52 -4.5h56q49 0 83 27q4 3 7 -1l35 -50q3 -4 -1 -7q-53 -39 -124 -39h-56q-68 0 -102 18.5t-52 52.5q-23 -34 -58.5 -52t-82.5 -18q-52 0 -88 10.5t-58 31t-32 49.5t-10 67t9.5 68
t31.5 50.5t58 31.5t89 11h120v67q0 46 -21 67t-83 21q-23 0 -56.5 -7.5t-65.5 -30.5q-5 -3 -6.5 -3.5t-4.5 4.5l-31 44q-3 5 -3.5 7t5.5 7q35 23 76 36t86 13t80.5 -10.5t58.5 -36.5q46 46 154 46q101 0 145 -38.5t44 -119.5v-125v0zM678 375q0 24 -5 41t-18 27.5
t-36.5 15.5t-59.5 5t-59.5 -5t-36.5 -15.5t-18 -27.5t-5 -41v-67h238v67zM369 239h-120q-61 0 -89 -19t-28 -72q0 -51 28 -69.5t90 -18.5q19 0 40 8.5t38.5 26.5t29 45.5t11.5 65.5v33z" />
    <glyph glyph-name="oslash" unicode="&#xf8;" 
d="M434 478q29 -36 29 -103v-228q0 -81 -44 -119.5t-145 -38.5q-75 0 -118 21l-34 -58q-2 -4 -3.5 -3.5t-6.5 2.5l-48 26q-4 2 -4.5 4t2.5 7l42 70q-19 35 -19 89v228q0 81 44 119.5t145 38.5q61 0 103 -14l31 51q2 4 3.5 3.5t6.5 -2.5l48 -26q4 -2 4.5 -4t-2.5 -7zM340 458
q-26 6 -66 6q-36 0 -59.5 -5t-36.5 -15.5t-18 -27.5t-5 -41v-228l185 311v0zM393 375q0 8 -0.5 15.5t-1.5 14.5l-199 -335q27 -12 82 -12q36 0 59.5 5t36.5 15.5t18 27.5t5 41v228z" />
    <glyph glyph-name="questiondown" unicode="&#xbf;" horiz-adv-x="471" 
d="M343 457q0 -32 -22.5 -54.5t-54.5 -22.5t-54.5 22.5t-22.5 54.5t22.5 54.5t54.5 22.5t54.5 -22.5t22.5 -54.5zM401 -97q-38 -44 -81.5 -61.5t-82.5 -17.5q-38 0 -70 12t-55.5 34t-36.5 53.5t-13 70.5q0 36 11 68t33 56.5t53.5 40.5t73.5 20v92q0 9 2.5 11t10.5 2h43
q8 0 10.5 -2t2.5 -11v-148q0 -9 -2.5 -11t-10.5 -2h-29q-38 0 -63 -11t-39.5 -27.5t-20 -37.5t-5.5 -40q0 -45 28.5 -72.5t76.5 -27.5q21 0 36.5 4t28.5 11.5t24.5 18.5t24.5 25q2 3 6 3q2 0 4 -2l40 -40q5 -4 0 -11z" />
    <glyph glyph-name="exclamdown" unicode="&#xa1;" horiz-adv-x="311" 
d="M232 457q0 -32 -22.5 -54.5t-54.5 -22.5t-54.5 22.5t-22.5 54.5t22.5 54.5t54.5 22.5t54.5 -22.5t22.5 -54.5zM203 -156q0 -9 -2.5 -11t-10.5 -2h-73q-8 0 -11 2t-2 11l18 428q1 9 4 11t11 2h35q8 0 11 -2t3 -11l17 -428v0z" />
    <glyph glyph-name="logicalnot" unicode="&#xac;" 
d="M488 13q0 -9 -2.5 -11t-10.5 -2h-44q-8 0 -10.5 2t-2.5 11v301h-358q-9 0 -11 2.5t-2 10.5v44q0 8 2 10.5t11 2.5h415q9 0 11 -2.5t2 -10.5v-358v0z" />
    <glyph glyph-name="florin" unicode="&#x192;" 
d="M581 694q3 -3 -1 -7l-46 -50q-3 -4 -7 -1q-28 27 -77 27q-33 0 -55 -5t-35.5 -16t-21 -27.5t-12.5 -39.5l-10 -48h143q8 0 10 -2t0 -11l-9 -44q-2 -9 -5 -11t-11 -2h-140l-110 -503q-7 -33 -20 -60t-35.5 -45.5t-56 -28.5t-81.5 -10q-38 0 -73.5 10t-57.5 29q-3 3 1 7
l46 50q3 4 7 1q28 -27 77 -27q33 0 55 4.5t35.5 15t21 27.5t12.5 41l107 489h-109q-8 0 -10 2t0 11l9 44q2 9 5 11t11 2h107l12 62q6 34 19 60.5t35.5 45t56.5 28.5t82 10q38 0 73.5 -10t57.5 -29z" />
    <glyph glyph-name="guillemotleft" unicode="&#xab;" horiz-adv-x="633" 
d="M557 3q-5 -5 -10 0l-253 254q-9 9 -9 12.5t9 13.5l253 254q5 5 10 0l40 -40q5 -5 0 -10l-217 -217l217 -217q5 -5 0 -10zM323 3q-5 -5 -10 0l-253 254q-9 9 -9 12.5t9 13.5l253 254q5 5 10 0l40 -40q5 -5 0 -10l-217 -217l217 -217q5 -5 0 -10z" />
    <glyph glyph-name="guillemotright" unicode="&#xbb;" horiz-adv-x="633" 
d="M338 3q-5 -5 -10 0l-40 40q-5 5 0 10l217 217l-217 217q-5 5 0 10l40 40q5 5 10 0l253 -254q9 -10 9 -13.5t-9 -12.5zM104 3q-5 -5 -10 0l-40 40q-5 5 0 10l217 217l-217 217q-5 5 0 10l40 40q5 5 10 0l253 -254q9 -10 9 -13.5t-9 -12.5z" />
    <glyph glyph-name="ellipsis" unicode="&#x2026;" horiz-adv-x="842" 
d="M748 67q0 -32 -22.5 -54.5t-54.5 -22.5t-54.5 22.5t-22.5 54.5t22.5 54.5t54.5 22.5t54.5 -22.5t22.5 -54.5zM498 67q0 -32 -22.5 -54.5t-54.5 -22.5t-54.5 22.5t-22.5 54.5t22.5 54.5t54.5 22.5t54.5 -22.5t22.5 -54.5zM248 67q0 -32 -22.5 -54.5t-54.5 -22.5
t-54.5 22.5t-22.5 54.5t22.5 54.5t54.5 22.5t54.5 -22.5t22.5 -54.5z" />
    <glyph glyph-name="Agrave" unicode="&#xc0;" horiz-adv-x="545" 
d="M520 7q2 -5 1 -6t-5 -1h-54q-7 0 -10 1t-5 9l-68 228h-211l-67 -228q-2 -8 -5 -9t-10 -1h-54q-4 0 -5 1t1 6l197 678q2 5 3 6t6 1h82q5 0 6 -1t3 -6l195 -678v0zM301 527q-11 38 -16.5 63t-8.5 52q-5 -27 -10.5 -52t-16.5 -63l-62 -219h175zM311 744q-2 -7 -4.5 -8
t-10.5 2l-187 72q-6 2 -6.5 4.5t2.5 9.5l23 56q3 8 6 9.5t11 -3.5l175 -91q8 -5 9 -7t-3 -10z" />
    <glyph glyph-name="Atilde" unicode="&#xc3;" horiz-adv-x="545" 
d="M520 7q2 -5 1 -6t-5 -1h-54q-7 0 -10 1t-5 9l-68 228h-211l-67 -228q-2 -8 -5 -9t-10 -1h-54q-4 0 -5 1t1 6l197 678q2 5 3 6t6 1h82q5 0 6 -1t3 -6l195 -678v0zM301 527q-11 38 -16.5 63t-8.5 52q-5 -27 -10.5 -52t-16.5 -63l-62 -219h175zM427 819q-22 -35 -44.5 -49.5
t-54.5 -14.5q-18 0 -33 6t-28 13.5t-25 13.5t-25 6q-14 0 -22 -6t-21 -27q-3 -5 -4 -6t-6 3l-36 23q-5 3 -6 5t3 10q20 32 41.5 45t51.5 13q18 0 33.5 -6t29 -13.5t25.5 -13.5t25 -6q14 0 23.5 7.5t21.5 27.5q6 9 11 5l36 -22q9 -5 4 -14z" />
    <glyph glyph-name="Otilde" unicode="&#xd5;" horiz-adv-x="569" 
d="M488 177q0 -90 -54 -139t-145 -49q-92 0 -146 49t-54 139v336q0 88 54 136.5t146 48.5q91 0 145 -48.5t54 -136.5v-336v0zM418 499q0 42 -13.5 67t-33.5 39t-42.5 18.5t-39.5 4.5q-18 0 -40.5 -4.5t-42.5 -18.5t-33.5 -39t-13.5 -67v-311q0 -42 13.5 -67t33.5 -39
t42.5 -18.5t40.5 -4.5q17 0 39.5 4.5t42.5 18.5t33.5 39t13.5 67v311zM430 821q-22 -35 -44.5 -49.5t-54.5 -14.5q-18 0 -33 6t-28 13.5t-25 13.5t-25 6q-14 0 -22 -6t-21 -27q-3 -5 -4 -6t-6 3l-36 23q-5 3 -6 5t3 10q20 32 41.5 45t51.5 13q18 0 33.5 -6t29 -13.5
t25.5 -13.5t25 -6q14 0 23.5 7.5t21.5 27.5q6 9 11 5l36 -22q9 -5 4 -14z" />
    <glyph glyph-name="OE" unicode="&#x152;" horiz-adv-x="823" 
d="M750 13q0 -9 -2.5 -11t-10.5 -2h-308q-8 0 -10.5 2t-2.5 11v18q-25 -23 -57.5 -32.5t-71.5 -9.5q-92 0 -146 49t-54 139v337q0 88 54 136.5t146 48.5q79 0 129 -36v16q0 9 2.5 11t10.5 2h308q8 0 10.5 -2t2.5 -11v-44q0 -9 -2.5 -11t-10.5 -2h-251v-210h227q8 0 10.5 -2
t2.5 -11v-44q0 -9 -2.5 -11t-10.5 -2h-226v-272h250q8 0 10.5 -2t2.5 -11v-44v0zM416 500q0 42 -13.5 67t-33.5 39t-42.5 18.5t-39.5 4.5q-18 0 -40.5 -4.5t-42.5 -18.5t-33.5 -39t-13.5 -67v-312q0 -42 13.5 -67t33.5 -39t42.5 -18.5t40.5 -4.5q17 0 39.5 4.5t42.5 18.5
t33.5 39t13.5 67v312z" />
    <glyph glyph-name="oe" unicode="&#x153;" horiz-adv-x="849" 
d="M769 250q0 -9 -2.5 -10.5t-11.5 -1.5h-294v-91q0 -24 4.5 -41t16 -27.5t31.5 -15t52 -4.5h56q49 0 83 27q4 3 7 -1l35 -50q3 -4 -1 -7q-53 -39 -124 -39h-56q-55 0 -87.5 13.5t-49.5 40.5q-20 -26 -49.5 -38.5t-64.5 -13.5q-40 -1 -82 0q-30 1 -57 10.5t-47 28.5t-32 48
t-12 70v228q0 40 12 69.5t32 48.5t47 28.5t57 10.5q42 1 82 0q34 -1 63.5 -12.5t49.5 -35.5q44 48 153 48q101 0 145 -38.5t44 -119.5v-125v0zM699 375q0 24 -5 41t-18 27.5t-36.5 15.5t-59.5 5t-59.5 -5t-36.5 -15.5t-18 -27.5t-5 -41v-67h238v67zM392 376q0 40 -18.5 63
t-61.5 24q-14 0 -22.5 0.5t-16.5 0.5t-16.5 -0.5t-22.5 -0.5q-42 -1 -61 -21.5t-19 -65.5v-228q0 -48 20.5 -67t59.5 -20q14 0 22.5 -0.5t16 -0.5t16 0.5t22.5 0.5q36 1 58.5 19.5t22.5 67.5v228z" />
    <glyph glyph-name="endash" unicode="&#x2013;" 
d="M488 328q0 -8 -2 -10.5t-11 -2.5h-411q-9 0 -11 2.5t-2 10.5v44q0 8 2 10.5t11 2.5h411q9 0 11 -2.5t2 -10.5v-44v0z" />
    <glyph glyph-name="emdash" unicode="&#x2014;" horiz-adv-x="635" 
d="M629 328q0 -8 -2 -10.5t-11 -2.5h-594q-9 0 -11 2.5t-2 10.5v44q0 8 2 10.5t11 2.5h594q9 0 11 -2.5t2 -10.5v-44v0z" />
    <glyph glyph-name="quotedblleft" unicode="&#x201c;" horiz-adv-x="465" 
d="M407 611q0 -32 -22.5 -54.5t-54.5 -22.5t-55 24.5t-23 60.5q0 23 6 45.5t19.5 44t36 42.5t56.5 41q7 4 9.5 4t8.5 -7l13 -16q5 -5 5 -8t-5 -8q-13 -11 -22 -19.5t-15 -16.5t-10 -16.5t-8 -20.5q10 0 21 -5.5t20 -15t14.5 -23t5.5 -29.5zM214 611q0 -32 -22.5 -54.5
t-54.5 -22.5t-55 24.5t-23 60.5q0 23 6 45.5t19.5 44t36 42.5t56.5 41q7 4 9.5 4t8.5 -7l13 -16q5 -5 5 -8t-5 -8q-13 -11 -22 -19.5t-15 -16.5t-10 -16.5t-8 -20.5q10 0 21 -5.5t20 -15t14.5 -23t5.5 -29.5z" />
    <glyph glyph-name="quotedblright" unicode="&#x201d;" horiz-adv-x="465" 
d="M407 711q0 -47 -25.5 -90t-92.5 -83q-7 -4 -9.5 -4t-8.5 7l-13 16q-5 5 -5 8t5 8q26 22 36.5 36t18.5 37q-10 0 -21 5.5t-20 15t-14.5 23t-5.5 29.5q0 32 22.5 54.5t54.5 22.5t55 -24.5t23 -60.5zM214 711q0 -47 -25.5 -90t-92.5 -83q-7 -4 -9.5 -4t-8.5 7l-13 16
q-5 5 -5 8t5 8q26 22 36.5 36t18.5 37q-10 0 -21 5.5t-20 15t-14.5 23t-5.5 29.5q0 32 22.5 54.5t54.5 22.5t55 -24.5t23 -60.5z" />
    <glyph glyph-name="quoteleft" unicode="&#x2018;" horiz-adv-x="272" 
d="M214 611q0 -32 -22.5 -54.5t-54.5 -22.5t-55 24.5t-23 60.5q0 23 6 45.5t19.5 44t36 42.5t56.5 41q7 4 9.5 4t8.5 -7l13 -16q5 -5 5 -8t-5 -8q-13 -11 -22 -19.5t-15 -16.5t-10 -16.5t-8 -20.5q10 0 21 -5.5t20 -15t14.5 -23t5.5 -29.5z" />
    <glyph glyph-name="quoteright" unicode="&#x2019;" horiz-adv-x="272" 
d="M187 711q0 -47 -25.5 -90t-92.5 -83q-7 -4 -9.5 -4t-8.5 7l-13 16q-5 5 -5 8t5 8q26 22 36.5 36t18.5 37q-10 0 -21 5.5t-20 15t-14.5 23t-5.5 29.5q0 32 22.5 54.5t54.5 22.5t55 -24.5t23 -60.5z" />
    <glyph glyph-name="divide" unicode="&#xf7;" 
d="M325 522q0 -24 -16 -42t-42 -18q-24 0 -41 17t-17 43q0 23 16 41t42 18q24 0 41 -17t17 -42zM516 328q0 -8 -2 -10.5t-11 -2.5h-472q-9 0 -11 2.5t-2 10.5v44q0 8 2 10.5t11 2.5h472q9 0 11 -2.5t2 -10.5v-44v0zM325 179q0 -24 -16 -42t-42 -18q-24 0 -41 17t-17 43
q0 23 16 41t42 18q24 0 41 -17t17 -42z" />
    <glyph glyph-name="ydieresis" unicode="&#xff;" horiz-adv-x="447" 
d="M298 85q-5 -16 -11.5 -43t-14.5 -56.5l-16 -56.5t-15 -43q-14 -32 -35 -51t-46 -29.5t-51.5 -14t-50.5 -3.5q-45 0 -86 13t-76 36q-6 5 -5.5 7t3.5 7l31 44q3 5 4.5 4.5t6.5 -3.5q32 -23 65.5 -30.5t56.5 -7.5q21 0 38 1.5t31.5 7t26.5 16.5t22 30q4 9 7.5 21l9 30
t12.5 44l18 64h-51q-8 0 -10 1t-4 9l-130 433q-3 9 -1 10.5t11 1.5h50q7 0 9 -1.5t4 -9.5l126 -424l114 424q2 8 4 9.5t9 1.5h50q9 0 10.5 -1.5t-0.5 -10.5zM378 656q0 -23 -15.5 -38t-35.5 -15q-25 0 -39.5 15.5t-14.5 37.5t15.5 37.5t38.5 15.5t37 -16t14 -37zM181 656
q0 -22 -14.5 -37.5t-39.5 -15.5q-20 0 -35.5 15t-15.5 38q0 21 14 37t37 16t38.5 -15.5t15.5 -37.5z" />
    <glyph glyph-name="Ydieresis" unicode="&#x178;" horiz-adv-x="499" 
d="M296 349v-336q0 -9 -2.5 -11t-10.5 -2h-44q-8 0 -10.5 2t-2.5 11v336l-157 331q-5 12 9 12h50q10 0 12.5 -1.5t5.5 -9.5l87 -192q6 -12 10 -22t7 -20.5t5.5 -22.5t5.5 -29q3 17 5.5 29t5.5 22.5t7 20.5t10 22l87 192q3 8 5.5 9.5t12.5 1.5h50q14 0 9 -12zM416 803
q0 -23 -15.5 -38t-35.5 -15q-25 0 -39.5 15.5t-14.5 37.5t15.5 37.5t38.5 15.5t37 -16t14 -37zM219 803q0 -22 -14.5 -37.5t-39.5 -15.5q-20 0 -35.5 15t-15.5 38q0 21 14 37t37 16t38.5 -15.5t15.5 -37.5z" />
    <glyph glyph-name="fraction" horiz-adv-x="211" 
d="M37 10q-4 -8 -7 -9t-9 -1h-40q-8 0 -9.5 2t1.5 8l194 671q3 6 6 8.5t13 2.5h34q16 0 9 -12z" />
    <glyph glyph-name="currency" unicode="&#xa4;" horiz-adv-x="464" 
d="M451 13q0 -9 -2.5 -11t-10.5 -2h-321q-8 0 -10.5 2t-2.5 11l1 247h-63q-10 0 -11.5 2.5t1.5 10.5l16 47q2 8 5 9t14 1h38v46h-65q-10 0 -11.5 2.5t1.5 10.5l16 46q3 8 5.5 9t13.5 1h39v212q0 9 2.5 11t10.5 2h322q10 0 11.5 -2.5t-1.5 -10.5l-16 -47q-2 -8 -5 -9t-12 -1
h-242v-154h182q10 0 11.5 -2.5t-1.5 -10.5l-16 -47q-2 -8 -5 -9t-12 -1h-158v-46h140q10 0 11.5 -2.5t-1.5 -10.5l-16 -47q-2 -8 -5 -9t-12 -1h-117v-190h263q8 0 10.5 -2t2.5 -11v-44v0z" />
    <glyph glyph-name="guilsinglleft" unicode="&#x2039;" horiz-adv-x="399" 
d="M323 3q-5 -5 -10 0l-253 254q-9 9 -9 12.5t9 13.5l253 254q5 5 10 0l40 -40q5 -5 0 -10l-217 -217l217 -217q5 -5 0 -10z" />
    <glyph glyph-name="guilsinglright" unicode="&#x203a;" horiz-adv-x="399" 
d="M104 3q-5 -5 -10 0l-40 40q-5 5 0 10l217 217l-217 217q-5 5 0 10l40 40q5 5 10 0l253 -254q9 -10 9 -13.5t-9 -12.5z" />
    <glyph glyph-name="fi" horiz-adv-x="677" 
d="M578 665q0 -24 -16 -42t-42 -18q-24 0 -41 17t-17 43q0 23 16 41t42 18q24 0 41 -17t17 -42zM567 13q0 -9 -2.5 -11t-10.5 -2h-44q-8 0 -10.5 2t-2.5 11v444h-261v-457h-70v457h-109q-8 0 -10.5 2t-2.5 11v44q0 9 2.5 11t10.5 2h109v53q0 75 42.5 114t109.5 39
q42 0 70.5 -14.5t56.5 -36.5q4 -3 1 -7l-35 -50q-3 -4 -7 -1q-21 17 -42.5 28t-43.5 11q-11 0 -25.5 -2t-27 -10.5t-21 -25t-8.5 -45.5v-53h318q8 0 10.5 -2t2.5 -11v-501v0z" />
    <glyph glyph-name="fl" horiz-adv-x="714" 
d="M719 36q3 -4 -2 -8q-27 -19 -55 -29t-66 -10q-21 0 -45.5 8t-45 25t-34.5 43t-14 63v535h-139q-11 0 -25.5 -2t-27 -10.5t-21 -25t-8.5 -45.5v-53h142q8 0 10.5 -2t2.5 -11v-44q0 -9 -2.5 -11t-10.5 -2h-142v-457h-70v457h-109q-8 0 -10.5 2t-2.5 11v44q0 9 2.5 11
t10.5 2h109v53q0 75 42.5 114t109.5 39l196 1q8 0 10.5 -2t2.5 -11v-593q0 -20 7.5 -33t18 -21t22.5 -11.5t21 -3.5q47 0 81 27q4 3 7 -1l35 -49v0z" />
    <glyph glyph-name="daggerdbl" unicode="&#x2021;" horiz-adv-x="495" 
d="M411 49q0 -8 -2.5 -10.5t-10.5 -2.5h-115v-235q0 -8 -2.5 -10.5t-10.5 -2.5h-44q-8 0 -10.5 2.5t-2.5 10.5v235h-115q-9 0 -11 2.5t-2 10.5v43q0 9 2 11.5t11 2.5h115v301h-115q-8 0 -10.5 2.5t-2.5 10.5v43q0 9 2 11.5t11 2.5h115v201q0 8 2.5 11t10.5 3h44
q8 0 10.5 -2.5t2.5 -11.5v-201h115q9 0 11 -2.5t2 -14.5v-40q0 -8 -2.5 -10.5t-10.5 -2.5h-115v-301h115q8 0 10.5 -2.5t2.5 -11.5v-43v0z" />
    <glyph glyph-name="periodcentered" unicode="&#xb7;" horiz-adv-x="239" 
d="M193 355q0 -32 -22.5 -54.5t-54.5 -22.5t-54.5 22.5t-22.5 54.5t22.5 54.5t54.5 22.5t54.5 -22.5t22.5 -54.5z" />
    <glyph glyph-name="periodcentered" unicode="&#x2219;" horiz-adv-x="239" 
d="M193 355q0 -32 -22.5 -54.5t-54.5 -22.5t-54.5 22.5t-22.5 54.5t22.5 54.5t54.5 22.5t54.5 -22.5t22.5 -54.5z" />
    <glyph glyph-name="quotesinglbase" unicode="&#x201a;" horiz-adv-x="270" 
d="M214 42q0 -49 -33.5 -91.5t-94.5 -87.5l-29 34q21 23 35 41.5l28 38.5q-10 0 -21 5.5t-20 15t-14.5 23t-5.5 29.5q0 32 22.5 54.5t54.5 22.5t55 -24.5t23 -60.5z" />
    <glyph glyph-name="quotedblbase" unicode="&#x201e;" horiz-adv-x="465" 
d="M409 58q0 -49 -33.5 -91.5t-94.5 -87.5l-29 34q21 23 35 41.5l28 38.5q-10 0 -21 5.5t-20 15t-14.5 23t-5.5 29.5q0 32 22.5 54.5t54.5 22.5t55 -24.5t23 -60.5zM216 58q0 -49 -33.5 -91.5t-94.5 -87.5l-29 34q21 23 35 41.5l28 38.5q-10 0 -21 5.5t-20 15t-14.5 23
t-5.5 29.5q0 32 22.5 54.5t54.5 22.5t55 -24.5t23 -60.5z" />
    <glyph glyph-name="perthousand" unicode="&#x2030;" horiz-adv-x="889" 
d="M860 123q0 -29 -6 -53t-20 -42t-37 -28t-56 -10q-34 0 -57 10t-37 28t-20 42t-6 53v62q0 28 6 52.5t20 42.5t37 28t57 10q33 0 56 -10t37 -28t20 -42.5t6 -52.5v-62v0zM269 481q0 -29 -6 -53t-20 -42t-37 -28t-56 -10q-34 0 -57 10t-37 28t-20 42t-6 53v62q0 28 6 52.5
t20 42.5t37 28t57 10q33 0 56 -10t37 -28t20 -42.5t6 -52.5v-62v0zM179 10q-4 -8 -7 -9t-9 -1h-56q-8 0 -9.5 2t1.5 8l335 650q3 6 6 8.5t13 2.5h50q16 0 9 -12zM586 123q0 -29 -6 -53t-20 -42t-37 -28t-56 -10q-34 0 -57 10t-37 28t-20 42t-6 53v62q0 28 6 52.5t20 42.5
t37 28t57 10q33 0 56 -10t37 -28t20 -42.5t6 -52.5v-62v0zM791 185q0 11 -0.5 22.5t-5 20.5t-15 14.5t-29.5 5.5q-20 0 -30 -5.5t-15 -14.5t-5.5 -20.5t-0.5 -22.5v-62q0 -11 1 -22.5t6 -20.5t15.5 -14.5t28.5 -5.5t28 5.5t15 14.5t6 20.5t1 22.5v62zM200 543
q0 11 -0.5 22.5t-5 20.5t-15 14.5t-29.5 5.5q-20 0 -30 -5.5t-15 -14.5t-5.5 -20.5t-0.5 -22.5v-62q0 -11 1 -22.5t6 -20.5t15.5 -14.5t28.5 -5.5t28 5.5t15 14.5t6 20.5t1 22.5v62zM517 185q0 11 -0.5 22.5t-5 20.5t-15 14.5t-29.5 5.5q-20 0 -30 -5.5t-15 -14.5
t-5.5 -20.5t-0.5 -22.5v-62q0 -11 1 -22.5t6 -20.5t15.5 -14.5t28.5 -5.5t28 5.5t15 14.5t6 20.5t1 22.5v62z" />
    <glyph glyph-name="Acircumflex" unicode="&#xc2;" horiz-adv-x="545" 
d="M520 7q2 -5 1 -6t-5 -1h-54q-7 0 -10 1t-5 9l-68 228h-211l-67 -228q-2 -8 -5 -9t-10 -1h-54q-4 0 -5 1t1 6l197 678q2 5 3 6t6 1h82q5 0 6 -1t3 -6l195 -678v0zM301 527q-11 38 -16.5 63t-8.5 52q-5 -27 -10.5 -52t-16.5 -63l-62 -219h175zM415 779q4 -4 3.5 -6t-4.5 -6
l-29 -30q-3 -3 -5 -3.5t-7 3.5l-96 84l-97 -84q-5 -4 -7 -3.5t-5 3.5l-29 30q-7 6 -1 12l128 110q11 10 22 0l127 -110v0z" />
    <glyph glyph-name="Ecircumflex" unicode="&#xca;" horiz-adv-x="464" 
d="M445 13q0 -9 -2.5 -11t-10.5 -2h-330q-8 0 -10.5 2t-2.5 11v666q0 9 2.5 11t10.5 2h311q8 0 10.5 -2t2.5 -11v-44q0 -9 -2.5 -11t-13.5 -2h-251v-210h249q8 0 10.5 -2t2.5 -11v-44q0 -9 -2.5 -11t-10.5 -2h-248v-272h272q8 0 10.5 -2t2.5 -11v-44v0zM392 780q4 -4 3.5 -6
t-4.5 -6l-29 -30q-3 -3 -5 -3.5t-7 3.5l-96 84l-97 -84q-5 -4 -7 -3.5t-5 3.5l-29 30q-7 6 -1 12l128 110q11 10 22 0l127 -110v0z" />
    <glyph glyph-name="Aacute" unicode="&#xc1;" horiz-adv-x="545" 
d="M520 7q2 -5 1 -6t-5 -1h-54q-7 0 -10 1t-5 9l-68 228h-211l-67 -228q-2 -8 -5 -9t-10 -1h-54q-4 0 -5 1t1 6l197 678q2 5 3 6t6 1h82q5 0 6 -1t3 -6l195 -678v0zM301 527q-11 38 -16.5 63t-8.5 52q-5 -27 -10.5 -52t-16.5 -63l-62 -219h175zM445 821q3 -7 2.5 -9.5
t-6.5 -4.5l-187 -72q-8 -3 -10.5 -2t-4.5 8l-15 34q-4 8 -3 10t9 7l175 91q8 5 11 3.5t6 -9.5l23 -56v0z" />
    <glyph glyph-name="Edieresis" unicode="&#xcb;" horiz-adv-x="464" 
d="M445 13q0 -9 -2.5 -11t-10.5 -2h-330q-8 0 -10.5 2t-2.5 11v666q0 9 2.5 11t10.5 2h311q8 0 10.5 -2t2.5 -11v-44q0 -9 -2.5 -11t-13.5 -2h-251v-210h249q8 0 10.5 -2t2.5 -11v-44q0 -9 -2.5 -11t-10.5 -2h-248v-272h272q8 0 10.5 -2t2.5 -11v-44v0zM402 804
q0 -23 -15.5 -38t-35.5 -15q-25 0 -39.5 15.5t-14.5 37.5t15.5 37.5t38.5 15.5t37 -16t14 -37zM205 804q0 -22 -14.5 -37.5t-39.5 -15.5q-20 0 -35.5 15t-15.5 38q0 21 14 37t37 16t38.5 -15.5t15.5 -37.5z" />
    <glyph glyph-name="Egrave" unicode="&#xc8;" horiz-adv-x="464" 
d="M445 13q0 -9 -2.5 -11t-10.5 -2h-330q-8 0 -10.5 2t-2.5 11v666q0 9 2.5 11t10.5 2h311q8 0 10.5 -2t2.5 -11v-44q0 -9 -2.5 -11t-13.5 -2h-251v-210h249q8 0 10.5 -2t2.5 -11v-44q0 -9 -2.5 -11t-10.5 -2h-248v-272h272q8 0 10.5 -2t2.5 -11v-44v0zM317 743
q-2 -7 -4.5 -8t-10.5 2l-187 72q-6 2 -6.5 4.5t2.5 9.5l23 56q3 8 6 9.5t11 -3.5l175 -91q8 -5 9 -7t-3 -10z" />
    <glyph glyph-name="Iacute" unicode="&#xcd;" horiz-adv-x="403" 
d="M343 13q0 -9 -2.5 -11t-10.5 -2h-256q-8 0 -10.5 2t-2.5 11v44q0 9 2.5 11t10.5 2h92v552h-92q-8 0 -10.5 2t-2.5 11v44q0 9 2.5 11t10.5 2h256q8 0 10.5 -2t2.5 -11v-44q0 -9 -2.5 -11t-10.5 -2h-94v-552h94q8 0 10.5 -2t2.5 -11v-44v0zM342 822q3 -7 2.5 -9.5
t-6.5 -4.5l-187 -72q-8 -3 -10.5 -2t-4.5 8l-15 34q-4 8 -3 10t9 7l175 91q8 5 11 3.5t6 -9.5l23 -56v0z" />
    <glyph glyph-name="Icircumflex" unicode="&#xce;" horiz-adv-x="403" 
d="M343 13q0 -9 -2.5 -11t-10.5 -2h-256q-8 0 -10.5 2t-2.5 11v44q0 9 2.5 11t10.5 2h92v552h-92q-8 0 -10.5 2t-2.5 11v44q0 9 2.5 11t10.5 2h256q8 0 10.5 -2t2.5 -11v-44q0 -9 -2.5 -11t-10.5 -2h-94v-552h94q8 0 10.5 -2t2.5 -11v-44v0zM341 779q4 -4 3.5 -6t-4.5 -6
l-29 -30q-3 -3 -5 -3.5t-7 3.5l-96 84l-97 -84q-5 -4 -7 -3.5t-5 3.5l-29 30q-7 6 -1 12l128 110q11 10 22 0l127 -110v0z" />
    <glyph glyph-name="Idieresis" unicode="&#xcf;" horiz-adv-x="403" 
d="M343 13q0 -9 -2.5 -11t-10.5 -2h-256q-8 0 -10.5 2t-2.5 11v44q0 9 2.5 11t10.5 2h92v552h-92q-8 0 -10.5 2t-2.5 11v44q0 9 2.5 11t10.5 2h256q8 0 10.5 -2t2.5 -11v-44q0 -9 -2.5 -11t-10.5 -2h-94v-552h94q8 0 10.5 -2t2.5 -11v-44v0zM357 804q0 -23 -15.5 -38
t-35.5 -15q-25 0 -39.5 15.5t-14.5 37.5t15.5 37.5t38.5 15.5t37 -16t14 -37zM160 804q0 -22 -14.5 -37.5t-39.5 -15.5q-20 0 -35.5 15t-15.5 38q0 21 14 37t37 16t38.5 -15.5t15.5 -37.5z" />
    <glyph glyph-name="Igrave" unicode="&#xcc;" horiz-adv-x="403" 
d="M343 13q0 -9 -2.5 -11t-10.5 -2h-256q-8 0 -10.5 2t-2.5 11v44q0 9 2.5 11t10.5 2h92v552h-92q-8 0 -10.5 2t-2.5 11v44q0 9 2.5 11t10.5 2h256q8 0 10.5 -2t2.5 -11v-44q0 -9 -2.5 -11t-10.5 -2h-94v-552h94q8 0 10.5 -2t2.5 -11v-44v0zM254 743q-2 -7 -4.5 -8t-10.5 2
l-187 72q-6 2 -6.5 4.5t2.5 9.5l23 56q3 8 6 9.5t11 -3.5l175 -91q8 -5 9 -7t-3 -10z" />
    <glyph glyph-name="Oacute" unicode="&#xd3;" horiz-adv-x="569" 
d="M488 177q0 -90 -54 -139t-145 -49q-92 0 -146 49t-54 139v336q0 88 54 136.5t146 48.5q91 0 145 -48.5t54 -136.5v-336v0zM418 499q0 42 -13.5 67t-33.5 39t-42.5 18.5t-39.5 4.5q-18 0 -40.5 -4.5t-42.5 -18.5t-33.5 -39t-13.5 -67v-311q0 -42 13.5 -67t33.5 -39
t42.5 -18.5t40.5 -4.5q17 0 39.5 4.5t42.5 18.5t33.5 39t13.5 67v311zM425 824q3 -7 2.5 -9.5t-6.5 -4.5l-187 -72q-8 -3 -10.5 -2t-4.5 8l-15 34q-4 8 -3 10t9 7l175 91q8 5 11 3.5t6 -9.5l23 -56v0z" />
    <glyph glyph-name="Ocircumflex" unicode="&#xd4;" horiz-adv-x="569" 
d="M488 177q0 -90 -54 -139t-145 -49q-92 0 -146 49t-54 139v336q0 88 54 136.5t146 48.5q91 0 145 -48.5t54 -136.5v-336v0zM418 499q0 42 -13.5 67t-33.5 39t-42.5 18.5t-39.5 4.5q-18 0 -40.5 -4.5t-42.5 -18.5t-33.5 -39t-13.5 -67v-311q0 -42 13.5 -67t33.5 -39
t42.5 -18.5t40.5 -4.5q17 0 39.5 4.5t42.5 18.5t33.5 39t13.5 67v311zM421 777q4 -4 3.5 -6t-4.5 -6l-29 -30q-3 -3 -5 -3.5t-7 3.5l-96 84l-97 -84q-5 -4 -7 -3.5t-5 3.5l-29 30q-7 6 -1 12l128 110q11 10 22 0l127 -110v0z" />
    <glyph glyph-name="Ograve" unicode="&#xd2;" horiz-adv-x="569" 
d="M488 177q0 -90 -54 -139t-145 -49q-92 0 -146 49t-54 139v336q0 88 54 136.5t146 48.5q91 0 145 -48.5t54 -136.5v-336v0zM418 499q0 42 -13.5 67t-33.5 39t-42.5 18.5t-39.5 4.5q-18 0 -40.5 -4.5t-42.5 -18.5t-33.5 -39t-13.5 -67v-311q0 -42 13.5 -67t33.5 -39
t42.5 -18.5t40.5 -4.5q17 0 39.5 4.5t42.5 18.5t33.5 39t13.5 67v311zM331 744q-2 -7 -4.5 -8t-10.5 2l-187 72q-6 2 -6.5 4.5t2.5 9.5l23 56q3 8 6 9.5t11 -3.5l175 -91q8 -5 9 -7t-3 -10z" />
    <glyph glyph-name="Uacute" unicode="&#xda;" horiz-adv-x="574" 
d="M488 177q0 -90 -54 -139t-145 -49q-92 0 -146 49t-54 139v502q0 9 2.5 11t10.5 2h44q8 0 10.5 -2t2.5 -11v-491q0 -42 13.5 -67t33.5 -39t42.5 -18.5t40.5 -4.5q17 0 39.5 4.5t42.5 18.5t33.5 39t13.5 67v491q0 9 2.5 11t10.5 2h44q8 0 10.5 -2t2.5 -11v-502v0zM427 825
q3 -7 2.5 -9.5t-6.5 -4.5l-187 -72q-8 -3 -10.5 -2t-4.5 8l-15 34q-4 8 -3 10t9 7l175 91q8 5 11 3.5t6 -9.5l23 -56v0z" />
    <glyph glyph-name="Ucircumflex" unicode="&#xdb;" horiz-adv-x="574" 
d="M488 177q0 -90 -54 -139t-145 -49q-92 0 -146 49t-54 139v502q0 9 2.5 11t10.5 2h44q8 0 10.5 -2t2.5 -11v-491q0 -42 13.5 -67t33.5 -39t42.5 -18.5t40.5 -4.5q17 0 39.5 4.5t42.5 18.5t33.5 39t13.5 67v491q0 9 2.5 11t10.5 2h44q8 0 10.5 -2t2.5 -11v-502v0zM431 780
q4 -4 3.5 -6t-4.5 -6l-29 -30q-3 -3 -5 -3.5t-7 3.5l-96 84l-97 -84q-5 -4 -7 -3.5t-5 3.5l-29 30q-7 6 -1 12l128 110q11 10 22 0l127 -110v0z" />
    <glyph glyph-name="Ugrave" unicode="&#xd9;" horiz-adv-x="574" 
d="M488 177q0 -90 -54 -139t-145 -49q-92 0 -146 49t-54 139v502q0 9 2.5 11t10.5 2h44q8 0 10.5 -2t2.5 -11v-491q0 -42 13.5 -67t33.5 -39t42.5 -18.5t40.5 -4.5q17 0 39.5 4.5t42.5 18.5t33.5 39t13.5 67v491q0 9 2.5 11t10.5 2h44q8 0 10.5 -2t2.5 -11v-502v0zM362 744
q-2 -7 -4.5 -8t-10.5 2l-187 72q-6 2 -6.5 4.5t2.5 9.5l23 56q3 8 6 9.5t11 -3.5l175 -91q8 -5 9 -7t-3 -10z" />
    <glyph glyph-name="dotlessi" unicode="&#xd;" horiz-adv-x="374" 
d="M264 13q0 -9 -2.5 -11t-10.5 -2h-44q-8 0 -10.5 2t-2.5 11v444h-170q-9 0 -11 2.5t-2 10.5v44q0 8 2 10.5t11 2.5h227q8 0 10.5 -2t2.5 -11v-501v0z" />
    <glyph glyph-name="circumflex" unicode="&#x2c6;" horiz-adv-x="547" 
d="M415 619q4 -4 3.5 -6t-4.5 -6l-29 -30q-3 -3 -5 -3.5t-7 3.5l-96 84l-97 -84q-5 -4 -7 -3.5t-5 3.5l-29 30q-7 6 -1 12l128 110q11 10 22 0l127 -110v0z" />
    <glyph glyph-name="tilde" unicode="&#x2dc;" horiz-adv-x="549" 
d="M425 657q-22 -35 -44.5 -49.5t-54.5 -14.5q-18 0 -33 6t-28 13.5t-25 13.5t-25 6q-14 0 -22 -6t-21 -27q-3 -5 -4 -6t-6 3l-36 23q-5 3 -6 5t3 10q20 32 41.5 45t51.5 13q18 0 33.5 -6t29 -13.5t25.5 -13.5t25 -6q14 0 23.5 7.5t21.5 27.5q6 9 11 5l36 -22q9 -5 4 -14z
" />
    <glyph glyph-name="macron" unicode="&#xaf;" horiz-adv-x="546" 
d="M377 613q0 -8 -2.5 -10.5t-10.5 -2.5h-215q-8 0 -10.5 2.5t-2.5 10.5v44q0 8 2 10.5t11 2.5h215q8 0 10.5 -2.5t2.5 -10.5v-44v0z" />
    <glyph glyph-name="breve" horiz-adv-x="547" 
d="M398 720q-2 -23 -9 -47t-22 -43t-39 -31t-60 -12q-51 0 -88.5 33t-42.5 100q-2 13 9 13l51 3q6 0 8 -3t3 -13q3 -63 60 -63q56 0 59 63q1 10 3 13t8 3l51 -3q9 0 9 -13z" />
    <glyph glyph-name="dotaccent" horiz-adv-x="543" 
d="M323 665q0 -24 -16 -42t-42 -18q-24 0 -41 17t-17 43q0 23 16 41t42 18q24 0 41 -17t17 -42z" />
    <glyph glyph-name="ring" horiz-adv-x="545" 
d="M385 667q0 -21 -8 -40.5t-22 -35t-34.5 -25t-45.5 -9.5q-21 0 -40.5 8t-35 22t-25 34.5t-9.5 45.5q0 21 8 40.5t22 35t34.5 25t45.5 9.5q21 0 40.5 -8t35 -22t25 -34.5t9.5 -45.5zM329 667q0 23 -15.5 38.5t-38.5 15.5t-38.5 -15.5t-15.5 -38.5t15.5 -38.5t38.5 -15.5
t38.5 15.5t15.5 38.5z" />
    <glyph glyph-name="cedilla" unicode="&#xb8;" horiz-adv-x="543" 
d="M321 -145q-11 -27 -33.5 -38.5t-57.5 3.5l-42 18q-3 1 -2 4l12 37q1 4 5 2l42 -19q27 -12 37 9q6 12 0.5 21.5t-13.5 13.5l-50 21l-4.5 3t0.5 6l24 76h47l-20 -56l20 -9q36 -16 41.5 -40t-6.5 -52z" />
    <glyph glyph-name="hungarumlaut" unicode="&#xa;" horiz-adv-x="549" 
d="M318 593q-7 -7 -9 -7t-7 5l-28 26q-6 6 -6.5 8t4.5 8l120 158q6 8 8 8t10 -6l44 -42q5 -5 6 -7t-4 -7zM159 594q-7 -8 -9 -7.5t-7 5.5l-28 26q-6 5 -6.5 7.5t4.5 8.5l120 158q5 8 7.5 8.5t10.5 -6.5l44 -42q5 -5 5.5 -7.5t-3.5 -6.5z" />
    <glyph glyph-name="ogonek" horiz-adv-x="543" 
d="M337 -138q2 -8 -4 -11l-39 -17q-20 -9 -43.5 -5t-40.5 28q-11 15 -14 29.5t-1 28t7.5 25t11.5 20.5l43 56l67 12l-72 -94q-22 -29 -6 -51q12 -16 34 -7l37 16q4 2 5 1.5t3 -4.5l12 -27v0z" />
    <glyph glyph-name="caron" horiz-adv-x="340" 
 />
    <glyph glyph-name="Eth" unicode="&#xd0;" horiz-adv-x="553" 
d="M473 188q0 -90 -54 -139t-145 -49h-172q-8 0 -10.5 2t-2.5 11v302h-93q-9 0 -11 2.5t-2 10.5v44q0 8 2 10.5t11 2.5h93v294q0 9 2.5 11t10.5 2h172q91 0 145 -49t54 -139v-316v0zM403 493q0 42 -13.5 67t-33.5 39t-42.5 18.5t-39.5 4.5h-112v-237h92q9 0 11 -2.5t2 -10.5
v-44q0 -8 -2 -10.5t-11 -2.5h-92v-245h112q17 0 39.5 4.5t42.5 18.5t33.5 39t13.5 67v294z" />
    <glyph glyph-name="eth" unicode="&#xf0;" horiz-adv-x="539" 
d="M495 670q5 -7 5.5 -9.5t-7.5 -8.5l-71 -59q13 -25 19.5 -53t8.5 -55t2 -52v-44v-202q0 -27 -7.5 -61.5t-28.5 -64.5t-59 -51t-99 -21t-99 21t-59 53t-28.5 70t-7.5 72q1 42 12 87.5t39 76.5t62.5 44t80.5 13q51 0 79 -15.5t45 -39.5q1 48 -0.5 93.5t-15.5 80.5l-70 -59
q-8 -6 -10.5 -5.5t-8.5 7.5l-28 34q-5 7 -5.5 9.5t7.5 8.5l68 57q-23 9 -52 9q-24 0 -49.5 -7.5t-57.5 -30.5q-5 -3 -6.5 -3.5t-4.5 4.5l-31 44q-3 5 -3.5 7t5.5 7q35 23 69 36t78 13q36 0 63 -8.5t46 -22.5l72 61q8 6 10.5 5.5t8.5 -7.5l28 -34v0zM383 227q0 55 -30.5 92
t-94.5 37q-32 0 -55.5 -10.5t-39 -28t-23 -41t-7.5 -49.5q0 -90 29 -129t96 -39t96 39t29 129z" />
    </font>
</defs>
</svg>
